<svg width="1612" height="200" viewBox="0 0 1612 200" fill="none" xmlns="http://www.w3.org/2000/svg">
<mask id="path-1-outside-1_187_98" maskUnits="userSpaceOnUse" x="-1" y="-1" width="1614" height="202" fill="black">
<rect fill="white" x="-1" y="-1" width="1614" height="202"/>
<path d="M0.529297 197L74.9293 3.79998H150.229L224.629 197H149.029L135.229 161H89.9293L76.1293 197H0.529297ZM97.7293 111.5H127.129L112.429 74.6L97.7293 111.5ZM254.732 197V3.79998H315.632L369.632 79.4V3.79998H442.232V197H381.032L327.332 121.4V197H254.732ZM472.326 197L546.726 3.79998H622.026L696.426 197H620.826L607.026 161H561.726L547.926 197H472.326ZM569.526 111.5H598.926L584.226 74.6L569.526 111.5ZM726.529 197V3.79998H799.129V141.8H878.029V197H726.529ZM903.541 197V3.79998H976.141V197H903.541ZM1078.9 200C1065.3 200 1052.2 198.9 1039.6 196.7C1027 194.3 1016.4 190.9 1007.8 186.5V132.2C1017.2 136.8 1027.8 140.6 1039.6 143.6C1051.4 146.6 1061.9 148.1 1071.1 148.1C1077.1 148.1 1081.8 147.4 1085.2 146C1088.6 144.4 1090.3 142.2 1090.3 139.4C1090.3 135.8 1087.1 133 1080.7 131C1074.3 129 1065.9 126.1 1055.5 122.3C1043.1 117.5 1033.3 112.5 1026.1 107.3C1018.9 102.1 1013.7 95.9 1010.5 88.7C1007.5 81.3 1006 72.1 1006 61.1C1006 20.9 1034.3 0.799987 1090.9 0.799987C1097.3 0.799987 1104.4 1.29999 1112.2 2.29999C1120.2 3.09999 1127.9 4.19999 1135.3 5.6C1142.9 6.99999 1149.3 8.49999 1154.5 10.1V64.7C1143.5 60.1 1133.8 57 1125.4 55.4C1117 53.8 1109.6 53 1103.2 53C1098.2 53 1093.1 53.5 1087.9 54.5C1082.7 55.3 1080.1 57.3 1080.1 60.5C1080.1 63.1 1082.4 65.2 1087 66.8C1091.6 68.2 1098.9 70.3 1108.9 73.1C1124.9 77.5 1136.9 82.8 1144.9 89C1152.9 95 1158.2 102.2 1160.8 110.6C1163.6 118.8 1165 128.3 1165 139.1C1165 157.5 1157.8 172.3 1143.4 183.5C1129 194.5 1107.5 200 1078.9 200ZM1175.39 197L1249.79 3.79998H1325.09L1399.49 197H1323.89L1310.09 161H1264.79L1250.99 197H1175.39ZM1272.59 111.5H1301.99L1287.29 74.6L1272.59 111.5ZM1429.6 197V3.79998H1538.2C1554.8 3.79998 1568.5 6.99998 1579.3 13.4C1590.1 19.6 1598.1 28.2 1603.3 39.2C1608.7 50 1611.4 62.3 1611.4 76.1C1611.4 89.1 1608 100.5 1601.2 110.3C1594.6 120.1 1586.6 128.2 1577.2 134.6C1579.4 136 1581.1 137.6 1582.3 139.4C1583.5 141 1584.5 142.7 1585.3 144.5L1608.1 197H1532.5L1513.6 154.1C1512.6 151.7 1511.5 150.1 1510.3 149.3C1509.1 148.3 1507.4 147.8 1505.2 147.8H1502.2V197H1429.6ZM1502.2 91.1H1519.9C1531.7 91.1 1537.6 86.1 1537.6 76.1C1537.6 70.5 1536.2 66.5 1533.4 64.1C1530.8 61.7 1526.7 60.5 1521.1 60.5H1502.2V91.1Z"/>
</mask>
<path d="M0.529297 197L74.9293 3.79998H150.229L224.629 197H149.029L135.229 161H89.9293L76.1293 197H0.529297ZM97.7293 111.5H127.129L112.429 74.6L97.7293 111.5ZM254.732 197V3.79998H315.632L369.632 79.4V3.79998H442.232V197H381.032L327.332 121.4V197H254.732ZM472.326 197L546.726 3.79998H622.026L696.426 197H620.826L607.026 161H561.726L547.926 197H472.326ZM569.526 111.5H598.926L584.226 74.6L569.526 111.5ZM726.529 197V3.79998H799.129V141.8H878.029V197H726.529ZM903.541 197V3.79998H976.141V197H903.541ZM1078.9 200C1065.3 200 1052.2 198.9 1039.6 196.7C1027 194.3 1016.4 190.9 1007.8 186.5V132.2C1017.2 136.8 1027.8 140.6 1039.6 143.6C1051.4 146.6 1061.9 148.1 1071.1 148.1C1077.1 148.1 1081.8 147.4 1085.2 146C1088.6 144.4 1090.3 142.2 1090.3 139.4C1090.3 135.8 1087.1 133 1080.7 131C1074.3 129 1065.9 126.1 1055.5 122.3C1043.1 117.5 1033.3 112.5 1026.1 107.3C1018.9 102.1 1013.7 95.9 1010.5 88.7C1007.5 81.3 1006 72.1 1006 61.1C1006 20.9 1034.3 0.799987 1090.9 0.799987C1097.3 0.799987 1104.4 1.29999 1112.2 2.29999C1120.2 3.09999 1127.9 4.19999 1135.3 5.6C1142.9 6.99999 1149.3 8.49999 1154.5 10.1V64.7C1143.5 60.1 1133.8 57 1125.4 55.4C1117 53.8 1109.6 53 1103.2 53C1098.2 53 1093.1 53.5 1087.9 54.5C1082.7 55.3 1080.1 57.3 1080.1 60.5C1080.1 63.1 1082.4 65.2 1087 66.8C1091.6 68.2 1098.9 70.3 1108.9 73.1C1124.9 77.5 1136.9 82.8 1144.9 89C1152.9 95 1158.2 102.2 1160.8 110.6C1163.6 118.8 1165 128.3 1165 139.1C1165 157.5 1157.8 172.3 1143.4 183.5C1129 194.5 1107.5 200 1078.9 200ZM1175.39 197L1249.79 3.79998H1325.09L1399.49 197H1323.89L1310.09 161H1264.79L1250.99 197H1175.39ZM1272.59 111.5H1301.99L1287.29 74.6L1272.59 111.5ZM1429.6 197V3.79998H1538.2C1554.8 3.79998 1568.5 6.99998 1579.3 13.4C1590.1 19.6 1598.1 28.2 1603.3 39.2C1608.7 50 1611.4 62.3 1611.4 76.1C1611.4 89.1 1608 100.5 1601.2 110.3C1594.6 120.1 1586.6 128.2 1577.2 134.6C1579.4 136 1581.1 137.6 1582.3 139.4C1583.5 141 1584.5 142.7 1585.3 144.5L1608.1 197H1532.5L1513.6 154.1C1512.6 151.7 1511.5 150.1 1510.3 149.3C1509.1 148.3 1507.4 147.8 1505.2 147.8H1502.2V197H1429.6ZM1502.2 91.1H1519.9C1531.7 91.1 1537.6 86.1 1537.6 76.1C1537.6 70.5 1536.2 66.5 1533.4 64.1C1530.8 61.7 1526.7 60.5 1521.1 60.5H1502.2V91.1Z" fill="#3D1E4C" fill-opacity="0.36"/>
<path d="M0.529297 197L-0.403899 196.641L-0.927382 198H0.529297V197ZM74.9293 3.79998V2.79998H74.2428L73.9961 3.44062L74.9293 3.79998ZM150.229 3.79998L151.162 3.44062L150.916 2.79998H150.229V3.79998ZM224.629 197V198H226.086L225.563 196.641L224.629 197ZM149.029 197L148.096 197.358L148.342 198H149.029V197ZM135.229 161L136.163 160.642L135.917 160H135.229V161ZM89.9293 161V160H89.2417L88.9956 160.642L89.9293 161ZM76.1293 197V198H76.8169L77.063 197.358L76.1293 197ZM97.7293 111.5L96.8003 111.13L96.2545 112.5H97.7293V111.5ZM127.129 111.5V112.5H128.604L128.058 111.13L127.129 111.5ZM112.429 74.6L113.358 74.2299L112.429 71.8979L111.5 74.2299L112.429 74.6ZM1.46249 197.359L75.8625 4.15935L73.9961 3.44062L-0.403899 196.641L1.46249 197.359ZM74.9293 4.79998H150.229V2.79998H74.9293V4.79998ZM149.296 4.15935L223.696 197.359L225.563 196.641L151.162 3.44062L149.296 4.15935ZM224.629 196H149.029V198H224.629V196ZM149.963 196.642L136.163 160.642L134.296 161.358L148.096 197.358L149.963 196.642ZM135.229 160H89.9293V162H135.229V160ZM88.9956 160.642L75.1956 196.642L77.063 197.358L90.863 161.358L88.9956 160.642ZM76.1293 196H0.529297V198H76.1293V196ZM97.7293 112.5H127.129V110.5H97.7293V112.5ZM128.058 111.13L113.358 74.2299L111.5 74.9701L126.2 111.87L128.058 111.13ZM111.5 74.2299L96.8003 111.13L98.6583 111.87L113.358 74.9701L111.5 74.2299ZM254.732 197H253.732V198H254.732V197ZM254.732 3.79998V2.79998H253.732V3.79998H254.732ZM315.632 3.79998L316.446 3.21875L316.147 2.79998H315.632V3.79998ZM369.632 79.4L368.819 79.9812L370.632 82.5205V79.4H369.632ZM369.632 3.79998V2.79998H368.632V3.79998H369.632ZM442.232 3.79998H443.232V2.79998H442.232V3.79998ZM442.232 197V198H443.232V197H442.232ZM381.032 197L380.217 197.579L380.516 198H381.032V197ZM327.332 121.4L328.148 120.821L326.332 118.265V121.4H327.332ZM327.332 197V198H328.332V197H327.332ZM255.732 197V3.79998H253.732V197H255.732ZM254.732 4.79998H315.632V2.79998H254.732V4.79998ZM314.819 4.38122L368.819 79.9812L370.446 78.8188L316.446 3.21875L314.819 4.38122ZM370.632 79.4V3.79998H368.632V79.4H370.632ZM369.632 4.79998H442.232V2.79998H369.632V4.79998ZM441.232 3.79998V197H443.232V3.79998H441.232ZM442.232 196H381.032V198H442.232V196ZM381.848 196.421L328.148 120.821L326.517 121.979L380.217 197.579L381.848 196.421ZM326.332 121.4V197H328.332V121.4H326.332ZM327.332 196H254.732V198H327.332V196ZM472.326 197L471.393 196.641L470.869 198H472.326V197ZM546.726 3.79998V2.79998H546.04L545.793 3.44062L546.726 3.79998ZM622.026 3.79998L622.959 3.44062L622.713 2.79998H622.026V3.79998ZM696.426 197V198H697.883L697.359 196.641L696.426 197ZM620.826 197L619.892 197.358L620.139 198H620.826V197ZM607.026 161L607.96 160.642L607.714 160H607.026V161ZM561.726 161V160H561.039L560.792 160.642L561.726 161ZM547.926 197V198H548.614L548.86 197.358L547.926 197ZM569.526 111.5L568.597 111.13L568.051 112.5H569.526V111.5ZM598.926 111.5V112.5H600.401L599.855 111.13L598.926 111.5ZM584.226 74.6L585.155 74.2299L584.226 71.8979L583.297 74.2299L584.226 74.6ZM473.259 197.359L547.659 4.15935L545.793 3.44062L471.393 196.641L473.259 197.359ZM546.726 4.79998H622.026V2.79998H546.726V4.79998ZM621.093 4.15935L695.493 197.359L697.359 196.641L622.959 3.44062L621.093 4.15935ZM696.426 196H620.826V198H696.426V196ZM621.76 196.642L607.96 160.642L606.092 161.358L619.892 197.358L621.76 196.642ZM607.026 160H561.726V162H607.026V160ZM560.792 160.642L546.992 196.642L548.86 197.358L562.66 161.358L560.792 160.642ZM547.926 196H472.326V198H547.926V196ZM569.526 112.5H598.926V110.5H569.526V112.5ZM599.855 111.13L585.155 74.2299L583.297 74.9701L597.997 111.87L599.855 111.13ZM583.297 74.2299L568.597 111.13L570.455 111.87L585.155 74.9701L583.297 74.2299ZM726.529 197H725.529V198H726.529V197ZM726.529 3.79998V2.79998H725.529V3.79998H726.529ZM799.129 3.79998H800.129V2.79998H799.129V3.79998ZM799.129 141.8H798.129V142.8H799.129V141.8ZM878.029 141.8H879.029V140.8H878.029V141.8ZM878.029 197V198H879.029V197H878.029ZM727.529 197V3.79998H725.529V197H727.529ZM726.529 4.79998H799.129V2.79998H726.529V4.79998ZM798.129 3.79998V141.8H800.129V3.79998H798.129ZM799.129 142.8H878.029V140.8H799.129V142.8ZM877.029 141.8V197H879.029V141.8H877.029ZM878.029 196H726.529V198H878.029V196ZM903.541 197H902.541V198H903.541V197ZM903.541 3.79998V2.79998H902.541V3.79998H903.541ZM976.141 3.79998H977.141V2.79998H976.141V3.79998ZM976.141 197V198H977.141V197H976.141ZM904.541 197V3.79998H902.541V197H904.541ZM903.541 4.79998H976.141V2.79998H903.541V4.79998ZM975.141 3.79998V197H977.141V3.79998H975.141ZM976.141 196H903.541V198H976.141V196ZM1039.6 196.7L1039.41 197.682L1039.42 197.684L1039.43 197.685L1039.6 196.7ZM1007.8 186.5H1006.8V187.112L1007.34 187.39L1007.8 186.5ZM1007.8 132.2L1008.24 131.302L1006.8 130.597V132.2H1007.8ZM1085.2 146L1085.58 146.925L1085.6 146.915L1085.62 146.905L1085.2 146ZM1080.7 131L1081 130.046L1081 130.046L1080.7 131ZM1055.5 122.3L1055.14 123.233L1055.15 123.236L1055.15 123.239L1055.5 122.3ZM1026.1 107.3L1026.68 106.489L1026.68 106.489L1026.1 107.3ZM1010.5 88.7L1009.57 89.0757L1009.58 89.091L1009.58 89.1061L1010.5 88.7ZM1112.2 2.29999L1112.07 3.29187L1112.08 3.29364L1112.1 3.29502L1112.2 2.29999ZM1135.3 5.6L1135.11 6.58258L1135.12 6.58345L1135.3 5.6ZM1154.5 10.1H1155.5V9.36142L1154.79 9.14421L1154.5 10.1ZM1154.5 64.7L1154.11 65.6226L1155.5 66.2021V64.7H1154.5ZM1125.4 55.4L1125.59 54.4177L1125.59 54.4177L1125.4 55.4ZM1087.9 54.5L1088.05 55.4884L1088.07 55.4855L1088.09 55.482L1087.9 54.5ZM1087 66.8L1086.67 67.7445L1086.69 67.7509L1086.71 67.7567L1087 66.8ZM1108.9 73.1L1108.63 74.063L1108.63 74.0642L1108.9 73.1ZM1144.9 89L1144.29 89.7904L1144.29 89.7953L1144.3 89.8L1144.9 89ZM1160.8 110.6L1159.84 110.896L1159.85 110.909L1159.85 110.923L1160.8 110.6ZM1143.4 183.5L1144.01 184.295L1144.01 184.289L1143.4 183.5ZM1078.9 199C1065.35 199 1052.31 197.904 1039.77 195.715L1039.43 197.685C1052.09 199.896 1065.24 201 1078.9 201V199ZM1039.79 195.718C1027.25 193.33 1016.75 189.955 1008.25 185.61L1007.34 187.39C1016.05 191.845 1026.75 195.27 1039.41 197.682L1039.79 195.718ZM1008.8 186.5V132.2H1006.8V186.5H1008.8ZM1007.36 133.098C1016.83 137.733 1027.5 141.555 1039.35 144.569L1039.84 142.631C1028.1 139.645 1017.57 135.867 1008.24 131.302L1007.36 133.098ZM1039.35 144.569C1051.21 147.583 1061.79 149.1 1071.1 149.1V147.1C1062 147.1 1051.59 145.617 1039.84 142.631L1039.35 144.569ZM1071.1 149.1C1077.16 149.1 1082.01 148.396 1085.58 146.925L1084.82 145.075C1081.59 146.404 1077.04 147.1 1071.1 147.1V149.1ZM1085.62 146.905C1089.23 145.206 1091.3 142.722 1091.3 139.4H1089.3C1089.3 141.678 1087.96 143.594 1084.77 145.095L1085.62 146.905ZM1091.3 139.4C1091.3 137.259 1090.33 135.399 1088.56 133.847C1086.81 132.318 1084.26 131.066 1081 130.046L1080.4 131.954C1083.54 132.934 1085.79 134.082 1087.24 135.353C1088.67 136.601 1089.3 137.941 1089.3 139.4H1091.3ZM1081 130.046C1074.62 128.052 1066.23 125.158 1055.84 121.361L1055.15 123.239C1065.56 127.042 1073.98 129.948 1080.4 131.954L1081 130.046ZM1055.86 121.367C1043.5 116.585 1033.79 111.621 1026.68 106.489L1025.51 108.111C1032.81 113.379 1042.69 118.415 1055.14 123.233L1055.86 121.367ZM1026.68 106.489C1019.61 101.379 1014.53 95.3126 1011.41 88.2939L1009.58 89.1061C1012.86 96.4874 1018.19 102.821 1025.51 108.111L1026.68 106.489ZM1011.42 88.3243C1008.49 81.0795 1007 72.0166 1007 61.1H1005C1005 72.1834 1006.51 81.5205 1009.57 89.0757L1011.42 88.3243ZM1007 61.1C1007 41.2651 1013.96 26.5211 1027.8 16.6903C1041.71 6.81483 1062.69 1.79999 1090.9 1.79999V-0.200013C1062.51 -0.200013 1041.04 4.83515 1026.64 15.0597C1012.19 25.3289 1005 40.7349 1005 61.1H1007ZM1090.9 1.79999C1097.25 1.79999 1104.3 2.2961 1112.07 3.29187L1112.33 1.3081C1104.49 0.303868 1097.35 -0.200013 1090.9 -0.200013V1.79999ZM1112.1 3.29502C1120.07 4.09232 1127.74 5.18832 1135.11 6.58257L1135.48 4.61743C1128.05 3.21166 1120.32 2.10765 1112.3 1.30495L1112.1 3.29502ZM1135.12 6.58345C1142.69 7.97908 1149.05 9.4708 1154.2 11.0558L1154.79 9.14421C1149.54 7.52918 1143.1 6.0209 1135.48 4.61654L1135.12 6.58345ZM1153.5 10.1V64.7H1155.5V10.1H1153.5ZM1154.88 63.7774C1143.84 59.1603 1134.07 56.0346 1125.59 54.4177L1125.21 56.3823C1133.52 57.9654 1143.15 61.0397 1154.11 65.6226L1154.88 63.7774ZM1125.59 54.4177C1117.14 52.8096 1109.68 52 1103.2 52V54C1109.52 54 1116.85 54.7904 1125.21 56.3823L1125.59 54.4177ZM1103.2 52C1098.13 52 1092.97 52.5067 1087.71 53.518L1088.09 55.482C1093.23 54.4933 1098.27 54 1103.2 54V52ZM1087.75 53.5116C1085.07 53.9234 1082.93 54.6604 1081.44 55.8074C1079.9 56.9911 1079.1 58.5805 1079.1 60.5H1081.1C1081.1 59.2195 1081.6 58.2089 1082.66 57.3926C1083.77 56.5395 1085.53 55.8766 1088.05 55.4884L1087.75 53.5116ZM1079.1 60.5C1079.1 62.1362 1079.84 63.5648 1081.15 64.7635C1082.44 65.9417 1084.31 66.9224 1086.67 67.7445L1087.33 65.8555C1085.09 65.0776 1083.51 64.2082 1082.5 63.2865C1081.51 62.3852 1081.1 61.4638 1081.1 60.5H1079.1ZM1086.71 67.7567C1091.32 69.1602 1098.63 71.2627 1108.63 74.063L1109.17 72.137C1099.17 69.3373 1091.88 67.2398 1087.29 65.8433L1086.71 67.7567ZM1108.63 74.0642C1124.58 78.4489 1136.43 83.7056 1144.29 89.7904L1145.51 88.2096C1137.36 81.8944 1125.22 76.5511 1109.16 72.1358L1108.63 74.0642ZM1144.3 89.8C1152.15 95.6916 1157.31 102.724 1159.84 110.896L1161.75 110.304C1159.08 101.676 1153.64 94.3084 1145.5 88.2L1144.3 89.8ZM1159.85 110.923C1162.61 118.997 1164 128.384 1164 139.1H1166C1166 128.216 1164.59 118.603 1161.74 110.277L1159.85 110.923ZM1164 139.1C1164 157.195 1156.94 171.702 1142.78 182.711L1144.01 184.289C1158.66 172.898 1166 157.805 1166 139.1H1164ZM1142.79 182.705C1128.64 193.515 1107.4 199 1078.9 199V201C1107.6 201 1129.36 195.485 1144.01 184.295L1142.79 182.705ZM1175.39 197L1174.46 196.641L1173.94 198H1175.39V197ZM1249.79 3.79998V2.79998H1249.11L1248.86 3.44062L1249.79 3.79998ZM1325.09 3.79998L1326.03 3.44062L1325.78 2.79998H1325.09V3.79998ZM1399.49 197V198H1400.95L1400.43 196.641L1399.49 197ZM1323.89 197L1322.96 197.358L1323.2 198H1323.89V197ZM1310.09 161L1311.03 160.642L1310.78 160H1310.09V161ZM1264.79 161V160H1264.1L1263.86 160.642L1264.79 161ZM1250.99 197V198H1251.68L1251.93 197.358L1250.99 197ZM1272.59 111.5L1271.66 111.13L1271.12 112.5H1272.59V111.5ZM1301.99 111.5V112.5H1303.47L1302.92 111.13L1301.99 111.5ZM1287.29 74.6L1288.22 74.2299L1287.29 71.8979L1286.36 74.2299L1287.29 74.6ZM1176.33 197.359L1250.73 4.15935L1248.86 3.44062L1174.46 196.641L1176.33 197.359ZM1249.79 4.79998H1325.09V2.79998H1249.79V4.79998ZM1324.16 4.15935L1398.56 197.359L1400.43 196.641L1326.03 3.44062L1324.16 4.15935ZM1399.49 196H1323.89V198H1399.49V196ZM1324.83 196.642L1311.03 160.642L1309.16 161.358L1322.96 197.358L1324.83 196.642ZM1310.09 160H1264.79V162H1310.09V160ZM1263.86 160.642L1250.06 196.642L1251.93 197.358L1265.73 161.358L1263.86 160.642ZM1250.99 196H1175.39V198H1250.99V196ZM1272.59 112.5H1301.99V110.5H1272.59V112.5ZM1302.92 111.13L1288.22 74.2299L1286.36 74.9701L1301.06 111.87L1302.92 111.13ZM1286.36 74.2299L1271.66 111.13L1273.52 111.87L1288.22 74.9701L1286.36 74.2299ZM1429.6 197H1428.6V198H1429.6V197ZM1429.6 3.79998V2.79998H1428.6V3.79998H1429.6ZM1579.3 13.4L1578.79 14.2604L1578.8 14.2672L1579.3 13.4ZM1603.3 39.2L1602.39 39.6274L1602.4 39.6373L1602.4 39.6472L1603.3 39.2ZM1601.2 110.3L1600.37 109.73L1600.37 109.741L1601.2 110.3ZM1577.2 134.6L1576.63 133.773L1575.38 134.628L1576.66 135.444L1577.2 134.6ZM1582.3 139.4L1581.46 139.955L1581.48 139.978L1581.5 140L1582.3 139.4ZM1585.3 144.5L1586.21 144.102L1586.21 144.094L1585.3 144.5ZM1608.1 197V198H1609.62L1609.01 196.602L1608.1 197ZM1532.5 197L1531.58 197.403L1531.84 198H1532.5V197ZM1513.6 154.1L1512.67 154.485L1512.68 154.494L1512.68 154.503L1513.6 154.1ZM1510.3 149.3L1509.66 150.068L1509.7 150.102L1509.74 150.132L1510.3 149.3ZM1502.2 147.8V146.8H1501.2V147.8H1502.2ZM1502.2 197V198H1503.2V197H1502.2ZM1502.2 91.1H1501.2V92.1H1502.2V91.1ZM1533.4 64.1L1532.72 64.8348L1532.73 64.8473L1532.74 64.8593L1533.4 64.1ZM1502.2 60.5V59.5H1501.2V60.5H1502.2ZM1430.6 197V3.79998H1428.6V197H1430.6ZM1429.6 4.79998H1538.2V2.79998H1429.6V4.79998ZM1538.2 4.79998C1554.67 4.79998 1568.18 7.97666 1578.79 14.2603L1579.81 12.5397C1568.81 6.02331 1554.92 2.79998 1538.2 2.79998V4.79998ZM1578.8 14.2672C1589.43 20.3681 1597.28 28.8166 1602.39 39.6274L1604.2 38.7726C1598.91 27.5834 1590.77 18.8319 1579.79 12.5327L1578.8 14.2672ZM1602.4 39.6472C1607.72 50.2897 1610.4 62.433 1610.4 76.1H1612.4C1612.4 62.167 1609.67 49.7103 1604.19 38.7528L1602.4 39.6472ZM1610.4 76.1C1610.4 88.9154 1607.05 100.112 1600.37 109.73L1602.02 110.87C1608.94 100.888 1612.4 89.2846 1612.4 76.1H1610.4ZM1600.37 109.741C1593.83 119.44 1585.92 127.448 1576.63 133.773L1577.76 135.427C1587.27 128.952 1595.36 120.76 1602.03 110.859L1600.37 109.741ZM1576.66 135.444C1578.77 136.784 1580.36 138.292 1581.46 139.955L1583.13 138.845C1581.84 136.908 1580.03 135.216 1577.73 133.756L1576.66 135.444ZM1581.5 140C1582.65 141.541 1583.61 143.176 1584.38 144.906L1586.21 144.094C1585.38 142.224 1584.34 140.459 1583.1 138.8L1581.5 140ZM1584.38 144.898L1607.18 197.398L1609.01 196.602L1586.21 144.102L1584.38 144.898ZM1608.1 196H1532.5V198H1608.1V196ZM1533.41 196.597L1514.51 153.697L1512.68 154.503L1531.58 197.403L1533.41 196.597ZM1514.52 153.715C1513.5 151.26 1512.3 149.435 1510.85 148.468L1509.74 150.132C1510.69 150.765 1511.7 152.14 1512.67 154.485L1514.52 153.715ZM1510.94 148.532C1509.5 147.331 1507.54 146.8 1505.2 146.8V148.8C1507.26 148.8 1508.7 149.269 1509.66 150.068L1510.94 148.532ZM1505.2 146.8H1502.2V148.8H1505.2V146.8ZM1501.2 147.8V197H1503.2V147.8H1501.2ZM1502.2 196H1429.6V198H1502.2V196ZM1502.2 92.1H1519.9V90.1H1502.2V92.1ZM1519.9 92.1C1525.91 92.1 1530.61 90.8286 1533.82 88.1129C1537.05 85.3703 1538.6 81.3015 1538.6 76.1H1536.6C1536.6 80.8985 1535.19 84.3297 1532.52 86.5871C1529.83 88.8714 1525.68 90.1 1519.9 90.1V92.1ZM1538.6 76.1C1538.6 70.3606 1537.16 66.0115 1534.05 63.3407L1532.74 64.8593C1535.23 66.9885 1536.6 70.6394 1536.6 76.1H1538.6ZM1534.07 63.3652C1531.21 60.719 1526.81 59.5 1521.1 59.5V61.5C1526.58 61.5 1530.38 62.681 1532.72 64.8348L1534.07 63.3652ZM1521.1 59.5H1502.2V61.5H1521.1V59.5ZM1501.2 60.5V91.1H1503.2V60.5H1501.2Z" fill="#3D1E4C" fill-opacity="0.1" mask="url(#path-1-outside-1_187_98)"/>
</svg>
