<svg width="107" height="107" viewBox="0 0 107 107" fill="none" xmlns="http://www.w3.org/2000/svg">
<path d="M59.057 4.30346e-05H81.5509C83.8999 0.0437666 86 5.79953e-05 88.5 5.79953e-05C91 5.79953e-05 93.5 5.79953e-05 95.5 5.79953e-05C98 5.29289e-05 105 0 107 0C107 2 107 8 107 11C107 13.5 107 16 107 18C107 20.5 107 23.0883 107 25.5C107 26.6026 107 27.3974 107 28.5V78.2578C107 79.3605 107 80.3974 107 81.5C107 84 107 86 107 88.5C107 90.5 107 93.5 107 95.5C107 100 107 104.044 107 107C104.5 107 97 107 95 107C92.5 107 83.9218 107 81.5703 107H74.5508H67.5195H53.5H25.4999C23 107 20.4999 107 17.9999 107C15.9999 107 11.4999 107 8.99985 107C6.5 107 2.50001 107 0 107C0.000120384 104.5 -0.000120384 98 -0.000258667 95.5C-0.000120384 93.5 -0.000120384 91 -0.000237507 88.5C-0.000120384 86 -0.000256879 83.9235 -0.000256879 81.5512C-0.000256879 80.4485 -0.000256879 79.3459 -0.000256879 78.2432V28.7568C-0.000256879 27.6542 -0.000256879 26.5516 -0.000256879 25.4489C-0.000256879 23.1271 -0.000703881 18.8605 -0.000355346 16.5C-0.000174028 14 -7.72269e-05 12.1356 -0.000174028 10C-0.000355346 6.00004 -0.000178007 3.50004 -0.00026117 6.61016e-05C2.49981 0.000111595 15.4998 7.60555e-05 17.9997 7.60555e-05C20.3322 1.75089e-05 23.1133 0.0603856 25.4486 4.30346e-05H59.057Z" fill="#3D1E4C"/>
<path d="M30.0799 40.1802C29.97 37.9269 30.7276 35.7172 32.1969 34.0054C33.6795 32.2262 35.8023 31.1014 38.1071 30.8739C38.2874 33.1957 37.5422 35.4946 36.0341 37.2692C35.3405 38.1885 34.4398 38.9312 33.4053 39.437C32.3707 39.9428 31.2314 40.1974 30.0799 40.1802ZM41.1063 52.221C41.1377 50.6803 41.5587 49.1726 42.3299 47.8384C43.1011 46.5042 44.1974 45.387 45.5168 44.5907C44.6837 43.4107 43.5898 42.4388 42.32 41.7503C41.0502 41.0619 39.6387 40.6755 38.1953 40.6212C34.8874 40.6212 32.1087 42.5178 30.5209 42.5178C28.9331 42.5178 26.5514 40.7094 23.9492 40.7535C22.2515 40.8081 20.5964 41.2995 19.144 42.1802C17.6915 43.061 16.4907 44.3014 15.6574 45.7816C12.1289 51.8681 14.7312 60.9539 18.1714 65.8937C19.8474 68.3636 21.8763 71.054 24.5226 70.9658C27.1689 70.8776 28.0069 69.3339 31.0502 69.3339C34.0935 69.3339 34.9756 70.9658 37.6219 70.9217C40.2683 70.8776 42.0325 68.4518 43.7967 65.9819C44.9824 64.2456 45.9039 62.3431 46.5312 60.3364C44.9286 59.6678 43.5589 58.5411 42.5939 57.0975C41.6288 55.6538 41.1113 53.9575 41.1063 52.221ZM87.3288 42.6501L80.3602 65.1439L73.4356 42.6501H67.4373L77.3169 70.5689H83.227L93.1067 42.5619L87.3288 42.6501ZM59.0572 35.946H53.4999V42.6501H49.3981V47.0606H53.4999V63.3356C53.4999 68.7164 55.6611 70.8776 61.2184 70.8776C62.2841 70.8708 63.3469 70.7675 64.394 70.5689V66.1583H62.4974C60.1157 66.1583 59.0572 65.0116 59.0572 62.5858V47.0606H64.4381V42.6501H59.0572V35.946Z" fill="#F9F9F9"/>
</svg>
