<svg width="24" height="24" viewBox="0 0 14 24" fill="none" xmlns="http://www.w3.org/2000/svg">
<path d="M5.69993 24V21.1333C4.52216 20.8667 3.50549 20.3556 2.64994 19.6C1.79438 18.8444 1.1666 17.7778 0.766602 16.4L3.23327 15.4C3.5666 16.4667 4.06105 17.2778 4.7166 17.8333C5.37216 18.3889 6.23327 18.6667 7.29994 18.6667C8.21105 18.6667 8.98327 18.4611 9.6166 18.05C10.2499 17.6389 10.5666 17 10.5666 16.1333C10.5666 15.3556 10.3222 14.7389 9.83327 14.2833C9.34438 13.8278 8.21105 13.3111 6.43327 12.7333C4.52216 12.1333 3.21105 11.4167 2.49994 10.5833C1.78882 9.75 1.43327 8.73333 1.43327 7.53333C1.43327 6.08889 1.89994 4.96667 2.83327 4.16667C3.7666 3.36667 4.72216 2.91111 5.69993 2.8V0H8.3666V2.8C9.47771 2.97778 10.3944 3.38333 11.1166 4.01667C11.8388 4.65 12.3666 5.42222 12.6999 6.33333L10.2333 7.4C9.9666 6.68889 9.58882 6.15556 9.09994 5.8C8.61105 5.44444 7.94438 5.26667 7.09994 5.26667C6.12216 5.26667 5.37771 5.48333 4.8666 5.91667C4.35549 6.35 4.09994 6.88889 4.09994 7.53333C4.09994 8.26667 4.43327 8.84445 5.09994 9.26667C5.7666 9.68889 6.92216 10.1333 8.5666 10.6C10.0999 11.0444 11.261 11.75 12.0499 12.7167C12.8388 13.6833 13.2333 14.8 13.2333 16.0667C13.2333 17.6444 12.7666 18.8444 11.8333 19.6667C10.8999 20.4889 9.74438 21 8.3666 21.2V24H5.69993Z" fill="#561376"/>
</svg>
