<svg width="526" height="48" viewBox="0 0 526 48" fill="none" xmlns="http://www.w3.org/2000/svg">
<g filter="url(#filter0_d_22_2)">
<mask id="path-1-outside-1_22_2" maskUnits="userSpaceOnUse" x="-1" y="-1" width="526" height="48" fill="black">
<rect fill="white" x="-1" y="-1" width="526" height="48"/>
<path d="M23.576 45.64C16.1093 45.64 10.4133 43.8053 6.488 40.136C2.56267 36.4667 0.6 31.2827 0.6 24.584C0.6 17.672 2.52 12.3813 6.36 8.712C10.2 5 15.9173 3.144 23.512 3.144C26.072 3.144 28.3547 3.336 30.36 3.72C32.3653 4.104 34.2853 4.63733 36.12 5.32V15.816C32.4507 14.1947 28.5253 13.384 24.344 13.384C20.4613 13.384 17.5813 14.28 15.704 16.072C13.8267 17.8213 12.888 20.6587 12.888 24.584C12.888 28.424 13.8693 31.1973 15.832 32.904C17.8373 34.568 20.7173 35.4 24.472 35.4C26.52 35.4 28.504 35.208 30.424 34.824C32.3867 34.44 34.328 33.8427 36.248 33.032V43.592C34.4133 44.232 32.472 44.7227 30.424 45.064C28.4187 45.448 26.136 45.64 23.576 45.64ZM60.403 45.64C54.3443 45.64 49.8643 44.296 46.963 41.608C44.1043 38.92 42.675 34.9947 42.675 29.832C42.675 24.712 44.1257 20.808 47.027 18.12C49.9283 15.3893 54.387 14.024 60.403 14.024C66.4617 14.024 70.9417 15.3893 73.843 18.12C76.787 20.808 78.259 24.712 78.259 29.832C78.259 34.9947 76.8083 38.92 73.907 41.608C71.0057 44.296 66.5043 45.64 60.403 45.64ZM60.403 36.872C62.3657 36.872 63.7737 36.3173 64.627 35.208C65.523 34.0987 65.971 32.3067 65.971 29.832C65.971 27.4 65.523 25.6293 64.627 24.52C63.7737 23.368 62.3657 22.792 60.403 22.792C58.483 22.792 57.0963 23.368 56.243 24.52C55.3897 25.6293 54.963 27.4 54.963 29.832C54.963 32.3067 55.3897 34.0987 56.243 35.208C57.0963 36.3173 58.483 36.872 60.403 36.872ZM85.9675 45V14.664H97.1035L97.4235 17.096C98.7462 16.2 100.218 15.4747 101.84 14.92C103.504 14.3227 105.317 14.024 107.28 14.024C109.242 14.024 110.778 14.3013 111.888 14.856C112.997 15.4107 113.893 16.2213 114.576 17.288C115.941 16.3067 117.477 15.5173 119.184 14.92C120.933 14.3227 122.981 14.024 125.328 14.024C128.869 14.024 131.472 14.9627 133.136 16.84C134.8 18.6747 135.632 21.4907 135.632 25.288V45H123.792V26.696C123.792 25.3307 123.514 24.3707 122.96 23.816C122.405 23.2187 121.488 22.92 120.208 22.92C118.544 22.92 117.178 23.5173 116.112 24.712C116.197 25.2667 116.24 25.8 116.24 26.312C116.24 26.7813 116.24 27.3147 116.24 27.912V45H105.104V26.504C105.104 25.2667 104.89 24.3707 104.464 23.816C104.037 23.2187 103.226 22.92 102.032 22.92C101.221 22.92 100.432 23.1333 99.6635 23.56C98.8955 23.9867 98.2128 24.4987 97.6155 25.096V45H85.9675ZM160.366 45.64C154.307 45.64 149.827 44.296 146.926 41.608C144.067 38.92 142.638 34.9947 142.638 29.832C142.638 24.712 144.088 20.808 146.99 18.12C149.891 15.3893 154.35 14.024 160.366 14.024C166.424 14.024 170.904 15.3893 173.806 18.12C176.75 20.808 178.222 24.712 178.222 29.832C178.222 34.9947 176.771 38.92 173.87 41.608C170.968 44.296 166.467 45.64 160.366 45.64ZM160.366 36.872C162.328 36.872 163.736 36.3173 164.59 35.208C165.486 34.0987 165.934 32.3067 165.934 29.832C165.934 27.4 165.486 25.6293 164.59 24.52C163.736 23.368 162.328 22.792 160.366 22.792C158.446 22.792 157.059 23.368 156.206 24.52C155.352 25.6293 154.926 27.4 154.926 29.832C154.926 32.3067 155.352 34.0987 156.206 35.208C157.059 36.3173 158.446 36.872 160.366 36.872ZM203.919 45V23.56H200.015V14.664H203.919V12.68C203.919 9.26667 204.9 6.45066 206.863 4.232C208.826 1.97066 211.77 0.839996 215.695 0.839996C217.359 0.839996 218.831 0.967997 220.111 1.224C221.434 1.48 222.671 1.84266 223.823 2.312V10.12C223.183 9.90667 222.543 9.736 221.903 9.608C221.306 9.48 220.666 9.416 219.983 9.416C218.447 9.416 217.38 9.69333 216.783 10.248C216.228 10.8027 215.951 11.6987 215.951 12.936V14.664H223.119L222.607 23.56H215.951V45H203.919ZM241.4 45.64C237.859 45.64 235.086 44.6373 233.08 42.632C231.075 40.6267 230.072 37.6827 230.072 33.8V14.664H242.104V32.84C242.104 35.4853 243.448 36.808 246.136 36.808C247.118 36.808 248.078 36.5947 249.016 36.168C249.955 35.7413 250.702 35.208 251.256 34.568V14.664H263.288V45H252.024L251.704 42.696C250.51 43.5493 249.038 44.2533 247.288 44.808C245.582 45.3627 243.619 45.64 241.4 45.64ZM272.217 45V14.664H283.481L283.801 16.968C284.953 16.2 286.468 15.5173 288.345 14.92C290.265 14.3227 292.313 14.024 294.489 14.024C298.287 14.024 301.06 14.9627 302.809 16.84C304.559 18.7173 305.433 21.6187 305.433 25.544V45H293.401V26.76C293.401 25.3947 293.103 24.4133 292.505 23.816C291.908 23.2187 290.863 22.92 289.369 22.92C288.473 22.92 287.535 23.1333 286.553 23.56C285.615 23.9867 284.847 24.4987 284.249 25.096V45H272.217ZM330.244 45.64C324.74 45.64 320.388 44.3387 317.188 41.736C313.988 39.0907 312.388 35.1227 312.388 29.832C312.388 26.248 313.134 23.2827 314.628 20.936C316.121 18.5893 318.212 16.8613 320.9 15.752C323.588 14.6 326.724 14.024 330.308 14.024C332.569 14.024 334.596 14.1947 336.388 14.536C338.18 14.8347 339.886 15.368 341.508 16.136V24.584C338.99 23.3893 336.132 22.792 332.932 22.792C330.201 22.792 328.132 23.304 326.724 24.328C325.358 25.352 324.676 27.1867 324.676 29.832C324.676 32.3067 325.337 34.0987 326.66 35.208C327.982 36.3173 330.073 36.872 332.932 36.872C334.468 36.872 335.961 36.7013 337.412 36.36C338.862 35.976 340.249 35.4427 341.572 34.76V43.592C339.95 44.3173 338.201 44.8293 336.324 45.128C334.489 45.4693 332.462 45.64 330.244 45.64ZM351.354 10.632V1.928H364.346V10.632H351.354ZM352.314 45V23.432H347.898L348.922 14.664H364.346V45H352.314ZM389.766 45.64C383.707 45.64 379.227 44.296 376.326 41.608C373.467 38.92 372.038 34.9947 372.038 29.832C372.038 24.712 373.488 20.808 376.39 18.12C379.291 15.3893 383.75 14.024 389.766 14.024C395.824 14.024 400.304 15.3893 403.206 18.12C406.15 20.808 407.622 24.712 407.622 29.832C407.622 34.9947 406.171 38.92 403.27 41.608C400.368 44.296 395.867 45.64 389.766 45.64ZM389.766 36.872C391.728 36.872 393.136 36.3173 393.99 35.208C394.886 34.0987 395.334 32.3067 395.334 29.832C395.334 27.4 394.886 25.6293 393.99 24.52C393.136 23.368 391.728 22.792 389.766 22.792C387.846 22.792 386.459 23.368 385.606 24.52C384.752 25.6293 384.326 27.4 384.326 29.832C384.326 32.3067 384.752 34.0987 385.606 35.208C386.459 36.3173 387.846 36.872 389.766 36.872ZM415.33 45V14.664H426.594L426.914 16.968C428.066 16.2 429.581 15.5173 431.458 14.92C433.378 14.3227 435.426 14.024 437.602 14.024C441.399 14.024 444.173 14.9627 445.922 16.84C447.671 18.7173 448.546 21.6187 448.546 25.544V45H436.514V26.76C436.514 25.3947 436.215 24.4133 435.618 23.816C435.021 23.2187 433.975 22.92 432.482 22.92C431.586 22.92 430.647 23.1333 429.666 23.56C428.727 23.9867 427.959 24.4987 427.362 25.096V45H415.33ZM465.689 45.64C463.769 45.64 461.977 45.2987 460.313 44.616C458.692 43.9333 457.391 42.8667 456.409 41.416C455.428 39.9653 454.937 38.1307 454.937 35.912C454.937 32.712 456.004 30.2373 458.137 28.488C460.271 26.696 463.492 25.8 467.801 25.8H475.673V25.224C475.673 24.0293 475.183 23.1547 474.201 22.6C473.22 22.0453 471.492 21.768 469.017 21.768C465.519 21.768 462.063 22.3013 458.649 23.368V16.136C460.185 15.5387 462.105 15.048 464.409 14.664C466.713 14.2373 469.06 14.024 471.449 14.024C476.271 14.024 480.089 15.0053 482.905 16.968C485.721 18.9307 487.129 22.0453 487.129 26.312V45H476.633L476.057 42.568C474.991 43.5067 473.604 44.2533 471.897 44.808C470.233 45.3627 468.164 45.64 465.689 45.64ZM469.785 38.6C471.151 38.6 472.303 38.3653 473.241 37.896C474.223 37.4267 475.033 36.8507 475.673 36.168V32.392H469.849C467.204 32.392 465.881 33.4373 465.881 35.528C465.881 37.576 467.183 38.6 469.785 38.6ZM500.913 33.224V32.072C500.913 30.28 501.254 28.8293 501.937 27.72C502.619 26.568 503.665 25.3733 505.073 24.136C506.225 23.112 507.249 22.28 508.145 21.64C509.041 20.9573 509.745 20.296 510.257 19.656C510.811 18.9733 511.089 18.1413 511.089 17.16C511.089 15.7947 510.534 14.8347 509.425 14.28C508.358 13.6827 506.609 13.384 504.177 13.384C502.299 13.384 500.507 13.6187 498.801 14.088C497.137 14.5147 495.707 15.0907 494.513 15.816V5.832C496.177 4.97866 498.097 4.31733 500.273 3.848C502.449 3.37866 504.902 3.144 507.633 3.144C512.71 3.144 516.593 4.232 519.281 6.408C522.011 8.584 523.377 11.5707 523.377 15.368C523.377 17.7147 522.929 19.6347 522.033 21.128C521.137 22.6213 519.729 24.1573 517.809 25.736C516.358 26.9307 515.078 27.9973 513.969 28.936C512.859 29.8747 512.305 31.048 512.305 32.456V33.224H500.913ZM500.337 45V36.488H512.881V45H500.337Z"/>
</mask>
<path d="M23.576 45.64C16.1093 45.64 10.4133 43.8053 6.488 40.136C2.56267 36.4667 0.6 31.2827 0.6 24.584C0.6 17.672 2.52 12.3813 6.36 8.712C10.2 5 15.9173 3.144 23.512 3.144C26.072 3.144 28.3547 3.336 30.36 3.72C32.3653 4.104 34.2853 4.63733 36.12 5.32V15.816C32.4507 14.1947 28.5253 13.384 24.344 13.384C20.4613 13.384 17.5813 14.28 15.704 16.072C13.8267 17.8213 12.888 20.6587 12.888 24.584C12.888 28.424 13.8693 31.1973 15.832 32.904C17.8373 34.568 20.7173 35.4 24.472 35.4C26.52 35.4 28.504 35.208 30.424 34.824C32.3867 34.44 34.328 33.8427 36.248 33.032V43.592C34.4133 44.232 32.472 44.7227 30.424 45.064C28.4187 45.448 26.136 45.64 23.576 45.64ZM60.403 45.64C54.3443 45.64 49.8643 44.296 46.963 41.608C44.1043 38.92 42.675 34.9947 42.675 29.832C42.675 24.712 44.1257 20.808 47.027 18.12C49.9283 15.3893 54.387 14.024 60.403 14.024C66.4617 14.024 70.9417 15.3893 73.843 18.12C76.787 20.808 78.259 24.712 78.259 29.832C78.259 34.9947 76.8083 38.92 73.907 41.608C71.0057 44.296 66.5043 45.64 60.403 45.64ZM60.403 36.872C62.3657 36.872 63.7737 36.3173 64.627 35.208C65.523 34.0987 65.971 32.3067 65.971 29.832C65.971 27.4 65.523 25.6293 64.627 24.52C63.7737 23.368 62.3657 22.792 60.403 22.792C58.483 22.792 57.0963 23.368 56.243 24.52C55.3897 25.6293 54.963 27.4 54.963 29.832C54.963 32.3067 55.3897 34.0987 56.243 35.208C57.0963 36.3173 58.483 36.872 60.403 36.872ZM85.9675 45V14.664H97.1035L97.4235 17.096C98.7462 16.2 100.218 15.4747 101.84 14.92C103.504 14.3227 105.317 14.024 107.28 14.024C109.242 14.024 110.778 14.3013 111.888 14.856C112.997 15.4107 113.893 16.2213 114.576 17.288C115.941 16.3067 117.477 15.5173 119.184 14.92C120.933 14.3227 122.981 14.024 125.328 14.024C128.869 14.024 131.472 14.9627 133.136 16.84C134.8 18.6747 135.632 21.4907 135.632 25.288V45H123.792V26.696C123.792 25.3307 123.514 24.3707 122.96 23.816C122.405 23.2187 121.488 22.92 120.208 22.92C118.544 22.92 117.178 23.5173 116.112 24.712C116.197 25.2667 116.24 25.8 116.24 26.312C116.24 26.7813 116.24 27.3147 116.24 27.912V45H105.104V26.504C105.104 25.2667 104.89 24.3707 104.464 23.816C104.037 23.2187 103.226 22.92 102.032 22.92C101.221 22.92 100.432 23.1333 99.6635 23.56C98.8955 23.9867 98.2128 24.4987 97.6155 25.096V45H85.9675ZM160.366 45.64C154.307 45.64 149.827 44.296 146.926 41.608C144.067 38.92 142.638 34.9947 142.638 29.832C142.638 24.712 144.088 20.808 146.99 18.12C149.891 15.3893 154.35 14.024 160.366 14.024C166.424 14.024 170.904 15.3893 173.806 18.12C176.75 20.808 178.222 24.712 178.222 29.832C178.222 34.9947 176.771 38.92 173.87 41.608C170.968 44.296 166.467 45.64 160.366 45.64ZM160.366 36.872C162.328 36.872 163.736 36.3173 164.59 35.208C165.486 34.0987 165.934 32.3067 165.934 29.832C165.934 27.4 165.486 25.6293 164.59 24.52C163.736 23.368 162.328 22.792 160.366 22.792C158.446 22.792 157.059 23.368 156.206 24.52C155.352 25.6293 154.926 27.4 154.926 29.832C154.926 32.3067 155.352 34.0987 156.206 35.208C157.059 36.3173 158.446 36.872 160.366 36.872ZM203.919 45V23.56H200.015V14.664H203.919V12.68C203.919 9.26667 204.9 6.45066 206.863 4.232C208.826 1.97066 211.77 0.839996 215.695 0.839996C217.359 0.839996 218.831 0.967997 220.111 1.224C221.434 1.48 222.671 1.84266 223.823 2.312V10.12C223.183 9.90667 222.543 9.736 221.903 9.608C221.306 9.48 220.666 9.416 219.983 9.416C218.447 9.416 217.38 9.69333 216.783 10.248C216.228 10.8027 215.951 11.6987 215.951 12.936V14.664H223.119L222.607 23.56H215.951V45H203.919ZM241.4 45.64C237.859 45.64 235.086 44.6373 233.08 42.632C231.075 40.6267 230.072 37.6827 230.072 33.8V14.664H242.104V32.84C242.104 35.4853 243.448 36.808 246.136 36.808C247.118 36.808 248.078 36.5947 249.016 36.168C249.955 35.7413 250.702 35.208 251.256 34.568V14.664H263.288V45H252.024L251.704 42.696C250.51 43.5493 249.038 44.2533 247.288 44.808C245.582 45.3627 243.619 45.64 241.4 45.64ZM272.217 45V14.664H283.481L283.801 16.968C284.953 16.2 286.468 15.5173 288.345 14.92C290.265 14.3227 292.313 14.024 294.489 14.024C298.287 14.024 301.06 14.9627 302.809 16.84C304.559 18.7173 305.433 21.6187 305.433 25.544V45H293.401V26.76C293.401 25.3947 293.103 24.4133 292.505 23.816C291.908 23.2187 290.863 22.92 289.369 22.92C288.473 22.92 287.535 23.1333 286.553 23.56C285.615 23.9867 284.847 24.4987 284.249 25.096V45H272.217ZM330.244 45.64C324.74 45.64 320.388 44.3387 317.188 41.736C313.988 39.0907 312.388 35.1227 312.388 29.832C312.388 26.248 313.134 23.2827 314.628 20.936C316.121 18.5893 318.212 16.8613 320.9 15.752C323.588 14.6 326.724 14.024 330.308 14.024C332.569 14.024 334.596 14.1947 336.388 14.536C338.18 14.8347 339.886 15.368 341.508 16.136V24.584C338.99 23.3893 336.132 22.792 332.932 22.792C330.201 22.792 328.132 23.304 326.724 24.328C325.358 25.352 324.676 27.1867 324.676 29.832C324.676 32.3067 325.337 34.0987 326.66 35.208C327.982 36.3173 330.073 36.872 332.932 36.872C334.468 36.872 335.961 36.7013 337.412 36.36C338.862 35.976 340.249 35.4427 341.572 34.76V43.592C339.95 44.3173 338.201 44.8293 336.324 45.128C334.489 45.4693 332.462 45.64 330.244 45.64ZM351.354 10.632V1.928H364.346V10.632H351.354ZM352.314 45V23.432H347.898L348.922 14.664H364.346V45H352.314ZM389.766 45.64C383.707 45.64 379.227 44.296 376.326 41.608C373.467 38.92 372.038 34.9947 372.038 29.832C372.038 24.712 373.488 20.808 376.39 18.12C379.291 15.3893 383.75 14.024 389.766 14.024C395.824 14.024 400.304 15.3893 403.206 18.12C406.15 20.808 407.622 24.712 407.622 29.832C407.622 34.9947 406.171 38.92 403.27 41.608C400.368 44.296 395.867 45.64 389.766 45.64ZM389.766 36.872C391.728 36.872 393.136 36.3173 393.99 35.208C394.886 34.0987 395.334 32.3067 395.334 29.832C395.334 27.4 394.886 25.6293 393.99 24.52C393.136 23.368 391.728 22.792 389.766 22.792C387.846 22.792 386.459 23.368 385.606 24.52C384.752 25.6293 384.326 27.4 384.326 29.832C384.326 32.3067 384.752 34.0987 385.606 35.208C386.459 36.3173 387.846 36.872 389.766 36.872ZM415.33 45V14.664H426.594L426.914 16.968C428.066 16.2 429.581 15.5173 431.458 14.92C433.378 14.3227 435.426 14.024 437.602 14.024C441.399 14.024 444.173 14.9627 445.922 16.84C447.671 18.7173 448.546 21.6187 448.546 25.544V45H436.514V26.76C436.514 25.3947 436.215 24.4133 435.618 23.816C435.021 23.2187 433.975 22.92 432.482 22.92C431.586 22.92 430.647 23.1333 429.666 23.56C428.727 23.9867 427.959 24.4987 427.362 25.096V45H415.33ZM465.689 45.64C463.769 45.64 461.977 45.2987 460.313 44.616C458.692 43.9333 457.391 42.8667 456.409 41.416C455.428 39.9653 454.937 38.1307 454.937 35.912C454.937 32.712 456.004 30.2373 458.137 28.488C460.271 26.696 463.492 25.8 467.801 25.8H475.673V25.224C475.673 24.0293 475.183 23.1547 474.201 22.6C473.22 22.0453 471.492 21.768 469.017 21.768C465.519 21.768 462.063 22.3013 458.649 23.368V16.136C460.185 15.5387 462.105 15.048 464.409 14.664C466.713 14.2373 469.06 14.024 471.449 14.024C476.271 14.024 480.089 15.0053 482.905 16.968C485.721 18.9307 487.129 22.0453 487.129 26.312V45H476.633L476.057 42.568C474.991 43.5067 473.604 44.2533 471.897 44.808C470.233 45.3627 468.164 45.64 465.689 45.64ZM469.785 38.6C471.151 38.6 472.303 38.3653 473.241 37.896C474.223 37.4267 475.033 36.8507 475.673 36.168V32.392H469.849C467.204 32.392 465.881 33.4373 465.881 35.528C465.881 37.576 467.183 38.6 469.785 38.6ZM500.913 33.224V32.072C500.913 30.28 501.254 28.8293 501.937 27.72C502.619 26.568 503.665 25.3733 505.073 24.136C506.225 23.112 507.249 22.28 508.145 21.64C509.041 20.9573 509.745 20.296 510.257 19.656C510.811 18.9733 511.089 18.1413 511.089 17.16C511.089 15.7947 510.534 14.8347 509.425 14.28C508.358 13.6827 506.609 13.384 504.177 13.384C502.299 13.384 500.507 13.6187 498.801 14.088C497.137 14.5147 495.707 15.0907 494.513 15.816V5.832C496.177 4.97866 498.097 4.31733 500.273 3.848C502.449 3.37866 504.902 3.144 507.633 3.144C512.71 3.144 516.593 4.232 519.281 6.408C522.011 8.584 523.377 11.5707 523.377 15.368C523.377 17.7147 522.929 19.6347 522.033 21.128C521.137 22.6213 519.729 24.1573 517.809 25.736C516.358 26.9307 515.078 27.9973 513.969 28.936C512.859 29.8747 512.305 31.048 512.305 32.456V33.224H500.913ZM500.337 45V36.488H512.881V45H500.337Z" fill="white"/>
<path d="M6.488 40.136L7.17088 39.4055L6.488 40.136ZM6.36 8.712L7.05087 9.435L7.05502 9.43099L6.36 8.712ZM36.12 5.32H37.12V4.62511L36.4687 4.38278L36.12 5.32ZM36.12 15.816L35.7158 16.7307L37.12 17.3511V15.816H36.12ZM15.704 16.072L16.3858 16.8037L16.3945 16.7954L15.704 16.072ZM15.832 32.904L15.1758 33.6586L15.1845 33.6662L15.1934 33.6736L15.832 32.904ZM30.424 34.824L30.232 33.8426L30.2279 33.8434L30.424 34.824ZM36.248 33.032H37.248V31.5243L35.859 32.1107L36.248 33.032ZM36.248 43.592L36.5774 44.5362L37.248 44.3023V43.592H36.248ZM30.424 45.064L30.2596 44.0776L30.2477 44.0796L30.2359 44.0818L30.424 45.064ZM23.576 44.64C16.2634 44.64 10.8492 42.8439 7.17088 39.4055L5.80512 40.8665C9.97744 44.7667 15.9553 46.64 23.576 46.64V44.64ZM7.17088 39.4055C3.49562 35.9699 1.6 31.0787 1.6 24.584H-0.4C-0.4 31.4866 1.62972 36.9634 5.80512 40.8665L7.17088 39.4055ZM1.6 24.584C1.6 17.8587 3.46309 12.8633 7.05086 9.43499L5.66914 7.98901C1.57691 11.8994 -0.4 17.4853 -0.4 24.584H1.6ZM7.05502 9.43099C10.6422 5.96337 16.0668 4.144 23.512 4.144V2.144C15.7678 2.144 9.75779 4.03662 5.66498 7.99301L7.05502 9.43099ZM23.512 4.144C26.024 4.144 28.2418 4.33256 30.1719 4.70215L30.5481 2.73784C28.4675 2.33943 26.12 2.144 23.512 2.144V4.144ZM30.1719 4.70215C32.1249 5.07612 33.991 5.59479 35.7713 6.25722L36.4687 4.38278C34.5797 3.67987 32.6058 3.13187 30.5481 2.73784L30.1719 4.70215ZM35.12 5.32V15.816H37.12V5.32H35.12ZM36.5242 14.9013C32.7221 13.2213 28.6585 12.384 24.344 12.384V14.384C28.3922 14.384 32.1792 15.168 35.7158 16.7307L36.5242 14.9013ZM24.344 12.384C20.3295 12.384 17.1512 13.3082 15.0135 15.3486L16.3945 16.7954C18.0115 15.2518 20.5932 14.384 24.344 14.384V12.384ZM15.0223 15.3404C12.8555 17.3594 11.888 20.5269 11.888 24.584H13.888C13.888 20.7904 14.7978 18.2833 16.3857 16.8036L15.0223 15.3404ZM11.888 24.584C11.888 28.5732 12.9075 31.6861 15.1758 33.6586L16.4882 32.1494C14.8312 30.7085 13.888 28.2748 13.888 24.584H11.888ZM15.1934 33.6736C17.4428 35.5401 20.5846 36.4 24.472 36.4V34.4C20.85 34.4 18.2319 33.5959 16.4706 32.1344L15.1934 33.6736ZM24.472 36.4C26.5828 36.4 28.6327 36.2021 30.6201 35.8046L30.2279 33.8434C28.3753 34.2139 26.4572 34.4 24.472 34.4V36.4ZM30.616 35.8054C32.649 35.4076 34.6562 34.7896 36.637 33.9533L35.859 32.1107C33.9998 32.8958 32.1243 33.4724 30.232 33.8426L30.616 35.8054ZM35.248 33.032V43.592H37.248V33.032H35.248ZM35.9186 42.6478C34.1412 43.2678 32.2553 43.745 30.2596 44.0776L30.5884 46.0504C32.6887 45.7003 34.6855 45.1962 36.5774 44.5362L35.9186 42.6478ZM30.2359 44.0818C28.3058 44.4514 26.088 44.64 23.576 44.64V46.64C26.184 46.64 28.5315 46.4446 30.6121 46.0462L30.2359 44.0818ZM46.963 41.608L46.278 42.3365L46.2834 42.3416L46.963 41.608ZM47.027 18.12L47.7066 18.8536L47.7124 18.8482L47.027 18.12ZM73.843 18.12L73.1576 18.8482L73.1631 18.8534L73.1687 18.8585L73.843 18.12ZM73.907 41.608L73.2274 40.8744L73.907 41.608ZM64.627 35.208L63.8491 34.5797L63.8416 34.5889L63.8344 34.5983L64.627 35.208ZM64.627 24.52L63.8234 25.1152L63.8359 25.132L63.8491 25.1483L64.627 24.52ZM56.243 24.52L57.0356 25.1297L57.0412 25.1225L57.0466 25.1152L56.243 24.52ZM56.243 35.208L57.0356 34.5983L56.243 35.208ZM60.403 44.64C54.4665 44.64 50.2819 43.3196 47.6426 40.8744L46.2834 42.3416C49.4468 45.2724 54.2222 46.64 60.403 46.64V44.64ZM47.648 40.8795C45.0484 38.435 43.675 34.8101 43.675 29.832H41.675C41.675 35.1793 43.1603 39.405 46.278 42.3365L47.648 40.8795ZM43.675 29.832C43.675 24.9038 45.0655 21.3005 47.7066 18.8536L46.3474 17.3864C43.1859 20.3155 41.675 24.5202 41.675 29.832H43.675ZM47.7124 18.8482C50.3528 16.3631 54.5149 15.024 60.403 15.024V13.024C54.2591 13.024 49.5038 14.4156 46.3416 17.3918L47.7124 18.8482ZM60.403 15.024C66.3361 15.024 70.5183 16.3641 73.1576 18.8482L74.5284 17.3918C71.3651 14.4146 66.5872 13.024 60.403 13.024V15.024ZM73.1687 18.8585C75.8499 21.3065 77.259 24.9081 77.259 29.832H79.259C79.259 24.5159 77.7241 20.3095 74.5173 17.3815L73.1687 18.8585ZM77.259 29.832C77.259 34.8058 75.8669 38.429 73.2274 40.8744L74.5866 42.3416C77.7498 39.411 79.259 35.1836 79.259 29.832H77.259ZM73.2274 40.8744C70.5892 43.3187 66.3844 44.64 60.403 44.64V46.64C66.6242 46.64 71.4222 45.2733 74.5866 42.3416L73.2274 40.8744ZM60.403 37.872C62.5438 37.872 64.3087 37.2619 65.4196 35.8177L63.8344 34.5983C63.2386 35.3728 62.1876 35.872 60.403 35.872V37.872ZM65.4049 35.8363C66.5174 34.459 66.971 32.3836 66.971 29.832H64.971C64.971 32.2297 64.5286 33.7383 63.8491 34.5797L65.4049 35.8363ZM66.971 29.832C66.971 27.318 66.5156 25.2667 65.4049 23.8917L63.8491 25.1483C64.5304 25.992 64.971 27.482 64.971 29.832H66.971ZM65.4306 23.9248C64.3245 22.4316 62.5567 21.792 60.403 21.792V23.792C62.1747 23.792 63.2228 24.3044 63.8234 25.1152L65.4306 23.9248ZM60.403 21.792C58.2828 21.792 56.5414 22.4371 55.4394 23.9248L57.0466 25.1152C57.6512 24.2989 58.6832 23.792 60.403 23.792V21.792ZM55.4504 23.9103C54.3947 25.2826 53.963 27.3253 53.963 29.832H55.963C55.963 27.4747 56.3846 25.9761 57.0356 25.1297L55.4504 23.9103ZM53.963 29.832C53.963 32.3766 54.3931 34.4432 55.4504 35.8177L57.0356 34.5983C56.3863 33.7541 55.963 32.2368 55.963 29.832H53.963ZM55.4504 35.8177C56.5573 37.2567 58.2959 37.872 60.403 37.872V35.872C58.6701 35.872 57.6354 35.378 57.0356 34.5983L55.4504 35.8177ZM85.9675 45H84.9675V46H85.9675V45ZM85.9675 14.664V13.664H84.9675V14.664H85.9675ZM97.1035 14.664L98.095 14.5335L97.9805 13.664H97.1035V14.664ZM97.4235 17.096L96.432 17.2265L96.6433 18.8323L97.9844 17.9239L97.4235 17.096ZM101.84 14.92L102.163 15.8662L102.17 15.8637L102.177 15.8612L101.84 14.92ZM111.888 14.856L111.44 15.7504V15.7504L111.888 14.856ZM114.576 17.288L113.733 17.8271L114.302 18.716L115.159 18.1L114.576 17.288ZM119.184 14.92L118.86 13.9736L118.853 13.9761L119.184 14.92ZM133.135 16.84L132.387 17.5033L132.395 17.5118L133.135 16.84ZM135.632 45V46H136.632V45H135.632ZM123.792 45H122.792V46H123.792V45ZM122.96 23.816L122.227 24.4965L122.239 24.51L122.252 24.5231L122.96 23.816ZM116.112 24.712L115.366 24.046L115.051 24.3978L115.123 24.8641L116.112 24.712ZM116.24 45V46H117.24V45H116.24ZM105.104 45H104.104V46H105.104V45ZM104.464 23.816L103.65 24.3972L103.66 24.4117L103.671 24.4257L104.464 23.816ZM99.6635 23.56L100.149 24.4342L99.6635 23.56ZM97.6155 25.096L96.9084 24.3889L96.6155 24.6818V25.096H97.6155ZM97.6155 45V46H98.6155V45H97.6155ZM86.9675 45V14.664H84.9675V45H86.9675ZM85.9675 15.664H97.1035V13.664H85.9675V15.664ZM96.112 14.7945L96.432 17.2265L98.415 16.9655L98.095 14.5335L96.112 14.7945ZM97.9844 17.9239C99.2284 17.0812 100.62 16.3942 102.163 15.8662L101.516 13.9738C99.8166 14.5551 98.2639 15.3188 96.8627 16.2681L97.9844 17.9239ZM102.177 15.8612C103.722 15.3068 105.419 15.024 107.28 15.024V13.024C105.214 13.024 103.285 13.3385 101.502 13.9788L102.177 15.8612ZM107.28 15.024C109.168 15.024 110.528 15.2941 111.44 15.7504L112.335 13.9616C111.029 13.3086 109.316 13.024 107.28 13.024V15.024ZM111.44 15.7504C112.385 16.2227 113.146 16.9089 113.733 17.8271L115.418 16.7489C114.64 15.5337 113.609 14.5987 112.335 13.9616L111.44 15.7504ZM115.159 18.1C116.441 17.1786 117.891 16.432 119.514 15.8639L118.853 13.9761C117.063 14.6027 115.441 15.4348 113.992 16.476L115.159 18.1ZM119.507 15.8663C121.128 15.3126 123.063 15.024 125.327 15.024V13.024C122.899 13.024 120.737 13.3327 118.86 13.9736L119.507 15.8663ZM125.327 15.024C128.704 15.024 130.981 15.9167 132.387 17.5033L133.884 16.1767C131.962 14.0086 129.033 13.024 125.327 13.024V15.024ZM132.395 17.5118C133.822 19.0858 134.632 21.6112 134.632 25.288H136.632C136.632 21.3702 135.777 18.2635 133.876 16.1682L132.395 17.5118ZM134.632 25.288V45H136.632V25.288H134.632ZM135.632 44H123.792V46H135.632V44ZM124.792 45V26.696H122.792V45H124.792ZM124.792 26.696C124.792 25.2476 124.507 23.9493 123.667 23.1089L122.252 24.5231C122.521 24.792 122.792 25.4137 122.792 26.696H124.792ZM123.692 23.1355C122.864 22.2432 121.61 21.92 120.208 21.92V23.92C121.365 23.92 121.946 24.1942 122.227 24.4965L123.692 23.1355ZM120.208 21.92C118.271 21.92 116.63 22.6296 115.366 24.046L116.857 25.378C117.726 24.4051 118.816 23.92 120.208 23.92V21.92ZM115.123 24.8641C115.201 25.3731 115.24 25.8555 115.24 26.312H117.24C117.24 25.7445 117.192 25.1602 117.1 24.5599L115.123 24.8641ZM115.24 26.312C115.24 26.3129 115.24 26.3138 115.24 26.3148C115.24 26.3157 115.24 26.3166 115.24 26.3175C115.24 26.3184 115.24 26.3193 115.24 26.3203C115.24 26.3212 115.24 26.3221 115.24 26.323C115.24 26.3239 115.24 26.3248 115.24 26.3258C115.24 26.3267 115.24 26.3276 115.24 26.3285C115.24 26.3294 115.24 26.3304 115.24 26.3313C115.24 26.3322 115.24 26.3331 115.24 26.334C115.24 26.335 115.24 26.3359 115.24 26.3368C115.24 26.3377 115.24 26.3386 115.24 26.3396C115.24 26.3405 115.24 26.3414 115.24 26.3423C115.24 26.3433 115.24 26.3442 115.24 26.3451C115.24 26.346 115.24 26.347 115.24 26.3479C115.24 26.3488 115.24 26.3497 115.24 26.3506C115.24 26.3516 115.24 26.3525 115.24 26.3534C115.24 26.3543 115.24 26.3553 115.24 26.3562C115.24 26.3571 115.24 26.358 115.24 26.359C115.24 26.3599 115.24 26.3608 115.24 26.3617C115.24 26.3627 115.24 26.3636 115.24 26.3645C115.24 26.3654 115.24 26.3664 115.24 26.3673C115.24 26.3682 115.24 26.3691 115.24 26.3701C115.24 26.371 115.24 26.3719 115.24 26.3729C115.24 26.3738 115.24 26.3747 115.24 26.3756C115.24 26.3766 115.24 26.3775 115.24 26.3784C115.24 26.3793 115.24 26.3803 115.24 26.3812C115.24 26.3821 115.24 26.3831 115.24 26.384C115.24 26.3849 115.24 26.3859 115.24 26.3868C115.24 26.3877 115.24 26.3886 115.24 26.3896C115.24 26.3905 115.24 26.3914 115.24 26.3924C115.24 26.3933 115.24 26.3942 115.24 26.3952C115.24 26.3961 115.24 26.397 115.24 26.398C115.24 26.3989 115.24 26.3998 115.24 26.4007C115.24 26.4017 115.24 26.4026 115.24 26.4035C115.24 26.4045 115.24 26.4054 115.24 26.4063C115.24 26.4073 115.24 26.4082 115.24 26.4091C115.24 26.4101 115.24 26.411 115.24 26.4119C115.24 26.4129 115.24 26.4138 115.24 26.4148C115.24 26.4157 115.24 26.4166 115.24 26.4176C115.24 26.4185 115.24 26.4194 115.24 26.4204C115.24 26.4213 115.24 26.4222 115.24 26.4232C115.24 26.4241 115.24 26.425 115.24 26.426C115.24 26.4269 115.24 26.4279 115.24 26.4288C115.24 26.4297 115.24 26.4307 115.24 26.4316C115.24 26.4325 115.24 26.4335 115.24 26.4344C115.24 26.4354 115.24 26.4363 115.24 26.4372C115.24 26.4382 115.24 26.4391 115.24 26.44C115.24 26.441 115.24 26.4419 115.24 26.4429C115.24 26.4438 115.24 26.4447 115.24 26.4457C115.24 26.4466 115.24 26.4476 115.24 26.4485C115.24 26.4494 115.24 26.4504 115.24 26.4513C115.24 26.4523 115.24 26.4532 115.24 26.4542C115.24 26.4551 115.24 26.456 115.24 26.457C115.24 26.4579 115.24 26.4589 115.24 26.4598C115.24 26.4607 115.24 26.4617 115.24 26.4626C115.24 26.4636 115.24 26.4645 115.24 26.4655C115.24 26.4664 115.24 26.4674 115.24 26.4683C115.24 26.4692 115.24 26.4702 115.24 26.4711C115.24 26.4721 115.24 26.473 115.24 26.474C115.24 26.4749 115.24 26.4759 115.24 26.4768C115.24 26.4777 115.24 26.4787 115.24 26.4796C115.24 26.4806 115.24 26.4815 115.24 26.4825C115.24 26.4834 115.24 26.4844 115.24 26.4853C115.24 26.4863 115.24 26.4872 115.24 26.4882C115.24 26.4891 115.24 26.4901 115.24 26.491C115.24 26.4919 115.24 26.4929 115.24 26.4938C115.24 26.4948 115.24 26.4957 115.24 26.4967C115.24 26.4976 115.24 26.4986 115.24 26.4995C115.24 26.5005 115.24 26.5014 115.24 26.5024C115.24 26.5033 115.24 26.5043 115.24 26.5052C115.24 26.5062 115.24 26.5071 115.24 26.5081C115.24 26.509 115.24 26.51 115.24 26.5109C115.24 26.5119 115.24 26.5128 115.24 26.5138C115.24 26.5147 115.24 26.5157 115.24 26.5167C115.24 26.5176 115.24 26.5186 115.24 26.5195C115.24 26.5205 115.24 26.5214 115.24 26.5224C115.24 26.5233 115.24 26.5243 115.24 26.5252C115.24 26.5262 115.24 26.5271 115.24 26.5281C115.24 26.529 115.24 26.53 115.24 26.531C115.24 26.5319 115.24 26.5329 115.24 26.5338C115.24 26.5348 115.24 26.5357 115.24 26.5367C115.24 26.5376 115.24 26.5386 115.24 26.5396C115.24 26.5405 115.24 26.5415 115.24 26.5424C115.24 26.5434 115.24 26.5443 115.24 26.5453C115.24 26.5463 115.24 26.5472 115.24 26.5482C115.24 26.5491 115.24 26.5501 115.24 26.551C115.24 26.552 115.24 26.553 115.24 26.5539C115.24 26.5549 115.24 26.5558 115.24 26.5568C115.24 26.5578 115.24 26.5587 115.24 26.5597C115.24 26.5606 115.24 26.5616 115.24 26.5625C115.24 26.5635 115.24 26.5645 115.24 26.5654C115.24 26.5664 115.24 26.5674 115.24 26.5683C115.24 26.5693 115.24 26.5702 115.24 26.5712C115.24 26.5722 115.24 26.5731 115.24 26.5741C115.24 26.575 115.24 26.576 115.24 26.577C115.24 26.5779 115.24 26.5789 115.24 26.5799C115.24 26.5808 115.24 26.5818 115.24 26.5827C115.24 26.5837 115.24 26.5847 115.24 26.5856C115.24 26.5866 115.24 26.5876 115.24 26.5885C115.24 26.5895 115.24 26.5905 115.24 26.5914C115.24 26.5924 115.24 26.5934 115.24 26.5943C115.24 26.5953 115.24 26.5963 115.24 26.5972C115.24 26.5982 115.24 26.5992 115.24 26.6001C115.24 26.6011 115.24 26.6021 115.24 26.603C115.24 26.604 115.24 26.605 115.24 26.6059C115.24 26.6069 115.24 26.6079 115.24 26.6088C115.24 26.6098 115.24 26.6108 115.24 26.6117C115.24 26.6127 115.24 26.6137 115.24 26.6146C115.24 26.6156 115.24 26.6166 115.24 26.6175C115.24 26.6185 115.24 26.6195 115.24 26.6204C115.24 26.6214 115.24 26.6224 115.24 26.6234C115.24 26.6243 115.24 26.6253 115.24 26.6263C115.24 26.6272 115.24 26.6282 115.24 26.6292C115.24 26.6302 115.24 26.6311 115.24 26.6321C115.24 26.6331 115.24 26.634 115.24 26.635C115.24 26.636 115.24 26.637 115.24 26.6379C115.24 26.6389 115.24 26.6399 115.24 26.6409C115.24 26.6418 115.24 26.6428 115.24 26.6438C115.24 26.6447 115.24 26.6457 115.24 26.6467C115.24 26.6477 115.24 26.6486 115.24 26.6496C115.24 26.6506 115.24 26.6516 115.24 26.6525C115.24 26.6535 115.24 26.6545 115.24 26.6555C115.24 26.6564 115.24 26.6574 115.24 26.6584C115.24 26.6594 115.24 26.6604 115.24 26.6613C115.24 26.6623 115.24 26.6633 115.24 26.6643C115.24 26.6652 115.24 26.6662 115.24 26.6672C115.24 26.6682 115.24 26.6691 115.24 26.6701C115.24 26.6711 115.24 26.6721 115.24 26.6731C115.24 26.674 115.24 26.675 115.24 26.676C115.24 26.677 115.24 26.678 115.24 26.6789C115.24 26.6799 115.24 26.6809 115.24 26.6819C115.24 26.6829 115.24 26.6838 115.24 26.6848C115.24 26.6858 115.24 26.6868 115.24 26.6878C115.24 26.6887 115.24 26.6897 115.24 26.6907C115.24 26.6917 115.24 26.6927 115.24 26.6936C115.24 26.6946 115.24 26.6956 115.24 26.6966C115.24 26.6976 115.24 26.6986 115.24 26.6995C115.24 26.7005 115.24 26.7015 115.24 26.7025C115.24 26.7035 115.24 26.7045 115.24 26.7054C115.24 26.7064 115.24 26.7074 115.24 26.7084C115.24 26.7094 115.24 26.7104 115.24 26.7114C115.24 26.7123 115.24 26.7133 115.24 26.7143C115.24 26.7153 115.24 26.7163 115.24 26.7173C115.24 26.7183 115.24 26.7192 115.24 26.7202C115.24 26.7212 115.24 26.7222 115.24 26.7232C115.24 26.7242 115.24 26.7252 115.24 26.7261C115.24 26.7271 115.24 26.7281 115.24 26.7291C115.24 26.7301 115.24 26.7311 115.24 26.7321C115.24 26.7331 115.24 26.7341 115.24 26.735C115.24 26.736 115.24 26.737 115.24 26.738C115.24 26.739 115.24 26.74 115.24 26.741C115.24 26.742 115.24 26.743 115.24 26.7439C115.24 26.7449 115.24 26.7459 115.24 26.7469C115.24 26.7479 115.24 26.7489 115.24 26.7499C115.24 26.7509 115.24 26.7519 115.24 26.7529C115.24 26.7539 115.24 26.7549 115.24 26.7558C115.24 26.7568 115.24 26.7578 115.24 26.7588C115.24 26.7598 115.24 26.7608 115.24 26.7618C115.24 26.7628 115.24 26.7638 115.24 26.7648C115.24 26.7658 115.24 26.7668 115.24 26.7678C115.24 26.7688 115.24 26.7698 115.24 26.7707C115.24 26.7717 115.24 26.7727 115.24 26.7737C115.24 26.7747 115.24 26.7757 115.24 26.7767C115.24 26.7777 115.24 26.7787 115.24 26.7797C115.24 26.7807 115.24 26.7817 115.24 26.7827C115.24 26.7837 115.24 26.7847 115.24 26.7857C115.24 26.7867 115.24 26.7877 115.24 26.7887C115.24 26.7897 115.24 26.7907 115.24 26.7917C115.24 26.7927 115.24 26.7937 115.24 26.7947C115.24 26.7957 115.24 26.7967 115.24 26.7977C115.24 26.7987 115.24 26.7997 115.24 26.8007C115.24 26.8017 115.24 26.8027 115.24 26.8037C115.24 26.8047 115.24 26.8057 115.24 26.8067C115.24 26.8077 115.24 26.8087 115.24 26.8097C115.24 26.8107 115.24 26.8117 115.24 26.8127C115.24 26.8137 115.24 26.8147 115.24 26.8157C115.24 26.8167 115.24 26.8177 115.24 26.8187C115.24 26.8197 115.24 26.8207 115.24 26.8217C115.24 26.8227 115.24 26.8237 115.24 26.8247C115.24 26.8257 115.24 26.8267 115.24 26.8277C115.24 26.8287 115.24 26.8297 115.24 26.8307C115.24 26.8317 115.24 26.8327 115.24 26.8337C115.24 26.8347 115.24 26.8358 115.24 26.8368C115.24 26.8378 115.24 26.8388 115.24 26.8398C115.24 26.8408 115.24 26.8418 115.24 26.8428C115.24 26.8438 115.24 26.8448 115.24 26.8458C115.24 26.8468 115.24 26.8478 115.24 26.8488C115.24 26.8498 115.24 26.8509 115.24 26.8519C115.24 26.8529 115.24 26.8539 115.24 26.8549C115.24 26.8559 115.24 26.8569 115.24 26.8579C115.24 26.8589 115.24 26.8599 115.24 26.8609C115.24 26.8619 115.24 26.863 115.24 26.864C115.24 26.865 115.24 26.866 115.24 26.867C115.24 26.868 115.24 26.869 115.24 26.87C115.24 26.871 115.24 26.8721 115.24 26.8731C115.24 26.8741 115.24 26.8751 115.24 26.8761C115.24 26.8771 115.24 26.8781 115.24 26.8791C115.24 26.8801 115.24 26.8812 115.24 26.8822C115.24 26.8832 115.24 26.8842 115.24 26.8852C115.24 26.8862 115.24 26.8872 115.24 26.8883C115.24 26.8893 115.24 26.8903 115.24 26.8913C115.24 26.8923 115.24 26.8933 115.24 26.8943C115.24 26.8954 115.24 26.8964 115.24 26.8974C115.24 26.8984 115.24 26.8994 115.24 26.9004C115.24 26.9014 115.24 26.9025 115.24 26.9035C115.24 26.9045 115.24 26.9055 115.24 26.9065C115.24 26.9075 115.24 26.9086 115.24 26.9096C115.24 26.9106 115.24 26.9116 115.24 26.9126C115.24 26.9137 115.24 26.9147 115.24 26.9157C115.24 26.9167 115.24 26.9177 115.24 26.9187C115.24 26.9198 115.24 26.9208 115.24 26.9218C115.24 26.9228 115.24 26.9238 115.24 26.9249C115.24 26.9259 115.24 26.9269 115.24 26.9279C115.24 26.9289 115.24 26.93 115.24 26.931C115.24 26.932 115.24 26.933 115.24 26.934C115.24 26.9351 115.24 26.9361 115.24 26.9371C115.24 26.9381 115.24 26.9391 115.24 26.9402C115.24 26.9412 115.24 26.9422 115.24 26.9432C115.24 26.9443 115.24 26.9453 115.24 26.9463C115.24 26.9473 115.24 26.9484 115.24 26.9494C115.24 26.9504 115.24 26.9514 115.24 26.9524C115.24 26.9535 115.24 26.9545 115.24 26.9555C115.24 26.9565 115.24 26.9576 115.24 26.9586C115.24 26.9596 115.24 26.9606 115.24 26.9617C115.24 26.9627 115.24 26.9637 115.24 26.9647C115.24 26.9658 115.24 26.9668 115.24 26.9678C115.24 26.9689 115.24 26.9699 115.24 26.9709C115.24 26.9719 115.24 26.973 115.24 26.974C115.24 26.975 115.24 26.976 115.24 26.9771C115.24 26.9781 115.24 26.9791 115.24 26.9802C115.24 26.9812 115.24 26.9822 115.24 26.9832C115.24 26.9843 115.24 26.9853 115.24 26.9863C115.24 26.9874 115.24 26.9884 115.24 26.9894C115.24 26.9905 115.24 26.9915 115.24 26.9925C115.24 26.9935 115.24 26.9946 115.24 26.9956C115.24 26.9966 115.24 26.9977 115.24 26.9987C115.24 26.9997 115.24 27.0008 115.24 27.0018C115.24 27.0028 115.24 27.0039 115.24 27.0049C115.24 27.0059 115.24 27.007 115.24 27.008C115.24 27.009 115.24 27.0101 115.24 27.0111C115.24 27.0121 115.24 27.0132 115.24 27.0142C115.24 27.0152 115.24 27.0163 115.24 27.0173C115.24 27.0183 115.24 27.0194 115.24 27.0204C115.24 27.0214 115.24 27.0225 115.24 27.0235C115.24 27.0245 115.24 27.0256 115.24 27.0266C115.24 27.0276 115.24 27.0287 115.24 27.0297C115.24 27.0308 115.24 27.0318 115.24 27.0328C115.24 27.0339 115.24 27.0349 115.24 27.0359C115.24 27.037 115.24 27.038 115.24 27.039C115.24 27.0401 115.24 27.0411 115.24 27.0422C115.24 27.0432 115.24 27.0442 115.24 27.0453C115.24 27.0463 115.24 27.0474 115.24 27.0484C115.24 27.0494 115.24 27.0505 115.24 27.0515C115.24 27.0526 115.24 27.0536 115.24 27.0546C115.24 27.0557 115.24 27.0567 115.24 27.0578C115.24 27.0588 115.24 27.0598 115.24 27.0609C115.24 27.0619 115.24 27.063 115.24 27.064C115.24 27.065 115.24 27.0661 115.24 27.0671C115.24 27.0682 115.24 27.0692 115.24 27.0703C115.24 27.0713 115.24 27.0723 115.24 27.0734C115.24 27.0744 115.24 27.0755 115.24 27.0765C115.24 27.0776 115.24 27.0786 115.24 27.0796C115.24 27.0807 115.24 27.0817 115.24 27.0828C115.24 27.0838 115.24 27.0849 115.24 27.0859C115.24 27.087 115.24 27.088 115.24 27.089C115.24 27.0901 115.24 27.0911 115.24 27.0922C115.24 27.0932 115.24 27.0943 115.24 27.0953C115.24 27.0964 115.24 27.0974 115.24 27.0985C115.24 27.0995 115.24 27.1006 115.24 27.1016C115.24 27.1027 115.24 27.1037 115.24 27.1047C115.24 27.1058 115.24 27.1068 115.24 27.1079C115.24 27.1089 115.24 27.11 115.24 27.111C115.24 27.1121 115.24 27.1131 115.24 27.1142C115.24 27.1152 115.24 27.1163 115.24 27.1173C115.24 27.1184 115.24 27.1194 115.24 27.1205C115.24 27.1215 115.24 27.1226 115.24 27.1236C115.24 27.1247 115.24 27.1257 115.24 27.1268C115.24 27.1278 115.24 27.1289 115.24 27.1299C115.24 27.131 115.24 27.132 115.24 27.1331C115.24 27.1342 115.24 27.1352 115.24 27.1363C115.24 27.1373 115.24 27.1384 115.24 27.1394C115.24 27.1405 115.24 27.1415 115.24 27.1426C115.24 27.1436 115.24 27.1447 115.24 27.1457C115.24 27.1468 115.24 27.1479 115.24 27.1489C115.24 27.15 115.24 27.151 115.24 27.1521C115.24 27.1531 115.24 27.1542 115.24 27.1552C115.24 27.1563 115.24 27.1574 115.24 27.1584C115.24 27.1595 115.24 27.1605 115.24 27.1616C115.24 27.1626 115.24 27.1637 115.24 27.1647C115.24 27.1658 115.24 27.1669 115.24 27.1679C115.24 27.169 115.24 27.17 115.24 27.1711C115.24 27.1722 115.24 27.1732 115.24 27.1743C115.24 27.1753 115.24 27.1764 115.24 27.1774C115.24 27.1785 115.24 27.1796 115.24 27.1806C115.24 27.1817 115.24 27.1827 115.24 27.1838C115.24 27.1849 115.24 27.1859 115.24 27.187C115.24 27.188 115.24 27.1891 115.24 27.1902C115.24 27.1912 115.24 27.1923 115.24 27.1934C115.24 27.1944 115.24 27.1955 115.24 27.1965C115.24 27.1976 115.24 27.1987 115.24 27.1997C115.24 27.2008 115.24 27.2019 115.24 27.2029C115.24 27.204 115.24 27.205 115.24 27.2061C115.24 27.2072 115.24 27.2082 115.24 27.2093C115.24 27.2104 115.24 27.2114 115.24 27.2125C115.24 27.2136 115.24 27.2146 115.24 27.2157C115.24 27.2168 115.24 27.2178 115.24 27.2189C115.24 27.2199 115.24 27.221 115.24 27.2221C115.24 27.2231 115.24 27.2242 115.24 27.2253C115.24 27.2263 115.24 27.2274 115.24 27.2285C115.24 27.2295 115.24 27.2306 115.24 27.2317C115.24 27.2327 115.24 27.2338 115.24 27.2349C115.24 27.236 115.24 27.237 115.24 27.2381C115.24 27.2392 115.24 27.2402 115.24 27.2413C115.24 27.2424 115.24 27.2434 115.24 27.2445C115.24 27.2456 115.24 27.2466 115.24 27.2477C115.24 27.2488 115.24 27.2499 115.24 27.2509C115.24 27.252 115.24 27.2531 115.24 27.2541C115.24 27.2552 115.24 27.2563 115.24 27.2574C115.24 27.2584 115.24 27.2595 115.24 27.2606C115.24 27.2616 115.24 27.2627 115.24 27.2638C115.24 27.2649 115.24 27.2659 115.24 27.267C115.24 27.2681 115.24 27.2691 115.24 27.2702C115.24 27.2713 115.24 27.2724 115.24 27.2734C115.24 27.2745 115.24 27.2756 115.24 27.2767C115.24 27.2777 115.24 27.2788 115.24 27.2799C115.24 27.281 115.24 27.282 115.24 27.2831C115.24 27.2842 115.24 27.2853 115.24 27.2863C115.24 27.2874 115.24 27.2885 115.24 27.2896C115.24 27.2906 115.24 27.2917 115.24 27.2928C115.24 27.2939 115.24 27.2949 115.24 27.296C115.24 27.2971 115.24 27.2982 115.24 27.2993C115.24 27.3003 115.24 27.3014 115.24 27.3025C115.24 27.3036 115.24 27.3046 115.24 27.3057C115.24 27.3068 115.24 27.3079 115.24 27.309C115.24 27.31 115.24 27.3111 115.24 27.3122C115.24 27.3133 115.24 27.3144 115.24 27.3154C115.24 27.3165 115.24 27.3176 115.24 27.3187C115.24 27.3198 115.24 27.3208 115.24 27.3219C115.24 27.323 115.24 27.3241 115.24 27.3252C115.24 27.3263 115.24 27.3273 115.24 27.3284C115.24 27.3295 115.24 27.3306 115.24 27.3317C115.24 27.3327 115.24 27.3338 115.24 27.3349C115.24 27.336 115.24 27.3371 115.24 27.3382C115.24 27.3392 115.24 27.3403 115.24 27.3414C115.24 27.3425 115.24 27.3436 115.24 27.3447C115.24 27.3458 115.24 27.3468 115.24 27.3479C115.24 27.349 115.24 27.3501 115.24 27.3512C115.24 27.3523 115.24 27.3534 115.24 27.3544C115.24 27.3555 115.24 27.3566 115.24 27.3577C115.24 27.3588 115.24 27.3599 115.24 27.361C115.24 27.362 115.24 27.3631 115.24 27.3642C115.24 27.3653 115.24 27.3664 115.24 27.3675C115.24 27.3686 115.24 27.3697 115.24 27.3708C115.24 27.3718 115.24 27.3729 115.24 27.374C115.24 27.3751 115.24 27.3762 115.24 27.3773C115.24 27.3784 115.24 27.3795 115.24 27.3806C115.24 27.3816 115.24 27.3827 115.24 27.3838C115.24 27.3849 115.24 27.386 115.24 27.3871C115.24 27.3882 115.24 27.3893 115.24 27.3904C115.24 27.3915 115.24 27.3926 115.24 27.3936C115.24 27.3947 115.24 27.3958 115.24 27.3969C115.24 27.398 115.24 27.3991 115.24 27.4002C115.24 27.4013 115.24 27.4024 115.24 27.4035C115.24 27.4046 115.24 27.4057 115.24 27.4068C115.24 27.4079 115.24 27.4089 115.24 27.41C115.24 27.4111 115.24 27.4122 115.24 27.4133C115.24 27.4144 115.24 27.4155 115.24 27.4166C115.24 27.4177 115.24 27.4188 115.24 27.4199C115.24 27.421 115.24 27.4221 115.24 27.4232C115.24 27.4243 115.24 27.4254 115.24 27.4265C115.24 27.4276 115.24 27.4287 115.24 27.4298C115.24 27.4309 115.24 27.432 115.24 27.4331C115.24 27.4342 115.24 27.4353 115.24 27.4364C115.24 27.4375 115.24 27.4386 115.24 27.4397C115.24 27.4408 115.24 27.4418 115.24 27.4429C115.24 27.444 115.24 27.4451 115.24 27.4462C115.24 27.4473 115.24 27.4484 115.24 27.4495C115.24 27.4506 115.24 27.4517 115.24 27.4528C115.24 27.4539 115.24 27.455 115.24 27.4562C115.24 27.4573 115.24 27.4584 115.24 27.4595C115.24 27.4606 115.24 27.4617 115.24 27.4628C115.24 27.4639 115.24 27.465 115.24 27.4661C115.24 27.4672 115.24 27.4683 115.24 27.4694C115.24 27.4705 115.24 27.4716 115.24 27.4727C115.24 27.4738 115.24 27.4749 115.24 27.476C115.24 27.4771 115.24 27.4782 115.24 27.4793C115.24 27.4804 115.24 27.4815 115.24 27.4826C115.24 27.4837 115.24 27.4848 115.24 27.4859C115.24 27.487 115.24 27.4882 115.24 27.4893C115.24 27.4904 115.24 27.4915 115.24 27.4926C115.24 27.4937 115.24 27.4948 115.24 27.4959C115.24 27.497 115.24 27.4981 115.24 27.4992C115.24 27.5003 115.24 27.5014 115.24 27.5025C115.24 27.5037 115.24 27.5048 115.24 27.5059C115.24 27.507 115.24 27.5081 115.24 27.5092C115.24 27.5103 115.24 27.5114 115.24 27.5125C115.24 27.5136 115.24 27.5147 115.24 27.5159C115.24 27.517 115.24 27.5181 115.24 27.5192C115.24 27.5203 115.24 27.5214 115.24 27.5225C115.24 27.5236 115.24 27.5247 115.24 27.5259C115.24 27.527 115.24 27.5281 115.24 27.5292C115.24 27.5303 115.24 27.5314 115.24 27.5325C115.24 27.5336 115.24 27.5347 115.24 27.5359C115.24 27.537 115.24 27.5381 115.24 27.5392C115.24 27.5403 115.24 27.5414 115.24 27.5425C115.24 27.5437 115.24 27.5448 115.24 27.5459C115.24 27.547 115.24 27.5481 115.24 27.5492C115.24 27.5503 115.24 27.5515 115.24 27.5526C115.24 27.5537 115.24 27.5548 115.24 27.5559C115.24 27.557 115.24 27.5582 115.24 27.5593C115.24 27.5604 115.24 27.5615 115.24 27.5626C115.24 27.5637 115.24 27.5649 115.24 27.566C115.24 27.5671 115.24 27.5682 115.24 27.5693C115.24 27.5704 115.24 27.5716 115.24 27.5727C115.24 27.5738 115.24 27.5749 115.24 27.576C115.24 27.5772 115.24 27.5783 115.24 27.5794C115.24 27.5805 115.24 27.5816 115.24 27.5827C115.24 27.5839 115.24 27.585 115.24 27.5861C115.24 27.5872 115.24 27.5883 115.24 27.5895C115.24 27.5906 115.24 27.5917 115.24 27.5928C115.24 27.594 115.24 27.5951 115.24 27.5962C115.24 27.5973 115.24 27.5984 115.24 27.5996C115.24 27.6007 115.24 27.6018 115.24 27.6029C115.24 27.6041 115.24 27.6052 115.24 27.6063C115.24 27.6074 115.24 27.6085 115.24 27.6097C115.24 27.6108 115.24 27.6119 115.24 27.613C115.24 27.6142 115.24 27.6153 115.24 27.6164C115.24 27.6175 115.24 27.6187 115.24 27.6198C115.24 27.6209 115.24 27.622 115.24 27.6232C115.24 27.6243 115.24 27.6254 115.24 27.6265C115.24 27.6277 115.24 27.6288 115.24 27.6299C115.24 27.6311 115.24 27.6322 115.24 27.6333C115.24 27.6344 115.24 27.6356 115.24 27.6367C115.24 27.6378 115.24 27.6389 115.24 27.6401C115.24 27.6412 115.24 27.6423 115.24 27.6435C115.24 27.6446 115.24 27.6457 115.24 27.6468C115.24 27.648 115.24 27.6491 115.24 27.6502C115.24 27.6514 115.24 27.6525 115.24 27.6536C115.24 27.6547 115.24 27.6559 115.24 27.657C115.24 27.6581 115.24 27.6593 115.24 27.6604C115.24 27.6615 115.24 27.6627 115.24 27.6638C115.24 27.6649 115.24 27.6661 115.24 27.6672C115.24 27.6683 115.24 27.6695 115.24 27.6706C115.24 27.6717 115.24 27.6729 115.24 27.674C115.24 27.6751 115.24 27.6763 115.24 27.6774C115.24 27.6785 115.24 27.6797 115.24 27.6808C115.24 27.6819 115.24 27.6831 115.24 27.6842C115.24 27.6853 115.24 27.6865 115.24 27.6876C115.24 27.6887 115.24 27.6899 115.24 27.691C115.24 27.6921 115.24 27.6933 115.24 27.6944C115.24 27.6955 115.24 27.6967 115.24 27.6978C115.24 27.699 115.24 27.7001 115.24 27.7012C115.24 27.7024 115.24 27.7035 115.24 27.7046C115.24 27.7058 115.24 27.7069 115.24 27.708C115.24 27.7092 115.24 27.7103 115.24 27.7115C115.24 27.7126 115.24 27.7137 115.24 27.7149C115.24 27.716 115.24 27.7172 115.24 27.7183C115.24 27.7194 115.24 27.7206 115.24 27.7217C115.24 27.7229 115.24 27.724 115.24 27.7251C115.24 27.7263 115.24 27.7274 115.24 27.7286C115.24 27.7297 115.24 27.7308 115.24 27.732C115.24 27.7331 115.24 27.7343 115.24 27.7354C115.24 27.7365 115.24 27.7377 115.24 27.7388C115.24 27.74 115.24 27.7411 115.24 27.7423C115.24 27.7434 115.24 27.7445 115.24 27.7457C115.24 27.7468 115.24 27.748 115.24 27.7491C115.24 27.7503 115.24 27.7514 115.24 27.7525C115.24 27.7537 115.24 27.7548 115.24 27.756C115.24 27.7571 115.24 27.7583 115.24 27.7594C115.24 27.7606 115.24 27.7617 115.24 27.7629C115.24 27.764 115.24 27.7651 115.24 27.7663C115.24 27.7674 115.24 27.7686 115.24 27.7697C115.24 27.7709 115.24 27.772 115.24 27.7732C115.24 27.7743 115.24 27.7755 115.24 27.7766C115.24 27.7778 115.24 27.7789 115.24 27.7801C115.24 27.7812 115.24 27.7824 115.24 27.7835C115.24 27.7846 115.24 27.7858 115.24 27.7869C115.24 27.7881 115.24 27.7892 115.24 27.7904C115.24 27.7915 115.24 27.7927 115.24 27.7938C115.24 27.795 115.24 27.7961 115.24 27.7973C115.24 27.7984 115.24 27.7996 115.24 27.8007C115.24 27.8019 115.24 27.8031 115.24 27.8042C115.24 27.8054 115.24 27.8065 115.24 27.8077C115.24 27.8088 115.24 27.81 115.24 27.8111C115.24 27.8123 115.24 27.8134 115.24 27.8146C115.24 27.8157 115.24 27.8169 115.24 27.818C115.24 27.8192 115.24 27.8203 115.24 27.8215C115.24 27.8226 115.24 27.8238 115.24 27.825C115.24 27.8261 115.24 27.8273 115.24 27.8284C115.24 27.8296 115.24 27.8307 115.24 27.8319C115.24 27.833 115.24 27.8342 115.24 27.8354C115.24 27.8365 115.24 27.8377 115.24 27.8388C115.24 27.84 115.24 27.8411 115.24 27.8423C115.24 27.8434 115.24 27.8446 115.24 27.8458C115.24 27.8469 115.24 27.8481 115.24 27.8492C115.24 27.8504 115.24 27.8516 115.24 27.8527C115.24 27.8539 115.24 27.855 115.24 27.8562C115.24 27.8573 115.24 27.8585 115.24 27.8597C115.24 27.8608 115.24 27.862 115.24 27.8631C115.24 27.8643 115.24 27.8655 115.24 27.8666C115.24 27.8678 115.24 27.8689 115.24 27.8701C115.24 27.8713 115.24 27.8724 115.24 27.8736C115.24 27.8747 115.24 27.8759 115.24 27.8771C115.24 27.8782 115.24 27.8794 115.24 27.8806C115.24 27.8817 115.24 27.8829 115.24 27.884C115.24 27.8852 115.24 27.8864 115.24 27.8875C115.24 27.8887 115.24 27.8899 115.24 27.891C115.24 27.8922 115.24 27.8934 115.24 27.8945C115.24 27.8957 115.24 27.8968 115.24 27.898C115.24 27.8992 115.24 27.9003 115.24 27.9015C115.24 27.9027 115.24 27.9038 115.24 27.905C115.24 27.9062 115.24 27.9073 115.24 27.9085C115.24 27.9097 115.24 27.9108 115.24 27.912H117.24C117.24 27.9108 117.24 27.9097 117.24 27.9085C117.24 27.9073 117.24 27.9062 117.24 27.905C117.24 27.9038 117.24 27.9027 117.24 27.9015C117.24 27.9003 117.24 27.8992 117.24 27.898C117.24 27.8968 117.24 27.8957 117.24 27.8945C117.24 27.8934 117.24 27.8922 117.24 27.891C117.24 27.8899 117.24 27.8887 117.24 27.8875C117.24 27.8864 117.24 27.8852 117.24 27.884C117.24 27.8829 117.24 27.8817 117.24 27.8806C117.24 27.8794 117.24 27.8782 117.24 27.8771C117.24 27.8759 117.24 27.8747 117.24 27.8736C117.24 27.8724 117.24 27.8713 117.24 27.8701C117.24 27.8689 117.24 27.8678 117.24 27.8666C117.24 27.8655 117.24 27.8643 117.24 27.8631C117.24 27.862 117.24 27.8608 117.24 27.8597C117.24 27.8585 117.24 27.8573 117.24 27.8562C117.24 27.855 117.24 27.8539 117.24 27.8527C117.24 27.8516 117.24 27.8504 117.24 27.8492C117.24 27.8481 117.24 27.8469 117.24 27.8458C117.24 27.8446 117.24 27.8434 117.24 27.8423C117.24 27.8411 117.24 27.84 117.24 27.8388C117.24 27.8377 117.24 27.8365 117.24 27.8354C117.24 27.8342 117.24 27.833 117.24 27.8319C117.24 27.8307 117.24 27.8296 117.24 27.8284C117.24 27.8273 117.24 27.8261 117.24 27.825C117.24 27.8238 117.24 27.8226 117.24 27.8215C117.24 27.8203 117.24 27.8192 117.24 27.818C117.24 27.8169 117.24 27.8157 117.24 27.8146C117.24 27.8134 117.24 27.8123 117.24 27.8111C117.24 27.81 117.24 27.8088 117.24 27.8077C117.24 27.8065 117.24 27.8054 117.24 27.8042C117.24 27.8031 117.24 27.8019 117.24 27.8007C117.24 27.7996 117.24 27.7984 117.24 27.7973C117.24 27.7961 117.24 27.795 117.24 27.7938C117.24 27.7927 117.24 27.7915 117.24 27.7904C117.24 27.7892 117.24 27.7881 117.24 27.7869C117.24 27.7858 117.24 27.7846 117.24 27.7835C117.24 27.7824 117.24 27.7812 117.24 27.7801C117.24 27.7789 117.24 27.7778 117.24 27.7766C117.24 27.7755 117.24 27.7743 117.24 27.7732C117.24 27.772 117.24 27.7709 117.24 27.7697C117.24 27.7686 117.24 27.7674 117.24 27.7663C117.24 27.7651 117.24 27.764 117.24 27.7629C117.24 27.7617 117.24 27.7606 117.24 27.7594C117.24 27.7583 117.24 27.7571 117.24 27.756C117.24 27.7548 117.24 27.7537 117.24 27.7525C117.24 27.7514 117.24 27.7503 117.24 27.7491C117.24 27.748 117.24 27.7468 117.24 27.7457C117.24 27.7445 117.24 27.7434 117.24 27.7423C117.24 27.7411 117.24 27.74 117.24 27.7388C117.24 27.7377 117.24 27.7365 117.24 27.7354C117.24 27.7343 117.24 27.7331 117.24 27.732C117.24 27.7308 117.24 27.7297 117.24 27.7286C117.24 27.7274 117.24 27.7263 117.24 27.7251C117.24 27.724 117.24 27.7229 117.24 27.7217C117.24 27.7206 117.24 27.7194 117.24 27.7183C117.24 27.7172 117.24 27.716 117.24 27.7149C117.24 27.7137 117.24 27.7126 117.24 27.7115C117.24 27.7103 117.24 27.7092 117.24 27.708C117.24 27.7069 117.24 27.7058 117.24 27.7046C117.24 27.7035 117.24 27.7024 117.24 27.7012C117.24 27.7001 117.24 27.699 117.24 27.6978C117.24 27.6967 117.24 27.6955 117.24 27.6944C117.24 27.6933 117.24 27.6921 117.24 27.691C117.24 27.6899 117.24 27.6887 117.24 27.6876C117.24 27.6865 117.24 27.6853 117.24 27.6842C117.24 27.6831 117.24 27.6819 117.24 27.6808C117.24 27.6797 117.24 27.6785 117.24 27.6774C117.24 27.6763 117.24 27.6751 117.24 27.674C117.24 27.6729 117.24 27.6717 117.24 27.6706C117.24 27.6695 117.24 27.6683 117.24 27.6672C117.24 27.6661 117.24 27.6649 117.24 27.6638C117.24 27.6627 117.24 27.6615 117.24 27.6604C117.24 27.6593 117.24 27.6581 117.24 27.657C117.24 27.6559 117.24 27.6547 117.24 27.6536C117.24 27.6525 117.24 27.6514 117.24 27.6502C117.24 27.6491 117.24 27.648 117.24 27.6468C117.24 27.6457 117.24 27.6446 117.24 27.6435C117.24 27.6423 117.24 27.6412 117.24 27.6401C117.24 27.6389 117.24 27.6378 117.24 27.6367C117.24 27.6356 117.24 27.6344 117.24 27.6333C117.24 27.6322 117.24 27.6311 117.24 27.6299C117.24 27.6288 117.24 27.6277 117.24 27.6265C117.24 27.6254 117.24 27.6243 117.24 27.6232C117.24 27.622 117.24 27.6209 117.24 27.6198C117.24 27.6187 117.24 27.6175 117.24 27.6164C117.24 27.6153 117.24 27.6142 117.24 27.613C117.24 27.6119 117.24 27.6108 117.24 27.6097C117.24 27.6085 117.24 27.6074 117.24 27.6063C117.24 27.6052 117.24 27.6041 117.24 27.6029C117.24 27.6018 117.24 27.6007 117.24 27.5996C117.24 27.5984 117.24 27.5973 117.24 27.5962C117.24 27.5951 117.24 27.594 117.24 27.5928C117.24 27.5917 117.24 27.5906 117.24 27.5895C117.24 27.5883 117.24 27.5872 117.24 27.5861C117.24 27.585 117.24 27.5839 117.24 27.5827C117.24 27.5816 117.24 27.5805 117.24 27.5794C117.24 27.5783 117.24 27.5772 117.24 27.576C117.24 27.5749 117.24 27.5738 117.24 27.5727C117.24 27.5716 117.24 27.5704 117.24 27.5693C117.24 27.5682 117.24 27.5671 117.24 27.566C117.24 27.5649 117.24 27.5637 117.24 27.5626C117.24 27.5615 117.24 27.5604 117.24 27.5593C117.24 27.5582 117.24 27.557 117.24 27.5559C117.24 27.5548 117.24 27.5537 117.24 27.5526C117.24 27.5515 117.24 27.5503 117.24 27.5492C117.24 27.5481 117.24 27.547 117.24 27.5459C117.24 27.5448 117.24 27.5437 117.24 27.5425C117.24 27.5414 117.24 27.5403 117.24 27.5392C117.24 27.5381 117.24 27.537 117.24 27.5359C117.24 27.5347 117.24 27.5336 117.24 27.5325C117.24 27.5314 117.24 27.5303 117.24 27.5292C117.24 27.5281 117.24 27.527 117.24 27.5259C117.24 27.5247 117.24 27.5236 117.24 27.5225C117.24 27.5214 117.24 27.5203 117.24 27.5192C117.24 27.5181 117.24 27.517 117.24 27.5159C117.24 27.5147 117.24 27.5136 117.24 27.5125C117.24 27.5114 117.24 27.5103 117.24 27.5092C117.24 27.5081 117.24 27.507 117.24 27.5059C117.24 27.5048 117.24 27.5037 117.24 27.5025C117.24 27.5014 117.24 27.5003 117.24 27.4992C117.24 27.4981 117.24 27.497 117.24 27.4959C117.24 27.4948 117.24 27.4937 117.24 27.4926C117.24 27.4915 117.24 27.4904 117.24 27.4893C117.24 27.4882 117.24 27.487 117.24 27.4859C117.24 27.4848 117.24 27.4837 117.24 27.4826C117.24 27.4815 117.24 27.4804 117.24 27.4793C117.24 27.4782 117.24 27.4771 117.24 27.476C117.24 27.4749 117.24 27.4738 117.24 27.4727C117.24 27.4716 117.24 27.4705 117.24 27.4694C117.24 27.4683 117.24 27.4672 117.24 27.4661C117.24 27.465 117.24 27.4639 117.24 27.4628C117.24 27.4617 117.24 27.4606 117.24 27.4595C117.24 27.4584 117.24 27.4573 117.24 27.4562C117.24 27.455 117.24 27.4539 117.24 27.4528C117.24 27.4517 117.24 27.4506 117.24 27.4495C117.24 27.4484 117.24 27.4473 117.24 27.4462C117.24 27.4451 117.24 27.444 117.24 27.4429C117.24 27.4418 117.24 27.4408 117.24 27.4397C117.24 27.4386 117.24 27.4375 117.24 27.4364C117.24 27.4353 117.24 27.4342 117.24 27.4331C117.24 27.432 117.24 27.4309 117.24 27.4298C117.24 27.4287 117.24 27.4276 117.24 27.4265C117.24 27.4254 117.24 27.4243 117.24 27.4232C117.24 27.4221 117.24 27.421 117.24 27.4199C117.24 27.4188 117.24 27.4177 117.24 27.4166C117.24 27.4155 117.24 27.4144 117.24 27.4133C117.24 27.4122 117.24 27.4111 117.24 27.41C117.24 27.4089 117.24 27.4079 117.24 27.4068C117.24 27.4057 117.24 27.4046 117.24 27.4035C117.24 27.4024 117.24 27.4013 117.24 27.4002C117.24 27.3991 117.24 27.398 117.24 27.3969C117.24 27.3958 117.24 27.3947 117.24 27.3936C117.24 27.3926 117.24 27.3915 117.24 27.3904C117.24 27.3893 117.24 27.3882 117.24 27.3871C117.24 27.386 117.24 27.3849 117.24 27.3838C117.24 27.3827 117.24 27.3816 117.24 27.3806C117.24 27.3795 117.24 27.3784 117.24 27.3773C117.24 27.3762 117.24 27.3751 117.24 27.374C117.24 27.3729 117.24 27.3718 117.24 27.3708C117.24 27.3697 117.24 27.3686 117.24 27.3675C117.24 27.3664 117.24 27.3653 117.24 27.3642C117.24 27.3631 117.24 27.362 117.24 27.361C117.24 27.3599 117.24 27.3588 117.24 27.3577C117.24 27.3566 117.24 27.3555 117.24 27.3544C117.24 27.3534 117.24 27.3523 117.24 27.3512C117.24 27.3501 117.24 27.349 117.24 27.3479C117.24 27.3468 117.24 27.3458 117.24 27.3447C117.24 27.3436 117.24 27.3425 117.24 27.3414C117.24 27.3403 117.24 27.3392 117.24 27.3382C117.24 27.3371 117.24 27.336 117.24 27.3349C117.24 27.3338 117.24 27.3327 117.24 27.3317C117.24 27.3306 117.24 27.3295 117.24 27.3284C117.24 27.3273 117.24 27.3263 117.24 27.3252C117.24 27.3241 117.24 27.323 117.24 27.3219C117.24 27.3208 117.24 27.3198 117.24 27.3187C117.24 27.3176 117.24 27.3165 117.24 27.3154C117.24 27.3144 117.24 27.3133 117.24 27.3122C117.24 27.3111 117.24 27.31 117.24 27.309C117.24 27.3079 117.24 27.3068 117.24 27.3057C117.24 27.3046 117.24 27.3036 117.24 27.3025C117.24 27.3014 117.24 27.3003 117.24 27.2993C117.24 27.2982 117.24 27.2971 117.24 27.296C117.24 27.2949 117.24 27.2939 117.24 27.2928C117.24 27.2917 117.24 27.2906 117.24 27.2896C117.24 27.2885 117.24 27.2874 117.24 27.2863C117.24 27.2853 117.24 27.2842 117.24 27.2831C117.24 27.282 117.24 27.281 117.24 27.2799C117.24 27.2788 117.24 27.2777 117.24 27.2767C117.24 27.2756 117.24 27.2745 117.24 27.2734C117.24 27.2724 117.24 27.2713 117.24 27.2702C117.24 27.2691 117.24 27.2681 117.24 27.267C117.24 27.2659 117.24 27.2649 117.24 27.2638C117.24 27.2627 117.24 27.2616 117.24 27.2606C117.24 27.2595 117.24 27.2584 117.24 27.2574C117.24 27.2563 117.24 27.2552 117.24 27.2541C117.24 27.2531 117.24 27.252 117.24 27.2509C117.24 27.2499 117.24 27.2488 117.24 27.2477C117.24 27.2466 117.24 27.2456 117.24 27.2445C117.24 27.2434 117.24 27.2424 117.24 27.2413C117.24 27.2402 117.24 27.2392 117.24 27.2381C117.24 27.237 117.24 27.236 117.24 27.2349C117.24 27.2338 117.24 27.2327 117.24 27.2317C117.24 27.2306 117.24 27.2295 117.24 27.2285C117.24 27.2274 117.24 27.2263 117.24 27.2253C117.24 27.2242 117.24 27.2231 117.24 27.2221C117.24 27.221 117.24 27.2199 117.24 27.2189C117.24 27.2178 117.24 27.2168 117.24 27.2157C117.24 27.2146 117.24 27.2136 117.24 27.2125C117.24 27.2114 117.24 27.2104 117.24 27.2093C117.24 27.2082 117.24 27.2072 117.24 27.2061C117.24 27.205 117.24 27.204 117.24 27.2029C117.24 27.2019 117.24 27.2008 117.24 27.1997C117.24 27.1987 117.24 27.1976 117.24 27.1965C117.24 27.1955 117.24 27.1944 117.24 27.1934C117.24 27.1923 117.24 27.1912 117.24 27.1902C117.24 27.1891 117.24 27.188 117.24 27.187C117.24 27.1859 117.24 27.1849 117.24 27.1838C117.24 27.1827 117.24 27.1817 117.24 27.1806C117.24 27.1796 117.24 27.1785 117.24 27.1774C117.24 27.1764 117.24 27.1753 117.24 27.1743C117.24 27.1732 117.24 27.1722 117.24 27.1711C117.24 27.17 117.24 27.169 117.24 27.1679C117.24 27.1669 117.24 27.1658 117.24 27.1647C117.24 27.1637 117.24 27.1626 117.24 27.1616C117.24 27.1605 117.24 27.1595 117.24 27.1584C117.24 27.1574 117.24 27.1563 117.24 27.1552C117.24 27.1542 117.24 27.1531 117.24 27.1521C117.24 27.151 117.24 27.15 117.24 27.1489C117.24 27.1479 117.24 27.1468 117.24 27.1457C117.24 27.1447 117.24 27.1436 117.24 27.1426C117.24 27.1415 117.24 27.1405 117.24 27.1394C117.24 27.1384 117.24 27.1373 117.24 27.1363C117.24 27.1352 117.24 27.1342 117.24 27.1331C117.24 27.132 117.24 27.131 117.24 27.1299C117.24 27.1289 117.24 27.1278 117.24 27.1268C117.24 27.1257 117.24 27.1247 117.24 27.1236C117.24 27.1226 117.24 27.1215 117.24 27.1205C117.24 27.1194 117.24 27.1184 117.24 27.1173C117.24 27.1163 117.24 27.1152 117.24 27.1142C117.24 27.1131 117.24 27.1121 117.24 27.111C117.24 27.11 117.24 27.1089 117.24 27.1079C117.24 27.1068 117.24 27.1058 117.24 27.1047C117.24 27.1037 117.24 27.1027 117.24 27.1016C117.24 27.1006 117.24 27.0995 117.24 27.0985C117.24 27.0974 117.24 27.0964 117.24 27.0953C117.24 27.0943 117.24 27.0932 117.24 27.0922C117.24 27.0911 117.24 27.0901 117.24 27.089C117.24 27.088 117.24 27.087 117.24 27.0859C117.24 27.0849 117.24 27.0838 117.24 27.0828C117.24 27.0817 117.24 27.0807 117.24 27.0796C117.24 27.0786 117.24 27.0776 117.24 27.0765C117.24 27.0755 117.24 27.0744 117.24 27.0734C117.24 27.0723 117.24 27.0713 117.24 27.0703C117.24 27.0692 117.24 27.0682 117.24 27.0671C117.24 27.0661 117.24 27.065 117.24 27.064C117.24 27.063 117.24 27.0619 117.24 27.0609C117.24 27.0598 117.24 27.0588 117.24 27.0578C117.24 27.0567 117.24 27.0557 117.24 27.0546C117.24 27.0536 117.24 27.0526 117.24 27.0515C117.24 27.0505 117.24 27.0494 117.24 27.0484C117.24 27.0474 117.24 27.0463 117.24 27.0453C117.24 27.0442 117.24 27.0432 117.24 27.0422C117.24 27.0411 117.24 27.0401 117.24 27.039C117.24 27.038 117.24 27.037 117.24 27.0359C117.24 27.0349 117.24 27.0339 117.24 27.0328C117.24 27.0318 117.24 27.0308 117.24 27.0297C117.24 27.0287 117.24 27.0276 117.24 27.0266C117.24 27.0256 117.24 27.0245 117.24 27.0235C117.24 27.0225 117.24 27.0214 117.24 27.0204C117.24 27.0194 117.24 27.0183 117.24 27.0173C117.24 27.0163 117.24 27.0152 117.24 27.0142C117.24 27.0132 117.24 27.0121 117.24 27.0111C117.24 27.0101 117.24 27.009 117.24 27.008C117.24 27.007 117.24 27.0059 117.24 27.0049C117.24 27.0039 117.24 27.0028 117.24 27.0018C117.24 27.0008 117.24 26.9997 117.24 26.9987C117.24 26.9977 117.24 26.9966 117.24 26.9956C117.24 26.9946 117.24 26.9935 117.24 26.9925C117.24 26.9915 117.24 26.9905 117.24 26.9894C117.24 26.9884 117.24 26.9874 117.24 26.9863C117.24 26.9853 117.24 26.9843 117.24 26.9832C117.24 26.9822 117.24 26.9812 117.24 26.9802C117.24 26.9791 117.24 26.9781 117.24 26.9771C117.24 26.976 117.24 26.975 117.24 26.974C117.24 26.973 117.24 26.9719 117.24 26.9709C117.24 26.9699 117.24 26.9689 117.24 26.9678C117.24 26.9668 117.24 26.9658 117.24 26.9647C117.24 26.9637 117.24 26.9627 117.24 26.9617C117.24 26.9606 117.24 26.9596 117.24 26.9586C117.24 26.9576 117.24 26.9565 117.24 26.9555C117.24 26.9545 117.24 26.9535 117.24 26.9524C117.24 26.9514 117.24 26.9504 117.24 26.9494C117.24 26.9484 117.24 26.9473 117.24 26.9463C117.24 26.9453 117.24 26.9443 117.24 26.9432C117.24 26.9422 117.24 26.9412 117.24 26.9402C117.24 26.9391 117.24 26.9381 117.24 26.9371C117.24 26.9361 117.24 26.9351 117.24 26.934C117.24 26.933 117.24 26.932 117.24 26.931C117.24 26.93 117.24 26.9289 117.24 26.9279C117.24 26.9269 117.24 26.9259 117.24 26.9249C117.24 26.9238 117.24 26.9228 117.24 26.9218C117.24 26.9208 117.24 26.9198 117.24 26.9187C117.24 26.9177 117.24 26.9167 117.24 26.9157C117.24 26.9147 117.24 26.9137 117.24 26.9126C117.24 26.9116 117.24 26.9106 117.24 26.9096C117.24 26.9086 117.24 26.9075 117.24 26.9065C117.24 26.9055 117.24 26.9045 117.24 26.9035C117.24 26.9025 117.24 26.9014 117.24 26.9004C117.24 26.8994 117.24 26.8984 117.24 26.8974C117.24 26.8964 117.24 26.8954 117.24 26.8943C117.24 26.8933 117.24 26.8923 117.24 26.8913C117.24 26.8903 117.24 26.8893 117.24 26.8883C117.24 26.8872 117.24 26.8862 117.24 26.8852C117.24 26.8842 117.24 26.8832 117.24 26.8822C117.24 26.8812 117.24 26.8801 117.24 26.8791C117.24 26.8781 117.24 26.8771 117.24 26.8761C117.24 26.8751 117.24 26.8741 117.24 26.8731C117.24 26.8721 117.24 26.871 117.24 26.87C117.24 26.869 117.24 26.868 117.24 26.867C117.24 26.866 117.24 26.865 117.24 26.864C117.24 26.863 117.24 26.8619 117.24 26.8609C117.24 26.8599 117.24 26.8589 117.24 26.8579C117.24 26.8569 117.24 26.8559 117.24 26.8549C117.24 26.8539 117.24 26.8529 117.24 26.8519C117.24 26.8509 117.24 26.8498 117.24 26.8488C117.24 26.8478 117.24 26.8468 117.24 26.8458C117.24 26.8448 117.24 26.8438 117.24 26.8428C117.24 26.8418 117.24 26.8408 117.24 26.8398C117.24 26.8388 117.24 26.8378 117.24 26.8368C117.24 26.8358 117.24 26.8347 117.24 26.8337C117.24 26.8327 117.24 26.8317 117.24 26.8307C117.24 26.8297 117.24 26.8287 117.24 26.8277C117.24 26.8267 117.24 26.8257 117.24 26.8247C117.24 26.8237 117.24 26.8227 117.24 26.8217C117.24 26.8207 117.24 26.8197 117.24 26.8187C117.24 26.8177 117.24 26.8167 117.24 26.8157C117.24 26.8147 117.24 26.8137 117.24 26.8127C117.24 26.8117 117.24 26.8107 117.24 26.8097C117.24 26.8087 117.24 26.8077 117.24 26.8067C117.24 26.8057 117.24 26.8047 117.24 26.8037C117.24 26.8027 117.24 26.8017 117.24 26.8007C117.24 26.7997 117.24 26.7987 117.24 26.7977C117.24 26.7967 117.24 26.7957 117.24 26.7947C117.24 26.7937 117.24 26.7927 117.24 26.7917C117.24 26.7907 117.24 26.7897 117.24 26.7887C117.24 26.7877 117.24 26.7867 117.24 26.7857C117.24 26.7847 117.24 26.7837 117.24 26.7827C117.24 26.7817 117.24 26.7807 117.24 26.7797C117.24 26.7787 117.24 26.7777 117.24 26.7767C117.24 26.7757 117.24 26.7747 117.24 26.7737C117.24 26.7727 117.24 26.7717 117.24 26.7707C117.24 26.7698 117.24 26.7688 117.24 26.7678C117.24 26.7668 117.24 26.7658 117.24 26.7648C117.24 26.7638 117.24 26.7628 117.24 26.7618C117.24 26.7608 117.24 26.7598 117.24 26.7588C117.24 26.7578 117.24 26.7568 117.24 26.7558C117.24 26.7549 117.24 26.7539 117.24 26.7529C117.24 26.7519 117.24 26.7509 117.24 26.7499C117.24 26.7489 117.24 26.7479 117.24 26.7469C117.24 26.7459 117.24 26.7449 117.24 26.7439C117.24 26.743 117.24 26.742 117.24 26.741C117.24 26.74 117.24 26.739 117.24 26.738C117.24 26.737 117.24 26.736 117.24 26.735C117.24 26.7341 117.24 26.7331 117.24 26.7321C117.24 26.7311 117.24 26.7301 117.24 26.7291C117.24 26.7281 117.24 26.7271 117.24 26.7261C117.24 26.7252 117.24 26.7242 117.24 26.7232C117.24 26.7222 117.24 26.7212 117.24 26.7202C117.24 26.7192 117.24 26.7183 117.24 26.7173C117.24 26.7163 117.24 26.7153 117.24 26.7143C117.24 26.7133 117.24 26.7123 117.24 26.7114C117.24 26.7104 117.24 26.7094 117.24 26.7084C117.24 26.7074 117.24 26.7064 117.24 26.7054C117.24 26.7045 117.24 26.7035 117.24 26.7025C117.24 26.7015 117.24 26.7005 117.24 26.6995C117.24 26.6986 117.24 26.6976 117.24 26.6966C117.24 26.6956 117.24 26.6946 117.24 26.6936C117.24 26.6927 117.24 26.6917 117.24 26.6907C117.24 26.6897 117.24 26.6887 117.24 26.6878C117.24 26.6868 117.24 26.6858 117.24 26.6848C117.24 26.6838 117.24 26.6829 117.24 26.6819C117.24 26.6809 117.24 26.6799 117.24 26.6789C117.24 26.678 117.24 26.677 117.24 26.676C117.24 26.675 117.24 26.674 117.24 26.6731C117.24 26.6721 117.24 26.6711 117.24 26.6701C117.24 26.6691 117.24 26.6682 117.24 26.6672C117.24 26.6662 117.24 26.6652 117.24 26.6643C117.24 26.6633 117.24 26.6623 117.24 26.6613C117.24 26.6604 117.24 26.6594 117.24 26.6584C117.24 26.6574 117.24 26.6564 117.24 26.6555C117.24 26.6545 117.24 26.6535 117.24 26.6525C117.24 26.6516 117.24 26.6506 117.24 26.6496C117.24 26.6486 117.24 26.6477 117.24 26.6467C117.24 26.6457 117.24 26.6447 117.24 26.6438C117.24 26.6428 117.24 26.6418 117.24 26.6409C117.24 26.6399 117.24 26.6389 117.24 26.6379C117.24 26.637 117.24 26.636 117.24 26.635C117.24 26.634 117.24 26.6331 117.24 26.6321C117.24 26.6311 117.24 26.6302 117.24 26.6292C117.24 26.6282 117.24 26.6272 117.24 26.6263C117.24 26.6253 117.24 26.6243 117.24 26.6234C117.24 26.6224 117.24 26.6214 117.24 26.6204C117.24 26.6195 117.24 26.6185 117.24 26.6175C117.24 26.6166 117.24 26.6156 117.24 26.6146C117.24 26.6137 117.24 26.6127 117.24 26.6117C117.24 26.6108 117.24 26.6098 117.24 26.6088C117.24 26.6079 117.24 26.6069 117.24 26.6059C117.24 26.605 117.24 26.604 117.24 26.603C117.24 26.6021 117.24 26.6011 117.24 26.6001C117.24 26.5992 117.24 26.5982 117.24 26.5972C117.24 26.5963 117.24 26.5953 117.24 26.5943C117.24 26.5934 117.24 26.5924 117.24 26.5914C117.24 26.5905 117.24 26.5895 117.24 26.5885C117.24 26.5876 117.24 26.5866 117.24 26.5856C117.24 26.5847 117.24 26.5837 117.24 26.5827C117.24 26.5818 117.24 26.5808 117.24 26.5799C117.24 26.5789 117.24 26.5779 117.24 26.577C117.24 26.576 117.24 26.575 117.24 26.5741C117.24 26.5731 117.24 26.5722 117.24 26.5712C117.24 26.5702 117.24 26.5693 117.24 26.5683C117.24 26.5674 117.24 26.5664 117.24 26.5654C117.24 26.5645 117.24 26.5635 117.24 26.5625C117.24 26.5616 117.24 26.5606 117.24 26.5597C117.24 26.5587 117.24 26.5578 117.24 26.5568C117.24 26.5558 117.24 26.5549 117.24 26.5539C117.24 26.553 117.24 26.552 117.24 26.551C117.24 26.5501 117.24 26.5491 117.24 26.5482C117.24 26.5472 117.24 26.5463 117.24 26.5453C117.24 26.5443 117.24 26.5434 117.24 26.5424C117.24 26.5415 117.24 26.5405 117.24 26.5396C117.24 26.5386 117.24 26.5376 117.24 26.5367C117.24 26.5357 117.24 26.5348 117.24 26.5338C117.24 26.5329 117.24 26.5319 117.24 26.531C117.24 26.53 117.24 26.529 117.24 26.5281C117.24 26.5271 117.24 26.5262 117.24 26.5252C117.24 26.5243 117.24 26.5233 117.24 26.5224C117.24 26.5214 117.24 26.5205 117.24 26.5195C117.24 26.5186 117.24 26.5176 117.24 26.5167C117.24 26.5157 117.24 26.5147 117.24 26.5138C117.24 26.5128 117.24 26.5119 117.24 26.5109C117.24 26.51 117.24 26.509 117.24 26.5081C117.24 26.5071 117.24 26.5062 117.24 26.5052C117.24 26.5043 117.24 26.5033 117.24 26.5024C117.24 26.5014 117.24 26.5005 117.24 26.4995C117.24 26.4986 117.24 26.4976 117.24 26.4967C117.24 26.4957 117.24 26.4948 117.24 26.4938C117.24 26.4929 117.24 26.4919 117.24 26.491C117.24 26.4901 117.24 26.4891 117.24 26.4882C117.24 26.4872 117.24 26.4863 117.24 26.4853C117.24 26.4844 117.24 26.4834 117.24 26.4825C117.24 26.4815 117.24 26.4806 117.24 26.4796C117.24 26.4787 117.24 26.4777 117.24 26.4768C117.24 26.4759 117.24 26.4749 117.24 26.474C117.24 26.473 117.24 26.4721 117.24 26.4711C117.24 26.4702 117.24 26.4692 117.24 26.4683C117.24 26.4674 117.24 26.4664 117.24 26.4655C117.24 26.4645 117.24 26.4636 117.24 26.4626C117.24 26.4617 117.24 26.4607 117.24 26.4598C117.24 26.4589 117.24 26.4579 117.24 26.457C117.24 26.456 117.24 26.4551 117.24 26.4542C117.24 26.4532 117.24 26.4523 117.24 26.4513C117.24 26.4504 117.24 26.4494 117.24 26.4485C117.24 26.4476 117.24 26.4466 117.24 26.4457C117.24 26.4447 117.24 26.4438 117.24 26.4429C117.24 26.4419 117.24 26.441 117.24 26.44C117.24 26.4391 117.24 26.4382 117.24 26.4372C117.24 26.4363 117.24 26.4354 117.24 26.4344C117.24 26.4335 117.24 26.4325 117.24 26.4316C117.24 26.4307 117.24 26.4297 117.24 26.4288C117.24 26.4279 117.24 26.4269 117.24 26.426C117.24 26.425 117.24 26.4241 117.24 26.4232C117.24 26.4222 117.24 26.4213 117.24 26.4204C117.24 26.4194 117.24 26.4185 117.24 26.4176C117.24 26.4166 117.24 26.4157 117.24 26.4148C117.24 26.4138 117.24 26.4129 117.24 26.4119C117.24 26.411 117.24 26.4101 117.24 26.4091C117.24 26.4082 117.24 26.4073 117.24 26.4063C117.24 26.4054 117.24 26.4045 117.24 26.4035C117.24 26.4026 117.24 26.4017 117.24 26.4007C117.24 26.3998 117.24 26.3989 117.24 26.398C117.24 26.397 117.24 26.3961 117.24 26.3952C117.24 26.3942 117.24 26.3933 117.24 26.3924C117.24 26.3914 117.24 26.3905 117.24 26.3896C117.24 26.3886 117.24 26.3877 117.24 26.3868C117.24 26.3859 117.24 26.3849 117.24 26.384C117.24 26.3831 117.24 26.3821 117.24 26.3812C117.24 26.3803 117.24 26.3793 117.24 26.3784C117.24 26.3775 117.24 26.3766 117.24 26.3756C117.24 26.3747 117.24 26.3738 117.24 26.3729C117.24 26.3719 117.24 26.371 117.24 26.3701C117.24 26.3691 117.24 26.3682 117.24 26.3673C117.24 26.3664 117.24 26.3654 117.24 26.3645C117.24 26.3636 117.24 26.3627 117.24 26.3617C117.24 26.3608 117.24 26.3599 117.24 26.359C117.24 26.358 117.24 26.3571 117.24 26.3562C117.24 26.3553 117.24 26.3543 117.24 26.3534C117.24 26.3525 117.24 26.3516 117.24 26.3506C117.24 26.3497 117.24 26.3488 117.24 26.3479C117.24 26.347 117.24 26.346 117.24 26.3451C117.24 26.3442 117.24 26.3433 117.24 26.3423C117.24 26.3414 117.24 26.3405 117.24 26.3396C117.24 26.3386 117.24 26.3377 117.24 26.3368C117.24 26.3359 117.24 26.335 117.24 26.334C117.24 26.3331 117.24 26.3322 117.24 26.3313C117.24 26.3304 117.24 26.3294 117.24 26.3285C117.24 26.3276 117.24 26.3267 117.24 26.3258C117.24 26.3248 117.24 26.3239 117.24 26.323C117.24 26.3221 117.24 26.3212 117.24 26.3203C117.24 26.3193 117.24 26.3184 117.24 26.3175C117.24 26.3166 117.24 26.3157 117.24 26.3148C117.24 26.3138 117.24 26.3129 117.24 26.312H115.24ZM115.24 27.912V45H117.24V27.912H115.24ZM116.24 44H105.104V46H116.24V44ZM106.104 45V26.504H104.104V45H106.104ZM106.104 26.504C106.104 25.1968 105.887 24.0261 105.256 23.2063L103.671 24.4257C103.894 24.7152 104.104 25.3366 104.104 26.504H106.104ZM105.277 23.2348C104.569 22.2435 103.344 21.92 102.032 21.92V23.92C103.108 23.92 103.504 24.1938 103.65 24.3972L105.277 23.2348ZM102.032 21.92C101.037 21.92 100.082 22.1837 99.1779 22.6858L100.149 24.4342C100.781 24.0829 101.405 23.92 102.032 23.92V21.92ZM99.1779 22.6858C98.3319 23.1558 97.574 23.7233 96.9084 24.3889L98.3226 25.8031C98.8517 25.2741 99.4591 24.8175 100.149 24.4342L99.1779 22.6858ZM96.6155 25.096V45H98.6155V25.096H96.6155ZM97.6155 44H85.9675V46H97.6155V44ZM146.926 41.608L146.24 42.3365L146.246 42.3416L146.926 41.608ZM146.99 18.12L147.669 18.8536L147.675 18.8482L146.99 18.12ZM173.806 18.12L173.12 18.8482L173.126 18.8534L173.131 18.8585L173.806 18.12ZM173.87 41.608L173.19 40.8744L173.87 41.608ZM164.59 35.208L163.812 34.5797L163.804 34.5889L163.797 34.5983L164.59 35.208ZM164.59 24.52L163.786 25.1152L163.798 25.132L163.812 25.1483L164.59 24.52ZM156.206 24.52L156.998 25.1297L157.004 25.1225L157.009 25.1152L156.206 24.52ZM156.206 35.208L156.998 34.5983L156.206 35.208ZM160.366 44.64C154.429 44.64 150.244 43.3196 147.605 40.8744L146.246 42.3416C149.409 45.2724 154.185 46.64 160.366 46.64V44.64ZM147.611 40.8795C145.011 38.435 143.638 34.8101 143.638 29.832H141.638C141.638 35.1793 143.123 39.405 146.24 42.3365L147.611 40.8795ZM143.638 29.832C143.638 24.9038 145.028 21.3005 147.669 18.8536L146.31 17.3864C143.148 20.3155 141.638 24.5202 141.638 29.832H143.638ZM147.675 18.8482C150.315 16.3631 154.477 15.024 160.366 15.024V13.024C154.222 13.024 149.466 14.4156 146.304 17.3918L147.675 18.8482ZM160.366 15.024C166.299 15.024 170.481 16.3641 173.12 18.8482L174.491 17.3918C171.328 14.4146 166.55 13.024 160.366 13.024V15.024ZM173.131 18.8585C175.812 21.3065 177.222 24.9081 177.222 29.832H179.222C179.222 24.5159 177.687 20.3095 174.48 17.3815L173.131 18.8585ZM177.222 29.832C177.222 34.8058 175.829 38.429 173.19 40.8744L174.549 42.3416C177.712 39.411 179.222 35.1836 179.222 29.832H177.222ZM173.19 40.8744C170.552 43.3187 166.347 44.64 160.366 44.64V46.64C166.587 46.64 171.385 45.2733 174.549 42.3416L173.19 40.8744ZM160.366 37.872C162.506 37.872 164.271 37.2619 165.382 35.8177L163.797 34.5983C163.201 35.3728 162.15 35.872 160.366 35.872V37.872ZM165.367 35.8363C166.48 34.459 166.934 32.3836 166.934 29.832H164.934C164.934 32.2297 164.491 33.7383 163.812 34.5797L165.367 35.8363ZM166.934 29.832C166.934 27.318 166.478 25.2667 165.367 23.8917L163.812 25.1483C164.493 25.992 164.934 27.482 164.934 29.832H166.934ZM165.393 23.9248C164.287 22.4316 162.519 21.792 160.366 21.792V23.792C162.137 23.792 163.185 24.3044 163.786 25.1152L165.393 23.9248ZM160.366 21.792C158.245 21.792 156.504 22.4371 155.402 23.9248L157.009 25.1152C157.614 24.2989 158.646 23.792 160.366 23.792V21.792ZM155.413 23.9103C154.357 25.2826 153.926 27.3253 153.926 29.832H155.926C155.926 27.4747 156.347 25.9761 156.998 25.1297L155.413 23.9103ZM153.926 29.832C153.926 32.3766 154.356 34.4432 155.413 35.8177L156.998 34.5983C156.349 33.7541 155.926 32.2368 155.926 29.832H153.926ZM155.413 35.8177C156.52 37.2567 158.258 37.872 160.366 37.872V35.872C158.633 35.872 157.598 35.378 156.998 34.5983L155.413 35.8177ZM203.919 45H202.919V46H203.919V45ZM203.919 23.56H204.919V22.56H203.919V23.56ZM200.015 23.56H199.015V24.56H200.015V23.56ZM200.015 14.664V13.664H199.015V14.664H200.015ZM203.919 14.664V15.664H204.919V14.664H203.919ZM206.863 4.232L207.612 4.8946L207.618 4.88747L206.863 4.232ZM220.111 1.224L219.915 2.2046L219.921 2.20578L220.111 1.224ZM223.823 2.312H224.823V1.6396L224.2 1.3859L223.823 2.312ZM223.823 10.12L223.507 11.0687L224.823 11.5074V10.12H223.823ZM221.903 9.608L221.693 10.5859L221.707 10.5886L221.903 9.608ZM216.783 10.248L216.103 9.5152L216.089 9.5278L216.076 9.54089L216.783 10.248ZM215.951 14.664H214.951V15.664H215.951V14.664ZM223.119 14.664L224.117 14.7215L224.178 13.664H223.119V14.664ZM222.607 23.56V24.56H223.551L223.605 23.6175L222.607 23.56ZM215.951 23.56V22.56H214.951V23.56H215.951ZM215.951 45V46H216.951V45H215.951ZM204.919 45V23.56H202.919V45H204.919ZM203.919 22.56H200.015V24.56H203.919V22.56ZM201.015 23.56V14.664H199.015V23.56H201.015ZM200.015 15.664H203.919V13.664H200.015V15.664ZM204.919 14.664V12.68H202.919V14.664H204.919ZM204.919 12.68C204.919 9.4712 205.835 6.90281 207.612 4.89457L206.114 3.56942C203.965 5.99852 202.919 9.06214 202.919 12.68H204.919ZM207.618 4.88747C209.336 2.90823 211.964 1.84 215.695 1.84V-0.160004C211.576 -0.160004 208.315 1.0331 206.108 3.57653L207.618 4.88747ZM215.695 1.84C217.31 1.84 218.714 1.96445 219.915 2.20458L220.307 0.243419C218.948 -0.0284505 217.408 -0.160004 215.695 -0.160004V1.84ZM219.921 2.20578C221.185 2.45039 222.359 2.79533 223.446 3.23809L224.2 1.3859C222.983 0.890002 221.683 0.509607 220.301 0.242219L219.921 2.20578ZM222.823 2.312V10.12H224.823V2.312H222.823ZM224.139 9.17132C223.461 8.94531 222.781 8.76382 222.099 8.62742L221.707 10.5886C222.305 10.7082 222.905 10.868 223.507 11.0687L224.139 9.17132ZM222.113 8.6302C221.439 8.48583 220.728 8.416 219.983 8.416V10.416C220.603 10.416 221.173 10.4742 221.693 10.5858L222.113 8.6302ZM219.983 8.416C218.392 8.416 216.991 8.69007 216.103 9.5152L217.463 10.9808C217.77 10.6966 218.502 10.416 219.983 10.416V8.416ZM216.076 9.54089C215.25 10.3668 214.951 11.5817 214.951 12.936H216.951C216.951 11.8156 217.207 11.2385 217.49 10.9551L216.076 9.54089ZM214.951 12.936V14.664H216.951V12.936H214.951ZM215.951 15.664H223.119V13.664H215.951V15.664ZM222.121 14.6065L221.609 23.5025L223.605 23.6175L224.117 14.7215L222.121 14.6065ZM222.607 22.56H215.951V24.56H222.607V22.56ZM214.951 23.56V45H216.951V23.56H214.951ZM215.951 44H203.919V46H215.951V44ZM233.08 42.632L232.373 43.3391L233.08 42.632ZM230.072 14.664V13.664H229.072V14.664H230.072ZM242.104 14.664H243.104V13.664H242.104V14.664ZM249.016 36.168L248.603 35.2576L249.016 36.168ZM251.257 34.568L252.012 35.2229L252.257 34.941V34.568H251.257ZM251.257 14.664V13.664H250.257V14.664H251.257ZM263.289 14.664H264.289V13.664H263.289V14.664ZM263.289 45V46H264.289V45H263.289ZM252.025 45L251.034 45.1376L251.154 46H252.025V45ZM251.704 42.696L252.695 42.5584L252.468 40.922L251.123 41.8823L251.704 42.696ZM247.288 44.808L246.986 43.8547L246.979 43.857L247.288 44.808ZM241.4 44.64C238.055 44.64 235.561 43.6986 233.788 41.9249L232.373 43.3391C234.61 45.5761 237.664 46.64 241.4 46.64V44.64ZM233.788 41.9249C232.03 40.1677 231.072 37.5176 231.072 33.8H229.072C229.072 37.8477 230.12 41.0856 232.373 43.3391L233.788 41.9249ZM231.072 33.8V14.664H229.072V33.8H231.072ZM230.072 15.664H242.104V13.664H230.072V15.664ZM241.104 14.664V32.84H243.104V14.664H241.104ZM241.104 32.84C241.104 34.3209 241.482 35.6143 242.411 36.5287C243.337 37.4402 244.642 37.808 246.137 37.808V35.808C244.943 35.808 244.232 35.5144 243.814 35.1033C243.399 34.695 243.104 34.0044 243.104 32.84H241.104ZM246.137 37.808C247.268 37.808 248.368 37.561 249.43 37.0784L248.603 35.2576C247.787 35.6283 246.968 35.808 246.137 35.808V37.808ZM249.43 37.0784C250.472 36.6048 251.345 35.9927 252.012 35.2229L250.501 33.9131C250.059 34.4233 249.438 34.8778 248.603 35.2576L249.43 37.0784ZM252.257 34.568V14.664H250.257V34.568H252.257ZM251.257 15.664H263.289V13.664H251.257V15.664ZM262.289 14.664V45H264.289V14.664H262.289ZM263.289 44H252.025V46H263.289V44ZM253.015 44.8624L252.695 42.5584L250.714 42.8336L251.034 45.1376L253.015 44.8624ZM251.123 41.8823C250.032 42.6618 248.66 43.3242 246.986 43.8548L247.591 45.7612C249.416 45.1825 250.988 44.4369 252.286 43.5097L251.123 41.8823ZM246.979 43.857C245.393 44.3726 243.538 44.64 241.4 44.64V46.64C243.7 46.64 245.771 46.3528 247.598 45.759L246.979 43.857ZM272.217 45H271.217V46H272.217V45ZM272.217 14.664V13.664H271.217V14.664H272.217ZM283.482 14.664L284.472 14.5264L284.352 13.664H283.482V14.664ZM283.801 16.968L282.811 17.1056L283.03 18.684L284.356 17.8L283.801 16.968ZM288.345 14.92L288.048 13.9651L288.042 13.9671L288.345 14.92ZM302.81 16.84L302.078 17.5217V17.5217L302.81 16.84ZM305.434 45V46H306.434V45H305.434ZM293.401 45H292.401V46H293.401V45ZM292.505 23.816L293.213 23.1089V23.1089L292.505 23.816ZM286.553 23.56L286.155 22.6429L286.147 22.6462L286.14 22.6496L286.553 23.56ZM284.249 25.096L283.542 24.3889L283.249 24.6818V25.096H284.249ZM284.249 45V46H285.249V45H284.249ZM273.217 45V14.664H271.217V45H273.217ZM272.217 15.664H283.482V13.664H272.217V15.664ZM282.491 14.8016L282.811 17.1056L284.792 16.8304L284.472 14.5264L282.491 14.8016ZM284.356 17.8C285.405 17.1007 286.826 16.4528 288.649 15.8729L288.042 13.9671C286.11 14.5818 284.502 15.2993 283.247 16.1359L284.356 17.8ZM288.643 15.8749C290.459 15.3098 292.406 15.024 294.49 15.024V13.024C292.221 13.024 290.072 13.3355 288.048 13.9651L288.643 15.8749ZM294.49 15.024C298.143 15.024 300.593 15.928 302.078 17.5217L303.541 16.1583C301.527 13.9973 298.431 13.024 294.49 13.024V15.024ZM302.078 17.5217C303.583 19.1368 304.434 21.7416 304.434 25.544H306.434C306.434 21.4957 305.535 18.2978 303.541 16.1583L302.078 17.5217ZM304.434 25.544V45H306.434V25.544H304.434ZM305.434 44H293.401V46H305.434V44ZM294.401 45V26.76H292.401V45H294.401ZM294.401 26.76C294.401 25.2861 294.085 23.9812 293.213 23.1089L291.798 24.5231C292.121 24.8455 292.401 25.5033 292.401 26.76H294.401ZM293.213 23.1089C292.327 22.2236 290.941 21.92 289.37 21.92V23.92C290.785 23.92 291.489 24.2137 291.798 24.5231L293.213 23.1089ZM289.37 21.92C288.312 21.92 287.238 22.172 286.155 22.6429L286.952 24.4771C287.832 24.0947 288.635 23.92 289.37 23.92V21.92ZM286.14 22.6496C285.115 23.1153 284.241 23.6904 283.542 24.3889L284.957 25.8031C285.453 25.307 286.114 24.858 286.967 24.4704L286.14 22.6496ZM283.249 25.096V45H285.249V25.096H283.249ZM284.249 44H272.217V46H284.249V44ZM317.188 41.736L316.55 42.5068L316.557 42.5118L317.188 41.736ZM314.628 20.936L313.784 20.3991L314.628 20.936ZM320.9 15.752L321.281 16.6765L321.293 16.6711L320.9 15.752ZM336.388 14.536L336.2 15.5183L336.212 15.5205L336.223 15.5224L336.388 14.536ZM341.508 16.136H342.508V15.5032L341.936 15.2323L341.508 16.136ZM341.508 24.584L341.079 25.4874L342.508 26.1655V24.584H341.508ZM326.724 24.328L326.135 23.5193L326.129 23.5236L326.124 23.528L326.724 24.328ZM326.66 35.208L327.302 34.4418L326.66 35.208ZM337.411 36.36L337.641 37.3334L337.654 37.3302L337.667 37.3267L337.411 36.36ZM341.572 34.76H342.572V33.1185L341.113 33.8714L341.572 34.76ZM341.572 43.592L341.98 44.5048L342.572 44.2401V43.592H341.572ZM336.324 45.128L336.166 44.1404L336.153 44.1425L336.141 44.1449L336.324 45.128ZM330.243 44.64C324.892 44.64 320.788 43.3757 317.818 40.9602L316.557 42.5118C319.987 45.3016 324.587 46.64 330.243 46.64V44.64ZM317.825 40.9653C314.915 38.5599 313.388 34.9131 313.388 29.832H311.388C311.388 35.3323 313.06 39.6214 316.55 42.5067L317.825 40.9653ZM313.388 29.832C313.388 26.384 314.106 23.6188 315.471 21.4729L313.784 20.3991C312.163 22.9465 311.388 26.112 311.388 29.832H313.388ZM315.471 21.4729C316.849 19.3081 318.774 17.711 321.281 16.6764L320.518 14.8276C317.649 16.0117 315.393 17.8706 313.784 20.3991L315.471 21.4729ZM321.293 16.6711C323.832 15.5831 326.829 15.024 330.307 15.024V13.024C326.618 13.024 323.343 13.6169 320.506 14.8329L321.293 16.6711ZM330.307 15.024C332.52 15.024 334.483 15.1911 336.2 15.5183L336.575 13.5537C334.708 13.1982 332.617 13.024 330.307 13.024V15.024ZM336.223 15.5224C337.925 15.806 339.543 16.3119 341.079 17.0397L341.936 15.2323C340.23 14.4241 338.434 13.8633 336.552 13.5496L336.223 15.5224ZM340.508 16.136V24.584H342.508V16.136H340.508ZM341.936 23.6806C339.266 22.4135 336.258 21.792 332.932 21.792V23.792C336.005 23.792 338.714 24.3651 341.079 25.4874L341.936 23.6806ZM332.932 21.792C330.101 21.792 327.787 22.3183 326.135 23.5193L327.312 25.1367C328.476 24.2897 330.3 23.792 332.932 23.792V21.792ZM326.124 23.528C324.392 24.8264 323.676 27.0489 323.676 29.832H325.676C325.676 27.3244 326.324 25.8776 327.324 25.128L326.124 23.528ZM323.676 29.832C323.676 32.4697 324.383 34.6035 326.017 35.9742L327.302 34.4418C326.291 33.5938 325.676 32.1437 325.676 29.832H323.676ZM326.017 35.9742C327.605 37.3061 329.98 37.872 332.932 37.872V35.872C330.165 35.872 328.359 35.3286 327.302 34.4418L326.017 35.9742ZM332.932 37.872C334.542 37.872 336.113 37.6929 337.641 37.3334L337.182 35.3866C335.809 35.7097 334.393 35.872 332.932 35.872V37.872ZM337.667 37.3267C339.188 36.9243 340.642 36.3649 342.03 35.6486L341.113 33.8714C339.855 34.5205 338.537 35.0277 337.156 35.3933L337.667 37.3267ZM340.572 34.76V43.592H342.572V34.76H340.572ZM341.163 42.6792C339.627 43.3663 337.963 43.8546 336.166 44.1404L336.481 46.1156C338.439 45.8041 340.273 45.2684 341.98 44.5048L341.163 42.6792ZM336.141 44.1449C334.376 44.4731 332.412 44.64 330.243 44.64V46.64C332.512 46.64 334.601 46.4656 336.506 46.1111L336.141 44.1449ZM351.354 10.632H350.354V11.632H351.354V10.632ZM351.354 1.928V0.927998H350.354V1.928H351.354ZM364.346 1.928H365.346V0.927998H364.346V1.928ZM364.346 10.632V11.632H365.346V10.632H364.346ZM352.314 45H351.314V46H352.314V45ZM352.314 23.432H353.314V22.432H352.314V23.432ZM347.898 23.432L346.905 23.316L346.775 24.432H347.898V23.432ZM348.922 14.664V13.664H348.032L347.929 14.548L348.922 14.664ZM364.346 14.664H365.346V13.664H364.346V14.664ZM364.346 45V46H365.346V45H364.346ZM352.354 10.632V1.928H350.354V10.632H352.354ZM351.354 2.928H364.346V0.927998H351.354V2.928ZM363.346 1.928V10.632H365.346V1.928H363.346ZM364.346 9.632H351.354V11.632H364.346V9.632ZM353.314 45V23.432H351.314V45H353.314ZM352.314 22.432H347.898V24.432H352.314V22.432ZM348.892 23.548L349.916 14.78L347.929 14.548L346.905 23.316L348.892 23.548ZM348.922 15.664H364.346V13.664H348.922V15.664ZM363.346 14.664V45H365.346V14.664H363.346ZM364.346 44H352.314V46H364.346V44ZM376.326 41.608L375.64 42.3365L375.646 42.3416L376.326 41.608ZM376.389 18.12L377.069 18.8536L377.075 18.8482L376.389 18.12ZM403.206 18.12L402.52 18.8482L402.526 18.8534L402.531 18.8585L403.206 18.12ZM403.27 41.608L402.59 40.8744L403.27 41.608ZM393.99 35.208L393.212 34.5797L393.204 34.5889L393.197 34.5983L393.99 35.208ZM393.99 24.52L393.186 25.1152L393.198 25.132L393.212 25.1483L393.99 24.52ZM385.605 24.52L386.398 25.1297L386.404 25.1225L386.409 25.1152L385.605 24.52ZM385.605 35.208L386.398 34.5983L385.605 35.208ZM389.766 44.64C383.829 44.64 379.644 43.3196 377.005 40.8744L375.646 42.3416C378.809 45.2724 383.585 46.64 389.766 46.64V44.64ZM377.011 40.8795C374.411 38.435 373.038 34.8101 373.038 29.832H371.038C371.038 35.1793 372.523 39.405 375.64 42.3365L377.011 40.8795ZM373.038 29.832C373.038 24.9038 374.428 21.3005 377.069 18.8536L375.71 17.3864C372.548 20.3155 371.038 24.5202 371.038 29.832H373.038ZM377.075 18.8482C379.715 16.3631 383.877 15.024 389.766 15.024V13.024C383.622 13.024 378.866 14.4156 375.704 17.3918L377.075 18.8482ZM389.766 15.024C395.699 15.024 399.881 16.3641 402.52 18.8482L403.891 17.3918C400.728 14.4146 395.95 13.024 389.766 13.024V15.024ZM402.531 18.8585C405.212 21.3065 406.621 24.9081 406.621 29.832H408.621C408.621 24.5159 407.087 20.3095 403.88 17.3815L402.531 18.8585ZM406.621 29.832C406.621 34.8058 405.229 38.429 402.59 40.8744L403.949 42.3416C407.112 39.411 408.621 35.1836 408.621 29.832H406.621ZM402.59 40.8744C399.952 43.3187 395.747 44.64 389.766 44.64V46.64C395.987 46.64 400.785 45.2733 403.949 42.3416L402.59 40.8744ZM389.766 37.872C391.906 37.872 393.671 37.2619 394.782 35.8177L393.197 34.5983C392.601 35.3728 391.55 35.872 389.766 35.872V37.872ZM394.767 35.8363C395.88 34.459 396.333 32.3836 396.333 29.832H394.333C394.333 32.2297 393.891 33.7383 393.212 34.5797L394.767 35.8363ZM396.333 29.832C396.333 27.318 395.878 25.2667 394.767 23.8917L393.212 25.1483C393.893 25.992 394.333 27.482 394.333 29.832H396.333ZM394.793 23.9248C393.687 22.4316 391.919 21.792 389.766 21.792V23.792C391.537 23.792 392.585 24.3044 393.186 25.1152L394.793 23.9248ZM389.766 21.792C387.645 21.792 385.904 22.4371 384.802 23.9248L386.409 25.1152C387.014 24.2989 388.046 23.792 389.766 23.792V21.792ZM384.813 23.9103C383.757 25.2826 383.326 27.3253 383.326 29.832H385.326C385.326 27.4747 385.747 25.9761 386.398 25.1297L384.813 23.9103ZM383.326 29.832C383.326 32.3766 383.756 34.4432 384.813 35.8177L386.398 34.5983C385.749 33.7541 385.326 32.2368 385.326 29.832H383.326ZM384.813 35.8177C385.92 37.2567 387.658 37.872 389.766 37.872V35.872C388.033 35.872 386.998 35.378 386.398 34.5983L384.813 35.8177ZM415.33 45H414.33V46H415.33V45ZM415.33 14.664V13.664H414.33V14.664H415.33ZM426.594 14.664L427.585 14.5264L427.465 13.664H426.594V14.664ZM426.914 16.968L425.924 17.1056L426.143 18.684L427.469 17.8L426.914 16.968ZM431.458 14.92L431.161 13.9651L431.155 13.9671L431.458 14.92ZM445.922 16.84L445.19 17.5217V17.5217L445.922 16.84ZM448.546 45V46H449.546V45H448.546ZM436.514 45H435.514V46H436.514V45ZM435.618 23.816L436.325 23.1089V23.1089L435.618 23.816ZM429.666 23.56L429.267 22.6429L429.26 22.6462L429.252 22.6496L429.666 23.56ZM427.362 25.096L426.655 24.3889L426.362 24.6818V25.096H427.362ZM427.362 45V46H428.362V45H427.362ZM416.33 45V14.664H414.33V45H416.33ZM415.33 15.664H426.594V13.664H415.33V15.664ZM425.604 14.8016L425.924 17.1056L427.905 16.8304L427.585 14.5264L425.604 14.8016ZM427.469 17.8C428.518 17.1007 429.939 16.4528 431.761 15.8729L431.155 13.9671C429.223 14.5818 427.614 15.2993 426.359 16.1359L427.469 17.8ZM431.755 15.8749C433.571 15.3098 435.518 15.024 437.602 15.024V13.024C435.334 13.024 433.185 13.3355 431.161 13.9651L431.755 15.8749ZM437.602 15.024C441.256 15.024 443.705 15.928 445.19 17.5217L446.654 16.1583C444.64 13.9973 441.543 13.024 437.602 13.024V15.024ZM445.19 17.5217C446.695 19.1368 447.546 21.7416 447.546 25.544H449.546C449.546 21.4957 448.647 18.2978 446.654 16.1583L445.19 17.5217ZM447.546 25.544V45H449.546V25.544H447.546ZM448.546 44H436.514V46H448.546V44ZM437.514 45V26.76H435.514V45H437.514ZM437.514 26.76C437.514 25.2861 437.197 23.9812 436.325 23.1089L434.911 24.5231C435.233 24.8455 435.514 25.5033 435.514 26.76H437.514ZM436.325 23.1089C435.44 22.2236 434.053 21.92 432.482 21.92V23.92C433.898 23.92 434.602 24.2137 434.911 24.5231L436.325 23.1089ZM432.482 21.92C431.425 21.92 430.35 22.172 429.267 22.6429L430.065 24.4771C430.944 24.0947 431.747 23.92 432.482 23.92V21.92ZM429.252 22.6496C428.228 23.1153 427.353 23.6904 426.655 24.3889L428.069 25.8031C428.565 25.307 429.227 24.858 430.08 24.4704L429.252 22.6496ZM426.362 25.096V45H428.362V25.096H426.362ZM427.362 44H415.33V46H427.362V44ZM460.314 44.616L459.925 45.5377L459.934 45.5412L460.314 44.616ZM456.409 41.416L455.581 41.9763L456.409 41.416ZM458.137 28.488L458.772 29.2613L458.781 29.2537L458.137 28.488ZM475.673 25.8V26.8H476.673V25.8H475.673ZM474.202 22.6L474.694 21.7294L474.202 22.6ZM458.65 23.368H457.65V24.7282L458.948 24.3225L458.65 23.368ZM458.65 16.136L458.287 15.204L457.65 15.4519V16.136H458.65ZM464.409 14.664L464.574 15.6504L464.583 15.6489L464.592 15.6473L464.409 14.664ZM482.905 16.968L482.334 17.7884L482.905 16.968ZM487.129 45V46H488.129V45H487.129ZM476.633 45L475.66 45.2305L475.843 46H476.633V45ZM476.057 42.568L477.031 42.3375L476.647 40.7173L475.397 41.8173L476.057 42.568ZM471.897 44.808L471.588 43.8569L471.581 43.8593L471.897 44.808ZM473.241 37.896L472.81 36.9939L472.802 36.9977L472.794 37.0016L473.241 37.896ZM475.673 36.168L476.403 36.8519L476.673 36.5634V36.168H475.673ZM475.673 32.392H476.673V31.392H475.673V32.392ZM465.689 44.64C463.891 44.64 462.229 44.3208 460.693 43.6908L459.934 45.5412C461.726 46.2765 463.648 46.64 465.689 46.64V44.64ZM460.702 43.6944C459.258 43.0866 458.11 42.145 457.238 40.8557L455.581 41.9763C456.672 43.5883 458.126 44.7801 459.925 45.5376L460.702 43.6944ZM457.238 40.8557C456.395 39.6096 455.938 37.9842 455.938 35.912H453.938C453.938 38.2772 454.461 40.321 455.581 41.9763L457.238 40.8557ZM455.938 35.912C455.938 32.958 456.908 30.7891 458.772 29.2613L457.503 27.7147C455.1 29.6855 453.938 32.466 453.938 35.912H455.938ZM458.781 29.2537C460.658 27.6766 463.605 26.8 467.801 26.8V24.8C463.379 24.8 459.883 25.7154 457.494 27.7223L458.781 29.2537ZM467.801 26.8H475.673V24.8H467.801V26.8ZM476.673 25.8V25.224H474.673V25.8H476.673ZM476.673 25.224C476.673 23.6953 476.011 22.4742 474.694 21.7294L473.709 23.4706C474.354 23.8351 474.673 24.3633 474.673 25.224H476.673ZM474.694 21.7294C473.466 21.0359 471.504 20.768 469.017 20.768V22.768C471.48 22.768 472.974 23.0548 473.709 23.4706L474.694 21.7294ZM469.017 20.768C465.415 20.768 461.859 21.3174 458.351 22.4135L458.948 24.3225C462.267 23.2853 465.622 22.768 469.017 22.768V20.768ZM459.65 23.368V16.136H457.65V23.368H459.65ZM459.012 17.068C460.464 16.5035 462.312 16.0274 464.574 15.6504L464.245 13.6776C461.899 14.0686 459.907 14.5739 458.287 15.204L459.012 17.068ZM464.592 15.6473C466.834 15.232 469.12 15.024 471.449 15.024V13.024C469 13.024 466.593 13.2427 464.227 13.6807L464.592 15.6473ZM471.449 15.024C476.146 15.024 479.741 15.9813 482.334 17.7884L483.477 16.1476C480.438 14.0294 476.395 13.024 471.449 13.024V15.024ZM482.334 17.7884C484.816 19.5181 486.129 22.2828 486.129 26.312H488.129C488.129 21.8078 486.627 18.3432 483.477 16.1476L482.334 17.7884ZM486.129 26.312V45H488.129V26.312H486.129ZM487.129 44H476.633V46H487.129V44ZM477.607 44.7695L477.031 42.3375L475.084 42.7985L475.66 45.2305L477.607 44.7695ZM475.397 41.8173C474.456 42.6456 473.198 43.3337 471.588 43.857L472.207 45.759C474.01 45.1729 475.526 44.3677 476.718 43.3187L475.397 41.8173ZM471.581 43.8593C470.052 44.3692 468.097 44.64 465.689 44.64V46.64C468.231 46.64 470.415 46.3561 472.214 45.7567L471.581 43.8593ZM469.785 39.6C471.261 39.6 472.576 39.3469 473.689 38.7904L472.794 37.0016C472.03 37.3838 471.041 37.6 469.785 37.6V39.6ZM473.673 38.7981C474.748 38.2838 475.665 37.6387 476.403 36.8519L474.944 35.4841C474.402 36.0627 473.697 36.5695 472.81 36.9939L473.673 38.7981ZM476.673 36.168V32.392H474.673V36.168H476.673ZM475.673 31.392H469.849V33.392H475.673V31.392ZM469.849 31.392C468.422 31.392 467.167 31.6695 466.253 32.3914C465.295 33.1488 464.882 34.2577 464.882 35.528H466.882C466.882 34.7076 467.129 34.2485 467.494 33.9606C467.903 33.6372 468.632 33.392 469.849 33.392V31.392ZM464.882 35.528C464.882 36.7785 465.291 37.8717 466.239 38.6179C467.142 39.3281 468.38 39.6 469.785 39.6V37.6C468.588 37.6 467.875 37.3599 467.476 37.0461C467.123 36.7683 466.882 36.3255 466.882 35.528H464.882ZM500.913 33.224H499.913V34.224H500.913V33.224ZM501.936 27.72L502.788 28.2441L502.793 28.237L502.797 28.2298L501.936 27.72ZM505.073 24.136L505.733 24.8872L505.737 24.8834L505.073 24.136ZM508.145 21.64L508.726 22.4537L508.738 22.4448L508.751 22.4354L508.145 21.64ZM510.257 19.656L509.48 19.0254L509.476 19.0313L510.257 19.656ZM509.424 14.28L508.936 15.1525L508.956 15.1639L508.977 15.1744L509.424 14.28ZM498.801 14.088L499.049 15.0567L499.057 15.0545L499.066 15.0522L498.801 14.088ZM494.513 15.816H493.513V17.593L495.031 16.6708L494.513 15.816ZM494.513 5.832L494.056 4.94218L493.513 5.22099V5.832H494.513ZM500.272 3.848L500.483 4.82552L500.272 3.848ZM519.281 6.408L518.651 7.18527L518.657 7.19006L519.281 6.408ZM517.809 25.736L517.173 24.9636L517.173 24.9641L517.809 25.736ZM513.969 28.936L514.614 29.6994L513.969 28.936ZM512.305 33.224V34.224H513.305V33.224H512.305ZM500.337 45H499.337V46H500.337V45ZM500.337 36.488V35.488H499.337V36.488H500.337ZM512.88 36.488H513.88V35.488H512.88V36.488ZM512.88 45V46H513.88V45H512.88ZM501.913 33.224V32.072H499.913V33.224H501.913ZM501.913 32.072C501.913 30.3982 502.232 29.1472 502.788 28.2441L501.085 27.1959C500.275 28.5114 499.913 30.1618 499.913 32.072H501.913ZM502.797 28.2298C503.409 27.1964 504.375 26.0806 505.733 24.8872L504.412 23.3848C502.954 24.6661 501.829 25.9396 501.076 27.2102L502.797 28.2298ZM505.737 24.8834C506.872 23.8745 507.867 23.0668 508.726 22.4537L507.563 20.8263C506.63 21.4932 505.577 22.3495 504.408 23.3886L505.737 24.8834ZM508.751 22.4354C509.689 21.7203 510.459 21.0033 511.037 20.2807L509.476 19.0313C509.03 19.5887 508.392 20.1944 507.538 20.8446L508.751 22.4354ZM511.033 20.2866C511.749 19.4049 512.089 18.3428 512.089 17.16H510.089C510.089 17.9399 509.873 18.5417 509.48 19.0254L511.033 20.2866ZM512.089 17.16C512.089 16.3421 511.922 15.5793 511.538 14.9157C511.152 14.2465 510.58 13.7397 509.872 13.3856L508.977 15.1744C509.378 15.375 509.639 15.6255 509.807 15.9163C509.978 16.2127 510.089 16.6126 510.089 17.16H512.089ZM509.913 13.4075C508.611 12.6782 506.641 12.384 504.177 12.384V14.384C506.576 14.384 508.105 14.6871 508.936 15.1525L509.913 13.4075ZM504.177 12.384C502.215 12.384 500.333 12.6293 498.535 13.1238L499.066 15.0522C500.681 14.608 502.383 14.384 504.177 14.384V12.384ZM498.552 13.1193C496.814 13.5651 495.289 14.1747 493.994 14.9612L495.031 16.6708C496.125 16.0066 497.459 15.4643 499.049 15.0567L498.552 13.1193ZM495.513 15.816V5.832H493.513V15.816H495.513ZM494.969 6.72181C496.542 5.91501 498.377 5.27983 500.483 4.82552L500.062 2.87048C497.816 3.35483 495.811 4.04232 494.056 4.94218L494.969 6.72181ZM500.483 4.82552C502.577 4.37404 504.957 4.144 507.633 4.144V2.144C504.846 2.144 502.32 2.38329 500.062 2.87048L500.483 4.82552ZM507.633 4.144C512.585 4.144 516.208 5.20734 518.651 7.18524L519.91 5.63075C516.977 3.25665 512.835 2.144 507.633 2.144V4.144ZM518.657 7.19006C521.127 9.15808 522.377 11.8446 522.377 15.368H524.377C524.377 11.2967 522.895 8.00992 519.904 5.62594L518.657 7.19006ZM522.377 15.368C522.377 17.5943 521.951 19.3206 521.175 20.6135L522.89 21.6425C523.906 19.9487 524.377 17.835 524.377 15.368H522.377ZM521.175 20.6135C520.357 21.9766 519.04 23.4291 517.173 24.9636L518.444 26.5084C520.417 24.8856 521.916 23.2661 522.89 21.6425L521.175 20.6135ZM517.173 24.9641C515.72 26.1608 514.436 27.2304 513.323 28.1726L514.614 29.6994C515.72 28.7643 516.996 27.7005 518.444 26.5079L517.173 24.9641ZM513.323 28.1726C511.997 29.2943 511.305 30.7432 511.305 32.456H513.305C513.305 31.3528 513.721 30.4551 514.614 29.6994L513.323 28.1726ZM511.305 32.456V33.224H513.305V32.456H511.305ZM512.305 32.224H500.913V34.224H512.305V32.224ZM501.337 45V36.488H499.337V45H501.337ZM500.337 37.488H512.88V35.488H500.337V37.488ZM511.88 36.488V45H513.88V36.488H511.88ZM512.88 44H500.337V46H512.88V44Z" fill="#561376" mask="url(#path-1-outside-1_22_2)"/>
</g>
<defs>
<filter id="filter0_d_22_2" x="0.600098" y="0.839966" width="524.776" height="46.8" filterUnits="userSpaceOnUse" color-interpolation-filters="sRGB">
<feFlood flood-opacity="0" result="BackgroundImageFix"/>
<feColorMatrix in="SourceAlpha" type="matrix" values="0 0 0 0 0 0 0 0 0 0 0 0 0 0 0 0 0 0 127 0" result="hardAlpha"/>
<feOffset dx="2" dy="2"/>
<feComposite in2="hardAlpha" operator="out"/>
<feColorMatrix type="matrix" values="0 0 0 0 0.337255 0 0 0 0 0.0745098 0 0 0 0 0.462745 0 0 0 1 0"/>
<feBlend mode="normal" in2="BackgroundImageFix" result="effect1_dropShadow_22_2"/>
<feBlend mode="normal" in="SourceGraphic" in2="effect1_dropShadow_22_2" result="shape"/>
</filter>
</defs>
</svg>
