<svg width="100" height="100" viewBox="0 0 100 100" fill="none" xmlns="http://www.w3.org/2000/svg">
<rect width="100" height="100" fill="#3D1E4C"/>
<path fill-rule="evenodd" clip-rule="evenodd" d="M49.8739 82.9607C47.2291 82.9607 45.0885 80.8222 45.0885 78.1832C45.0885 75.5377 47.2291 73.3992 49.8739 73.3992C52.5187 73.3992 54.6625 75.5377 54.6625 78.1832C54.6625 80.8222 52.5187 82.9607 49.8739 82.9607Z" fill="#9D45C7"/>
<path fill-rule="evenodd" clip-rule="evenodd" d="M63.0497 50.2962C63.0497 55.523 59.39 60.0406 54.2899 61.6385V70.5118H45.522V61.6385C40.4203 60.0406 36.8553 55.523 36.8553 50.2962V22.1329H45.522V50.2962C45.522 52.5085 47.5454 54.2844 49.9541 54.2844C52.3613 54.2844 54.2899 52.5085 54.2899 50.2962V22.1329H63.0497V50.2962Z" fill="#9D45C7"/>
</svg>
