<svg width="107" height="107" viewBox="0 0 107 107" fill="none" xmlns="http://www.w3.org/2000/svg">
<rect width="107" height="107" fill="#3D1E4C"/>
<path d="M49.9877 61.4337C50.0359 61.4407 50.0465 61.4419 50.0946 61.4489C50.8874 61.557 51.6673 61.7003 52.2639 61.9669C52.8171 62.2112 53.1412 62.5201 53.4372 63.0709C53.887 63.906 53.9164 65.0758 53.51 65.9613C53.2058 66.6202 52.5399 67.1734 51.9303 67.4659C51.2985 67.7724 50.6748 67.918 49.9607 68.0003C48.7111 68.1377 47.3616 67.8793 46.2376 67.3355C45.5728 67.0102 44.7601 66.4511 44.3502 65.73C44.0483 65.2014 44.0589 64.5155 44.4253 64.0129C45.0102 63.213 46.2611 63.0369 47.2042 63.0697C47.923 63.0979 49.2173 63.3199 49.8996 63.563C50.0887 63.6312 50.7864 63.9036 50.9085 64.0281C50.9943 64.115 51.0495 64.2407 51.0119 64.357C50.8557 64.8338 49.6976 65.0852 49.3629 65.1357C48.4668 65.2731 48.0017 64.9337 46.9834 64.532C46.7309 64.4333 46.3938 64.3229 46.1366 64.2994C45.6738 64.256 45.1159 64.3852 45.0279 64.889C44.9844 65.1486 45.2886 65.3929 45.5211 65.4951C46.0673 65.73 46.5112 65.8145 47.0492 65.8216C48.6371 65.8474 50.4223 65.5867 51.7213 64.6659C51.8986 64.539 52.0736 64.3535 52.076 64.1186C52.0819 63.6452 51.2527 63.3563 51.2527 63.3563C50.3777 62.9911 48.7604 62.8137 47.9277 62.7456C47.0538 62.6704 45.6785 62.5565 45.3473 62.5083C45.0079 62.4602 44.6379 62.3909 44.3431 62.2593C44.0472 62.1255 43.7582 61.8271 43.6725 61.4959C43.5198 60.8993 43.7148 60.1676 44.046 59.6907C44.9139 58.4422 46.947 57.9689 48.4668 57.781C49.9372 57.5978 52.3144 57.6001 53.7579 58.3671C53.981 58.4869 54.0949 58.5973 54.048 58.8357C53.954 59.2832 53.6181 59.5721 53.2094 59.6978C52.7818 59.834 51.8975 59.8869 51.5087 59.9115C49.7681 60.009 47.6634 59.9585 46.005 60.4107C45.8747 60.4483 45.6503 60.5082 45.5775 60.5892C45.3179 60.8711 46.0591 60.951 46.2176 60.9838C46.2646 60.9956 46.274 60.9968 46.3233 61.0026L49.9877 61.4337ZM39.6299 53.6703C39.6299 53.6703 39.9129 53.2451 40.1502 52.9233C40.5824 52.3361 41.3646 51.5221 41.953 51.0183C42.1327 50.8644 42.3453 50.6906 42.3453 50.6906C42.3453 50.6906 42.0129 50.7247 41.825 50.7634C41.3787 50.8503 40.7233 51.2861 40.3957 51.5668C39.8554 52.0295 39.2611 52.7812 39.5301 53.4483C39.57 53.5423 39.6299 53.6703 39.6299 53.6703ZM42.6331 54.4736C43.4869 54.4149 44.2856 54.1694 45.0302 53.756C45.7596 53.3473 46.833 52.551 46.7226 51.6149C46.6886 51.3119 46.4901 51.0829 46.2399 50.976C45.9146 50.8351 45.7443 50.8574 45.3285 50.9819C45.0267 51.07 44.8904 51.124 44.605 51.2872C43.7676 51.7735 42.5814 52.8141 41.9366 53.6456C41.7874 53.8418 41.6371 54.0602 41.5196 54.2105C41.4457 54.3033 41.3881 54.3879 41.3951 54.4102C41.4198 54.5042 42.2995 54.496 42.6331 54.4736ZM40.4603 56.0686C40.3722 56.1614 40.2794 56.3857 40.1831 56.549C40.1314 56.6359 40.0363 56.7475 39.9728 56.7933C39.7509 56.9565 39.5629 56.9647 39.348 56.7756C39.0473 56.5102 38.8735 56.098 38.8606 55.6986C38.8547 55.5236 38.8841 55.331 38.8512 55.1842C38.796 54.9352 38.5482 54.6792 38.4143 54.4419C38.2569 54.1624 38.1301 53.6738 38.1136 53.359C38.0596 52.3772 38.5775 51.4716 39.2505 50.7575C39.9282 50.0352 40.8138 49.4362 41.778 49.0275C42.6894 48.6435 44.0248 48.3815 45.0255 48.7292C45.3508 48.8408 45.8054 49.1179 46.0332 49.408C46.0814 49.4679 46.1213 49.5337 46.1706 49.5654C46.2153 49.5936 46.3315 49.6054 46.4243 49.6218C46.7438 49.677 47.203 49.919 47.3909 50.0799C47.7679 50.4052 47.9747 50.7164 48.0698 51.1674C48.2612 52.0753 47.7386 53.0713 47.1431 53.6773C46.1237 54.7203 45.1159 55.4543 43.8123 55.9652C43.2391 56.1896 42.3465 56.3986 41.697 56.3399C41.495 56.3235 41.2883 56.2694 41.091 56.2565C40.9911 56.2483 40.6235 56.1532 40.5847 56.1261C40.5342 56.0886 40.4708 56.0569 40.4603 56.0686ZM41.6253 58.0817C41.6653 58.0887 41.7264 58.1063 41.7792 58.1263C42.2361 58.3001 42.4252 58.723 42.5379 59.188C42.7987 60.2674 42.9102 62.6563 42.9537 63.5912C42.9854 64.2924 43.003 64.983 43.0324 65.6771C43.0571 66.2644 43.104 67.0454 42.9819 67.5951C42.9373 67.7936 42.8045 68.0226 42.6154 68.1412C42.3982 68.2798 41.9037 68.2904 41.6324 68.2352C40.9629 68.0966 40.7457 67.6655 40.6493 67.0043C40.4227 65.4246 40.5319 62.3228 40.6658 61.0144C40.7104 60.5822 40.8737 59.1974 41.0992 58.6161C41.1755 58.4211 41.3388 58.0265 41.6253 58.0817ZM21.2538 60.7114C21.2538 60.7114 20.2566 60.7818 19.5707 60.8582C18.6981 60.9521 17.0585 61.2352 16.1119 61.5734C15.8276 61.6756 15.2509 61.9164 15.2016 62.2088C15.1488 62.5119 15.3367 62.7479 15.5457 62.9922C15.6667 63.1343 16.3503 63.7921 16.5417 63.9518C17.3451 64.6224 18.9741 65.6571 20.1744 66.1598C20.5867 66.3301 21.269 66.5744 21.269 66.5744C21.269 66.5744 21.2185 64.633 21.2279 62.7197C21.2326 61.7097 21.2538 60.7114 21.2538 60.7114ZM39.5277 61.4842C39.5853 62.0057 39.4502 62.9922 39.4279 63.1226C39.3856 63.4221 39.1589 64.1139 39.1213 64.1984C38.9393 64.6189 38.7584 64.963 38.5681 65.3072C38.2416 65.8956 37.4641 66.8281 37.0025 67.2263C35.2866 68.7085 32.6311 69.5529 30.3526 69.8313C28.8069 70.018 27.0299 69.991 25.3927 69.688C24.8289 69.5858 23.9903 69.392 23.9903 69.392C23.9903 69.392 23.9927 69.7279 23.9657 69.9628C23.9528 70.0709 23.8717 70.3539 23.8259 70.4456C23.7073 70.691 23.5112 70.819 23.2269 70.8731C22.884 70.9365 22.5199 70.9576 22.2028 70.8226C21.6825 70.6029 21.4957 70.1167 21.4041 69.5541C21.3313 69.1043 21.2538 68.3233 21.2538 68.3233C21.2538 68.3233 20.8638 68.1389 20.5397 67.9768C19.5425 67.4858 18.5947 66.8892 17.7655 66.2773C17.5353 66.1058 16.5488 65.2801 16.3315 65.0746C15.7207 64.4944 15.1711 63.9177 14.7541 63.1778C14.4288 62.5999 14.336 62.0867 14.5827 61.4736C14.9233 60.6198 16.1471 59.9773 16.9857 59.6109C17.6011 59.3396 19.5132 58.7147 20.3071 58.5996C20.6818 58.5456 21.2643 58.4422 21.2996 58.4188C21.3137 58.407 21.3242 58.3976 21.3348 58.3859C21.3536 58.36 21.3841 57.5144 21.3783 57.2055C21.3701 56.9013 21.6038 54.9047 21.6778 54.483C21.7165 54.2552 21.8892 53.3755 22.0665 53.1453C22.1816 52.9891 22.386 53.002 22.5528 53.1042C23.4642 53.6703 23.7402 55.6352 23.8083 56.6347C23.8494 57.2443 23.8694 58.1604 23.8694 58.1604C23.8694 58.1604 24.9147 58.1298 25.5571 58.1474C26.1819 58.1615 26.8702 58.2602 27.5185 58.3636C28.3489 58.4963 29.9662 58.8498 30.8952 59.3196C31.6598 59.7072 32.375 60.3602 32.6064 61.0508C32.8214 61.6838 32.7896 62.1219 32.462 62.6939C32.0932 63.3387 31.3955 63.8191 30.6885 63.859C30.4782 63.8707 29.6855 63.7662 29.4423 63.5771C29.3472 63.502 29.3519 63.3657 29.4212 63.2741C29.447 63.2412 29.817 63.0451 30.0366 62.93C30.1459 62.8701 30.2363 62.8067 30.322 62.728C30.5041 62.5682 30.6673 62.3921 30.6485 62.1854C30.6239 61.9176 30.3397 61.752 30.0695 61.6463C28.8022 61.1424 26.2724 60.7255 25.0497 60.6526C24.5717 60.6245 23.8905 60.601 23.8905 60.601L24.035 67.3519C24.035 67.3519 24.5976 67.4588 25.0415 67.5305C25.2964 67.5692 26.3746 67.6655 26.6611 67.6726C28.8433 67.7301 31.2781 67.5352 33.2806 66.5897C34.1591 66.1763 34.966 65.6607 35.5767 64.9642C36.3812 64.0422 36.8029 62.7796 36.6913 61.4607C36.5692 60.0208 35.5556 58.3107 34.7463 57.2701C32.6076 54.5194 28.942 52.2574 25.7169 50.9314C22.4247 49.5784 19.1702 48.7997 15.6749 48.6693C14.7741 48.6364 12.8104 48.681 11.8167 48.9559C11.6746 48.9958 11.5325 49.044 11.3998 49.0733C11.2953 49.0992 11.132 49.1673 11.0874 49.2037C11.0627 49.2237 11.038 49.2518 11.038 49.2518C11.038 49.2518 11.0991 49.2859 11.1578 49.3106C11.2635 49.3564 11.7052 49.3834 11.9354 49.4257C12.1409 49.4644 12.3535 49.5725 12.438 49.7216C12.5179 49.8649 12.5285 49.9765 12.4322 50.0963C12.2067 50.37 11.3599 50.3242 10.9875 50.2643C10.6 50.202 10.1172 50.0834 10.0292 49.7463C9.9258 49.3493 10.1149 48.9594 10.3193 48.5988C10.7292 47.8789 11.3152 47.5042 12.175 47.2693C13.3953 46.9334 14.9374 46.6985 16.0895 46.655C18.6981 46.5564 21.1669 47.0133 23.6955 47.7802C25.1425 48.2171 27.0358 48.9512 28.4229 49.6195C29.4177 50.0987 30.9856 50.9819 31.8665 51.5574C32.1437 51.7406 33.7692 52.9351 34.0217 53.1453C34.5479 53.5763 35.2373 54.1953 35.7364 54.6897C36.7019 55.6458 37.9022 57.1115 38.4848 58.2755C38.6245 58.5538 38.7337 58.8287 38.9146 59.1516C38.9769 59.262 39.2435 59.9245 39.2881 60.1147C39.3316 60.3038 39.3962 60.5822 39.4056 60.5927C39.4138 60.6961 39.5371 61.2645 39.5277 61.4842ZM72.3242 59.9914C71.1028 60.2733 67.8905 60.4295 67.8905 60.4295L67.4853 61.6979C67.4853 61.6979 69.0908 61.5605 70.2583 61.6827C70.2583 61.6827 70.6365 61.6392 70.6811 62.1125C70.6964 62.5541 70.6435 63.0286 70.6435 63.0286C70.6435 63.0286 70.6189 63.3152 70.2125 63.388C69.7721 63.4608 66.7524 63.5783 66.7524 63.5783L66.2638 65.232C66.2638 65.232 66.0818 65.6149 66.4893 65.5056C66.8675 65.4046 70.0316 64.8103 70.4439 64.8961C70.8855 65.0053 71.3741 65.5949 71.2331 66.1316C71.0652 66.7964 67.9058 68.8107 65.9831 68.6709C65.9831 68.6709 64.9719 68.7367 64.1181 67.3719C63.3229 66.0717 64.4199 63.6112 64.4199 63.6112C64.4199 63.6112 63.9172 62.4625 64.2813 62.0726C64.2813 62.0726 64.4986 61.8753 65.1305 61.8318L65.9045 60.2298C65.9045 60.2298 65.0224 60.2909 64.4986 59.6414C64.01 59.026 63.9689 58.7429 64.3436 58.5738C64.7441 58.3765 68.4167 57.7058 70.943 57.7904C70.943 57.7904 71.8215 57.7047 72.5826 59.2268C72.5826 59.2268 72.9514 59.8434 72.3242 59.9914ZM62.8202 66.1493C62.4961 66.9115 61.641 67.7243 60.5781 67.2181C59.5293 66.7118 57.858 63.2917 57.858 63.2917C57.858 63.2917 57.2238 62.0162 57.1016 62.0491C57.1016 62.0491 56.9642 61.8001 56.8808 63.1931C56.7939 64.5801 56.8973 67.2862 56.3441 67.7125C55.8203 68.14 55.1849 67.9697 54.856 67.4706C54.5565 66.9796 54.432 65.811 54.5953 63.7603C54.7867 61.705 55.2647 59.5181 55.8743 58.8381C56.4839 58.1615 56.9724 58.6525 57.1627 58.831C57.1627 58.831 57.9778 59.5698 59.3214 61.7379L59.5587 62.1395C59.5587 62.1395 60.7801 64.1879 60.907 64.1832C60.907 64.1832 61.0068 64.2771 61.0961 64.2102C61.2241 64.1738 61.1724 63.5161 61.1724 63.5161C61.1724 63.5161 60.9187 61.2833 59.8053 57.5038C59.8053 57.5038 59.6374 57.0329 59.7513 56.5912C59.864 56.1449 60.3115 56.354 60.3115 56.354C60.3115 56.354 62.038 57.2219 62.8766 60.0325C63.7093 62.8454 63.1491 65.3811 62.8202 66.1493ZM81.4019 64.465C80.6161 65.8369 78.3975 68.7073 75.4484 68.0296C74.4747 70.3904 73.6573 72.7793 73.1887 76.3533C73.1887 76.3533 73.0853 77.0474 72.5086 76.8066C71.9366 76.6069 70.9947 75.6556 70.8033 74.339C70.5977 72.6101 71.3682 69.6892 72.9397 66.3384C72.4804 65.5926 72.168 64.5273 72.4358 63.011C72.4358 63.011 72.8304 60.1946 75.6598 57.6553C75.6598 57.6553 75.9992 57.3629 76.1954 57.4521C76.4115 57.5426 76.3116 58.4599 76.1402 58.905C75.9616 59.3478 74.7026 61.5288 74.7026 61.5288C74.7026 61.5288 73.9168 63.0016 74.1376 64.1632C75.621 61.8823 78.9942 57.2818 81.0848 58.7323C81.7871 59.235 82.1113 60.3273 82.1113 61.5053C82.1124 62.5424 81.8634 63.6417 81.4019 64.465ZM80.7923 60.8523C80.7923 60.8523 80.676 59.9456 79.7893 60.9451C79.027 61.7884 77.6506 63.3681 76.5442 65.5139C77.7058 65.3835 78.8262 64.7528 79.1656 64.4322C79.7153 63.9424 80.999 62.6164 80.7923 60.8523ZM97.6451 60.6468H92.2413C92.1332 58.8099 91.9112 57.0211 91.5636 55.1783C91.5283 54.9881 91.3616 54.8495 91.169 54.8495H89.9228C89.8148 54.8495 89.7114 54.8976 89.6409 54.9834C89.5705 55.0703 89.5435 55.1795 89.5634 55.2876C89.9169 57.0704 90.1413 58.8251 90.2517 60.6491H85.0522C84.8103 60.6491 84.6129 60.8453 84.6129 61.086V62.21C84.6129 62.452 84.8103 62.6493 85.0522 62.6493H90.3257C90.3292 62.9265 90.3315 63.1754 90.3315 63.408C90.3315 65.0276 90.2622 66.3618 90.099 67.8664C90.0861 67.9826 90.1237 68.0989 90.2035 68.1835C90.2799 68.2692 90.3903 68.3186 90.5042 68.3186H91.6599C91.8854 68.3186 92.0721 68.1494 92.0945 67.9239C92.2518 66.4088 92.32 65.0582 92.32 63.4068C92.32 63.1743 92.3176 62.9253 92.3141 62.6481H97.6439C97.8859 62.6481 98.0832 62.4508 98.0832 62.2088V61.0849C98.0844 60.8429 97.887 60.6468 97.6451 60.6468Z" fill="#9D45C7"/>
<path d="M25.388 45.5897C25.3116 45.7036 25.2929 45.8434 25.3363 45.9738C25.3821 46.1041 25.4819 46.204 25.6111 46.2498L26.5801 46.5763C26.6388 46.5951 26.6964 46.6045 26.7539 46.6045C26.9336 46.6045 27.1016 46.5152 27.2014 46.366C30.3749 41.7045 34.6688 37.824 39.6217 35.1426C44.7342 32.3743 50.5268 30.9097 56.3746 30.9097C63.438 30.9097 70.2536 32.9933 76.0838 36.9349C81.773 40.779 86.1915 46.1429 88.8611 52.4476C88.9409 52.6367 89.1253 52.7576 89.3297 52.7576H90.4866C90.6193 52.7576 90.745 52.6907 90.8201 52.5791C90.8953 52.4675 90.9106 52.3266 90.8601 52.2021C88.107 45.4241 83.4514 39.6468 77.3945 35.4961C71.1944 31.2468 63.9254 29 56.3746 29C43.8909 28.9977 32.3057 35.2001 25.388 45.5897Z" fill="#9D45C7"/>
</svg>
