<svg width="107" height="107" viewBox="0 0 107 107" fill="none" xmlns="http://www.w3.org/2000/svg">
<rect width="107" height="107" fill="#9D45C7"/>
<g clip-path="url(#clip0_106_9)">
<path fill-rule="evenodd" clip-rule="evenodd" d="M41.7158 51.8944H35.4799V42.7864H31.4422V51.8944H25.054V28.3936H31.4422V37.1608H35.4799V28.3936H41.7158V51.8944ZM70.3128 52C76.701 52 81.9151 46.5568 81.9151 39.9352C81.9151 33.208 76.701 28 70.3128 28C63.8472 28 60.5758 32.8168 59.7837 34.7776C59.7837 31.8736 56.9458 28.3912 53.6509 28.3912H42.9953V51.8944H52.9104C56.9482 51.8944 59.7837 48.3616 59.7837 45.2728C60.6789 47.1832 63.8472 52 70.3128 52ZM52.1183 42.448C53.037 42.448 53.7798 43.3648 53.7798 44.4112C53.7798 45.5104 53.0393 46.4272 52.1183 46.4272H48.95V42.448H52.1183ZM52.1183 33.628C53.037 33.628 53.7798 34.5448 53.7798 35.5912C53.7798 36.6376 53.0393 37.5544 52.1183 37.5544H48.95V33.628H52.1183ZM56.3084 39.9352C57.0489 39.8824 58.2511 39.0184 58.7104 38.4952C58.5323 39.124 58.5323 41.1136 58.7104 41.74C58.1995 40.9816 57.0489 40.0648 56.3084 39.9352ZM64.487 39.9352C64.487 36.6256 67.114 33.9472 70.3503 33.9688C71.12 33.972 71.8815 34.1318 72.5904 34.4388C73.2994 34.7458 73.9418 35.194 74.4803 35.7573C75.0187 36.3206 75.4426 36.9879 75.7273 37.7203C76.012 38.4527 76.1518 39.2358 76.1386 40.024C76.0917 43.3048 73.5022 45.928 70.3128 45.928C67.0929 45.928 64.487 43.2592 64.487 39.9352ZM70.3128 44.6464C72.7921 44.6464 74.8872 42.5536 74.8872 39.9352C74.8872 37.3168 72.7921 35.2504 70.3128 35.2504C67.7561 35.2504 65.7126 37.3192 65.7126 39.9352C65.7126 42.5512 67.7561 44.6464 70.3128 44.6464Z" fill="#F9F9F9"/>
</g>
<path d="M45.4069 61.8892C45.2767 56.0782 41.3088 53.0024 36.4312 53.0024C33.752 53.0024 31.3476 53.9305 29.7035 55.7304C28.0595 53.9281 25.6551 53 22.9782 53C18.0983 53 14.1281 56.0806 14.0025 61.899C14.0005 61.9119 13.9997 61.9251 14.0001 61.9382V75.1863C14.0001 75.7708 14.2248 76.3314 14.6246 76.7447C15.0244 77.158 15.5667 77.3902 16.1321 77.3902H18.1457C18.2399 77.3902 18.3303 77.3515 18.397 77.2826C18.4636 77.2137 18.501 77.1203 18.501 77.0229V61.9382H18.5034C18.5887 59.0731 20.5596 57.5548 22.9782 57.5548C25.3969 57.5548 27.3678 59.0731 27.4531 61.9382H27.4555V75.1863C27.4555 75.7708 27.6801 76.3314 28.0799 76.7447C28.4797 77.158 29.022 77.3902 29.5875 77.3902H31.601C31.6953 77.3902 31.7856 77.3515 31.8523 77.2826C31.9189 77.2137 31.9564 77.1203 31.9564 77.0229V61.9382H31.9587C32.044 59.0731 34.0149 57.5548 36.4336 57.5548C38.8522 57.5548 40.8231 59.0731 40.9084 61.9382H40.9108V75.1863C40.9108 75.7708 41.1354 76.3314 41.5352 76.7447C41.9351 77.158 42.4773 77.3902 43.0428 77.3902H45.0563C45.103 77.3902 45.1492 77.3807 45.1923 77.3622C45.2354 77.3438 45.2746 77.3167 45.3076 77.2826C45.3406 77.2485 45.3668 77.208 45.3846 77.1634C45.4025 77.1189 45.4117 77.0711 45.4117 77.0229V61.9382C45.4114 61.9217 45.4098 61.9054 45.4069 61.8892Z" fill="#F9F9F9"/>
<path d="M90.7478 53.3918H87.3318C86.8664 53.3917 86.408 53.5097 85.997 53.7356C85.586 53.9615 85.235 54.2883 84.9748 54.6873L81.1988 60.4763C81.0852 60.651 80.9318 60.7941 80.7521 60.8931C80.5724 60.9921 80.3719 61.0438 80.1683 61.0438C79.9647 61.0438 79.7642 60.9921 79.5845 60.8931C79.4048 60.7941 79.2514 60.651 79.1378 60.4763L75.3618 54.6873C75.1016 54.2883 74.7506 53.9615 74.3396 53.7356C73.9286 53.5097 73.4702 53.3917 73.0048 53.3918H69.5888C69.5405 53.3918 69.4931 53.4053 69.4517 53.4309C69.4103 53.4566 69.3765 53.4935 69.3538 53.5375C69.3312 53.5816 69.3205 53.6312 69.3231 53.6811C69.3257 53.7309 69.3414 53.7791 69.3685 53.8204L76.1128 64.1568C76.3502 64.5212 76.477 64.9505 76.477 65.3898C76.477 65.8291 76.3502 66.2584 76.1128 66.6228L69.3685 76.9592C69.3415 77.0006 69.3259 77.0487 69.3233 77.0985C69.3208 77.1483 69.3314 77.1979 69.3541 77.242C69.3767 77.286 69.4105 77.3229 69.4519 77.3485C69.4932 77.3742 69.5406 77.3878 69.5888 77.3878H73.0048C73.4702 77.388 73.9286 77.2699 74.3396 77.044C74.7506 76.8182 75.1016 76.4914 75.3618 76.0924L79.1378 70.3034C79.2514 70.1287 79.4048 69.9855 79.5845 69.8865C79.7642 69.7876 79.9647 69.7358 80.1683 69.7358C80.3719 69.7358 80.5724 69.7876 80.7521 69.8865C80.9318 69.9855 81.0852 70.1287 81.1988 70.3034L84.9748 76.0924C85.235 76.4914 85.586 76.8182 85.997 77.044C86.408 77.2699 86.8664 77.388 87.3318 77.3878H90.7478C90.7961 77.3879 90.8435 77.3744 90.8849 77.3487C90.9263 77.323 90.9601 77.2862 90.9828 77.2421C91.0054 77.198 91.016 77.1484 91.0135 77.0986C91.0109 77.0487 90.9952 77.0006 90.9681 76.9592L84.2238 66.6228C83.9864 66.2584 83.8596 65.8291 83.8596 65.3898C83.8596 64.9505 83.9864 64.5212 84.2238 64.1568L90.9681 53.8204C90.9952 53.7791 91.0109 53.7309 91.0135 53.6811C91.016 53.6312 91.0054 53.5816 90.9828 53.5375C90.9601 53.4935 90.9263 53.4566 90.8849 53.4309C90.8435 53.4053 90.7961 53.3918 90.7478 53.3918Z" fill="#F9F9F9"/>
<path d="M67.7978 53.3918H65.7842C65.2969 53.3917 64.8241 53.5641 64.4448 53.8805C64.0655 54.1968 63.8025 54.638 63.6996 55.1305C61.904 53.7224 59.663 53 57.2325 53C51.3363 53 46.5559 57.2413 46.5559 65.2441C46.5559 73.2468 51.3363 77.4882 57.2325 77.4882C59.6464 77.4882 61.8732 76.778 63.6617 75.3871C63.7107 75.9342 63.9554 76.4428 64.3479 76.8133C64.7405 77.1838 65.2527 77.3895 65.7842 77.3902H67.7978C67.892 77.3902 67.9824 77.3515 68.0491 77.2826C68.1157 77.2137 68.1531 77.1203 68.1531 77.0229V53.7591C68.1531 53.6617 68.1157 53.5683 68.0491 53.4994C67.9824 53.4305 67.892 53.3918 67.7978 53.3918ZM57.2325 72.9309C53.7123 72.9309 50.8578 70.269 50.8578 65.2441C50.8578 60.2191 53.7123 57.5572 57.2325 57.5572C60.7527 57.5572 63.6072 60.2191 63.6072 65.2441C63.6072 70.269 60.7527 72.9309 57.2325 72.9309Z" fill="#F9F9F9"/>
<path d="M93.8288 53.4863H93.1584V55.5727H92.668V53.4863H92V53.0015H93.8288V53.4863Z" fill="white"/>
<path d="M96.7142 55.5725H96.2262V53.9061L95.5274 55.0986H95.4706L94.7717 53.9085V55.5713H94.2814V53H94.7859L95.499 54.2146L96.2097 53H96.7142V55.5737V55.5725Z" fill="white"/>
<defs>
<clipPath id="clip0_106_9">
<rect width="57" height="24" fill="#F9F9F9" transform="translate(25 28)"/>
</clipPath>
</defs>
</svg>
