<svg width="107" height="107" viewBox="0 0 107 107" fill="none" xmlns="http://www.w3.org/2000/svg">
<g clip-path="url(#clip0_90_9)">
<g filter="url(#filter0_d_90_9)">
<rect width="107" height="107" fill="#3D1E4C"/>
<path d="M60.1104 16.0438L60.0884 32.1891L60.0665 48.3343L58.7269 44.5918L56.9921 80.4943C58.7049 85.2596 59.6053 87.8054 59.6273 87.8054C59.6273 87.8054 60.6155 87.8707 61.7793 87.9359C65.3369 88.11 69.7289 88.4799 73.0668 88.8933C73.8354 88.9804 74.4942 89.0457 74.5601 89.0021C74.604 88.9586 74.6259 72.5305 74.604 52.4903L74.582 16.0438H60.1104Z" fill="#7A18A9"/>
<path d="M34 16V52.4683C34 72.5302 34.022 88.9583 34.0439 89.0018C34.0659 89.0236 35.3176 88.9148 36.8328 88.7407C38.3481 88.5666 40.4343 88.3708 41.4664 88.2838C43.0475 88.1532 47.8348 87.8486 48.3618 87.8486C48.5375 87.8486 48.5375 87.0217 48.5595 72.3996L48.5814 56.9507L49.7453 60.171C49.921 60.6715 49.9869 60.8238 50.1626 61.3242L51.8974 25.4217C51.5241 24.399 51.7217 24.9212 51.3045 23.768C49.899 19.8078 48.6912 16.4569 48.6473 16.3046L48.5595 16.0435L34 16Z" fill="#7A18A9"/>
<path d="M34 16V36.4753L48.5595 74.7496C48.5595 73.8792 48.5595 73.4005 48.5595 72.3996L48.5814 56.9507L49.7453 60.171C56.1357 78.144 59.5834 87.7833 59.6054 87.8051C59.6054 87.8051 60.5936 87.8704 61.7574 87.9356C65.315 88.1097 69.7069 88.4796 73.0449 88.893C73.8135 88.9801 74.4723 89.0453 74.5381 89.0018C74.5601 88.9801 74.5821 80.9292 74.5821 69.5709L60.1104 28.2721V32.1888L60.0885 48.334L58.7489 44.5915C57.4313 40.9359 56.5749 38.4772 51.3045 23.7462C49.899 19.7861 48.6912 16.4352 48.6473 16.2829L48.5595 16.0218L34 16Z" fill="url(#paint0_radial_90_9)"/>
<path d="M34 16L48.5814 56.9724V56.9507L49.7453 60.171C56.1576 78.144 59.5834 87.7833 59.6054 87.8051C59.6054 87.8051 60.5936 87.8704 61.7574 87.9356C65.315 88.1097 69.707 88.4796 73.0449 88.893C73.8135 88.9801 74.4723 89.0453 74.5162 89.0018L60.0446 48.3123L58.705 44.5697C57.3874 40.9142 56.531 38.4554 51.2606 23.7245C49.8551 19.7643 48.6473 16.4134 48.6034 16.2611L48.5156 16H41.2468H34Z" fill="#9D45C7"/>
</g>
</g>
<defs>
<filter id="filter0_d_90_9" x="-4" y="0" width="115" height="115" filterUnits="userSpaceOnUse" color-interpolation-filters="sRGB">
<feFlood flood-opacity="0" result="BackgroundImageFix"/>
<feColorMatrix in="SourceAlpha" type="matrix" values="0 0 0 0 0 0 0 0 0 0 0 0 0 0 0 0 0 0 127 0" result="hardAlpha"/>
<feOffset dy="4"/>
<feGaussianBlur stdDeviation="2"/>
<feComposite in2="hardAlpha" operator="out"/>
<feColorMatrix type="matrix" values="0 0 0 0 0 0 0 0 0 0 0 0 0 0 0 0 0 0 0.25 0"/>
<feBlend mode="normal" in2="BackgroundImageFix" result="effect1_dropShadow_90_9"/>
<feBlend mode="normal" in="SourceGraphic" in2="effect1_dropShadow_90_9" result="shape"/>
</filter>
<radialGradient id="paint0_radial_90_9" cx="0" cy="0" r="1" gradientUnits="userSpaceOnUse" gradientTransform="translate(53.6071 52.0813) rotate(-18.9388) scale(2.67233 97.1823)">
<stop stop-color="#010202"/>
<stop offset="1" stop-color="#010202" stop-opacity="0"/>
</radialGradient>
<clipPath id="clip0_90_9">
<rect width="107" height="107" fill="white"/>
</clipPath>
</defs>
</svg>
