<svg width="107" height="107" viewBox="0 0 107 107" fill="none" xmlns="http://www.w3.org/2000/svg">
<rect width="107" height="107" fill="#3D1E4C"/>
<path d="M45.9237 70.8843C45.579 70.7412 45.0139 70.1066 45.954 68.3397L48.1379 63.7721C48.2042 63.634 48.0448 63.4612 47.9452 63.5785L46.0358 65.4998C45.1323 66.4435 43.5996 69.0961 43.3028 69.587L40.983 73.4247C41.1553 73.4192 41.2995 73.5547 41.305 73.7271C41.3067 73.784 41.2931 73.8401 41.2653 73.8897L39.145 77.4537C38.6273 78.3375 39.5574 78.9554 39.6835 78.752C43.0161 73.3801 44.9545 73.8089 44.9545 73.8089L46.067 71.2308C46.1256 71.1016 46.0684 70.9494 45.9393 70.8907C45.9345 70.8883 45.9292 70.8864 45.9237 70.8843ZM53.5006 26C34.4464 26 19 41.4503 19 60.5093C18.9899 67.8874 21.3552 75.0725 25.7451 81C27.1924 80.3749 27.9967 79.4404 28.5711 78.7247L34.9949 70.507C35.1302 70.3338 35.3068 70.1976 35.5087 70.1107L36.4757 69.6945L47.0381 56.2933L48.5696 55.0939L51.7168 50.7122C51.7981 50.5988 51.8972 50.4991 52.0104 50.417L53.3835 49.4186C53.7228 49.1719 54.1809 49.168 54.5241 49.409L56.1903 50.5789C57.0744 51.1994 57.7908 52.0293 58.2763 52.9943L64.9506 64.7207C65.0595 64.9445 65.2447 65.122 65.4727 65.2213C66.7816 65.8731 67.5812 65.9882 69.2943 67.8496C70.0936 68.7175 73.5963 72.636 78.5053 78.7259C79.2187 79.7029 80.1738 80.4773 81.2766 80.9733C85.6532 75.0504 88.0103 67.8759 88 60.5093C88 41.4502 72.5543 26 53.5006 26ZM28.3042 62.4114L26.0673 61.6847L24.6854 63.587V61.236L22.4483 60.5092L24.6854 59.7823V57.4306L26.0673 59.3334L28.3042 58.6067L26.9221 60.5093L28.3042 62.4114ZM27.7739 70.1062L27.0473 72.3429L26.3207 70.1062H23.9697L25.8716 68.7238L25.1451 66.4873L27.0472 67.8697L28.9494 66.4873L28.2228 68.7238L30.125 70.1062H27.7739ZM28.2229 52.2934L28.9495 54.5299L27.0473 53.1475L25.1453 54.5299L25.8717 52.2934L23.9698 50.911H26.3209L27.0475 48.6745L27.7742 50.911H30.1253L28.2229 52.2934ZM31.9983 47.2341L30.6172 45.3313L28.3802 46.058L29.7622 44.1555L28.3802 42.2529L30.6172 42.9796L31.9991 41.077V43.4288L34.2361 44.1543L31.9991 44.8813V47.233L31.9983 47.2341ZM37.8781 39.0009L37.1516 41.2376L36.425 39.0011H34.0738L35.976 37.6187L35.2495 35.382L37.1516 36.7641L39.0535 35.3817L38.327 37.6202L40.2292 39.0026H37.878L37.8781 39.0009ZM45.2874 35.2246L43.9055 37.1274V34.7762L41.6684 34.0495L43.9055 33.3225V30.9708L45.2874 32.8736L47.5234 32.1469L46.1415 34.0495L47.5236 35.952L45.2874 35.2246ZM54.6762 33.0689L55.4028 35.3054L53.5006 33.923L51.5984 35.3054L52.3241 33.0698L50.4222 31.6874H52.7733L53.5001 29.4509L54.2267 31.6874H56.5778L54.6762 33.0689ZM63.0948 34.7762V37.1279L61.7134 35.2251L59.4766 35.952L60.8586 34.0495L59.4767 32.1469L61.7137 32.8736L63.0951 30.9708V33.3225L65.332 34.0495L63.0948 34.7762ZM78.6959 58.6067L80.9327 59.3334L82.3143 57.4306V59.7823L84.5514 60.5092L82.3143 61.236V63.5876L80.9327 61.6851L78.6959 62.4118L80.0794 60.5092L78.6959 58.6067ZM69.8493 41.2382L69.1223 39.0015H66.7713L68.6728 37.6191L67.9479 35.3823L69.8493 36.7647L71.7506 35.3826L71.0256 37.6191L72.9272 39.0015H70.5762L69.8493 41.2382ZM75.0027 47.2347V44.8831L72.7657 44.1561L75.0027 43.4307V41.0778L76.3841 42.9805L78.6211 42.2537L77.2397 44.1564L78.6211 46.0589L76.3841 45.3322L75.0027 47.2347ZM79.226 50.9117L79.9532 48.6752L80.6803 50.9117H83.0312L81.1298 52.2941L81.8568 54.5306L79.9535 53.1482L78.052 54.5306L78.779 52.2941L76.8756 50.9117H79.226ZM80.6801 70.1062L79.9531 72.3429L79.2258 70.1062H76.8749L78.7783 68.7238L78.0513 66.4873L79.9528 67.8697L81.8561 66.4873L81.1291 68.7238L83.0305 70.1062H80.6801ZM65.9968 80.453C66.1625 80.212 66.4318 79.5509 65.9263 78.3259L64.3997 74.2191C64.1925 73.6949 64.6463 73.3768 64.9507 73.7215C64.9507 73.7215 67.8361 77.0495 68.5817 78.4391L70.0046 80.802C71.2287 80.8812 74.6069 80.9733 77.8589 80.9733C77.5314 80.648 77.229 80.2984 76.9537 79.9276C71.4047 73.0459 67.8854 69.2178 67.8502 69.1799C66.7256 67.957 66.2058 67.722 65.348 67.3311C65.2238 67.2747 65.0891 67.2138 64.9505 67.1478V68.1925C64.959 68.2631 64.9085 68.3272 64.8379 68.3356C64.7808 68.3423 64.726 68.3104 64.704 68.2572L56.5458 53.9216L56.5231 53.8763C56.1829 53.2011 55.6814 52.6203 55.0632 52.1855L54.2674 51.6259L50.3754 60.6075C50.8404 60.6074 51.2176 60.9845 51.2179 61.4498C51.218 61.565 51.1945 61.6791 51.1486 61.7848L47.5527 70.1058H50.8536C52.1293 70.1058 53.3929 70.3543 54.5736 70.8381L55.4436 71.1949C55.4436 71.1949 52.8186 76.5974 52.8186 79.4421C52.8223 79.9595 52.8945 80.4739 53.0329 80.9724H59.0838L58.8036 79.2671C61.1772 79.7974 63.5786 80.1936 65.9967 80.4538V80.453H65.9968Z" fill="#9D45C7"/>
</svg>
