<svg width="107" height="107" viewBox="0 0 107 107" fill="none" xmlns="http://www.w3.org/2000/svg">
<rect width="107" height="107" fill="#3D1E4C"/>
<path d="M86.3758 34.2739L83.0418 35.626V37.7104H80.7426V40.6452H83.0418V46.0728C83.0418 48.9898 84.6876 50.7364 87.7613 50.7364H90.0272V47.6679H88.1839C86.9139 47.6679 86.374 46.9723 86.374 45.851V40.6452H90.5428L94.6993 50.7364H97.6018L103 37.6312H99.3977L96.1514 46.1397L92.9367 37.7104H86.3758V34.2739Z" fill="#9D45C7"/>
<path d="M41.4959 16C36.7031 16 31.9574 16.9476 27.5295 18.7887C23.1016 20.6298 19.0783 23.3283 15.6893 26.7302C12.3004 30.1321 9.61212 34.1708 7.77804 38.6156C5.94396 43.0605 4.99998 47.8244 5 52.6354C4.99998 57.4465 5.94396 62.2104 7.77804 66.6552C9.61212 71.1001 12.3004 75.1387 15.6893 78.5406C19.0783 81.9426 23.1016 84.6411 27.5295 86.4822C31.9574 88.3233 36.7031 89.2709 41.4959 89.2709C49.8014 89.2491 57.8511 86.3843 64.3155 81.1495C70.7798 75.9147 75.2721 68.6231 77.0502 60.4791C76.0957 60.8557 75.06 61.0688 73.9724 61.0688C69.3179 61.0688 65.5446 57.282 65.5446 52.6097C65.5446 47.9374 69.3179 44.1497 73.9724 44.1497C75.09 44.1497 76.154 44.3723 77.13 44.7689C75.3443 36.6157 70.8384 29.3192 64.3581 24.0874C57.8778 18.8557 49.8119 16.0024 41.4959 16ZM33.6242 40.1978V60.7487H28.8987V42.1147L33.6242 40.1978ZM60.4632 40.1978V44.4698H64.3895V48.8284H60.4632V54.0674C60.4632 55.674 61.1768 56.3901 62.777 56.3901H64.3895V60.7487H62.0425C60.0909 60.7487 58.4847 60.1742 57.3977 59.0872C56.3106 58.0001 55.7377 56.3987 55.7377 54.4522V48.8284H52.8298V44.4698H55.7377V42.1147L60.4632 40.1978ZM19.202 44.1506C23.5961 44.1506 27.0385 47.8737 27.0385 52.6259C27.0385 54.8982 26.2483 57.0159 24.813 58.5889C23.3781 60.1771 21.3379 61.078 19.202 61.0679C17.3791 61.0679 15.7882 60.5357 14.5591 59.4225V65.0206H9.83461V46.0627L13.6556 44.5136L14.3076 46.098C15.5532 44.8204 17.2276 44.1506 19.202 44.1506ZM50.9791 44.4726V53.3785C50.9882 56.1324 49.5304 58.6812 47.1562 60.0608C44.7819 61.4404 41.8533 61.4404 39.4791 60.0608C37.1048 58.6812 35.647 56.1324 35.6562 53.3785V46.5524L40.3494 44.6489V53.5148C40.3494 55.1603 41.6788 56.4949 43.3181 56.4949C44.9574 56.4949 46.2859 55.1603 46.2859 53.5148V46.3761L50.9791 44.4726ZM18.4798 48.7236C16.3082 48.7236 14.5477 50.4638 14.5477 52.6097C14.5477 54.7556 16.3082 56.4949 18.4798 56.4949C20.6517 56.4949 22.4118 54.7555 22.4118 52.6097C22.4118 50.4639 20.6513 48.7236 18.4798 48.7236ZM73.9724 48.7236C71.8347 48.7236 70.1011 50.4638 70.1011 52.6097C70.1011 54.7556 71.8347 56.4949 73.9724 56.4949C74.9989 56.4949 75.9827 56.085 76.7086 55.3564C77.4345 54.6277 77.8427 53.6402 77.8427 52.6097C77.8427 50.4638 76.1101 48.7236 73.9724 48.7236Z" fill="#9D45C7"/>
</svg>
