<svg width="107" height="107" viewBox="0 0 107 107" fill="none" xmlns="http://www.w3.org/2000/svg">
<g clip-path="url(#clip0_85_3)">
<rect width="134" height="134" fill="white"/>
<path d="M-3.60923 -2.05774C-3.60923 -15.3943 -17.048 -2.05774 -3.60923 -2.05774L-3.60913 111.859C-17.0479 111.859 -3.60913 125.196 -3.60913 111.859H110.217C110.217 125.196 123.656 111.859 110.217 111.859V-2.05774C123.656 -2.05774 110.217 -15.3943 110.217 -2.05774H-3.60923ZM47.8953 19.3848C48.1932 19.366 48.4943 19.4194 48.7732 19.5108C49.7778 19.844 50.2985 20.7151 50.2065 21.8411C50.1334 22.8004 49.4042 23.5775 48.4348 23.7253C48.0259 23.7978 47.6008 23.7978 47.1919 23.7253C46.1305 23.521 45.3471 22.7461 45.4202 21.416C45.5312 20.1046 46.406 19.3848 47.8953 19.3848ZM25.8575 25.5727C26.3443 25.5742 26.8424 25.6298 27.3542 25.7407C29.1413 26.1464 30.3112 27.3068 31.0721 28.895C31.462 29.7629 31.7208 30.7041 31.7966 31.6661C31.9266 33.2167 31.8903 34.7509 31.3894 36.2638C31.0347 37.4461 30.3663 38.5168 29.4538 39.3499C28.2082 40.457 26.7182 40.8626 25.08 40.6987C23.9075 40.5885 22.7749 40.1435 21.8434 39.4233C21.7134 39.5335 21.7694 39.6827 21.7694 39.8117V45.0759C21.7694 46.2206 21.7677 46.2201 20.5953 46.2201C19.9264 46.2201 19.2544 46.2012 18.5856 46.2201C18.1577 46.2389 17.7874 46.1609 17.5437 45.7739C17.5248 39.33 17.5278 32.8489 17.5278 26.3862C17.8311 26.0503 18.2212 25.9948 18.649 26.0136C19.2068 26.0324 19.7836 26.0136 20.3414 26.0136C20.8451 26.0136 21.0281 26.1812 21.177 26.6434C21.2339 26.8288 21.2682 27.0091 21.3251 27.1945C21.3251 27.2133 21.3639 27.2334 21.3991 27.2522C21.5481 27.1797 21.6795 27.0842 21.7905 26.974C23.0456 26.047 24.3968 25.5683 25.8575 25.5727ZM62.2964 25.578C62.7615 25.578 63.2269 25.627 63.6926 25.7197C64.5672 25.9051 65.3494 26.4188 65.8504 27.1577C65.8883 27.2142 65.9235 27.2513 65.9614 27.2889C65.9425 27.3078 65.9636 27.3038 65.9826 27.3414C66.4483 27.0647 66.928 26.7702 67.4317 26.5122C68.7341 25.8484 70.187 25.5159 71.6573 25.5885C72.7188 25.6449 73.684 25.943 74.4286 26.7169C75.1353 27.437 75.3999 28.324 75.4758 29.2834C75.4947 29.4876 75.4916 29.6849 75.4916 29.9079V39.4758C75.4916 40.3062 75.3817 40.4153 74.5449 40.4153H72.2761C72.1272 40.4153 71.9755 40.4131 71.8266 40.3943C71.6045 40.3755 71.4202 40.1895 71.3823 39.9692C71.3444 39.7649 71.3453 39.5646 71.3453 39.3603V30.8106C71.3643 30.4586 71.3263 30.1257 71.2342 29.7924C71.0853 29.2201 70.566 28.8171 69.9703 28.7795C68.8736 28.7043 67.7699 28.9261 66.7653 29.3883C66.6164 29.4259 66.5242 29.5764 66.5432 29.7242V39.4338C66.5432 39.6192 66.5441 39.7864 66.5062 39.9692C66.5062 40.2271 66.3007 40.41 66.0408 40.41C65.7619 40.4288 65.4819 40.431 65.184 40.431H63.2166C62.5288 40.431 62.381 40.2633 62.381 39.5808V30.8474C62.381 30.533 62.3589 30.1986 62.2858 29.8869C62.1558 29.2581 61.6184 28.8144 60.9848 28.7795C59.8692 28.7043 58.7343 28.9283 57.727 29.4093C57.578 29.4469 57.4855 29.6132 57.5207 29.761V39.607C57.5207 40.2896 57.3729 40.4363 56.6851 40.4363H54.1888C53.539 40.4363 53.3744 40.2489 53.3744 39.6228V26.8113H53.3691C53.3691 26.6635 53.3841 26.513 53.422 26.3652C53.4978 26.1449 53.7235 26.0136 53.9456 26.0136H56.2673C56.6031 26.0136 56.8093 26.2162 56.9231 26.5279C57.0151 26.7859 57.069 27.0279 57.1611 27.3047C57.3479 27.3047 57.4595 27.1752 57.5894 27.1C58.613 26.4712 59.6898 25.94 60.9002 25.7197C61.3659 25.627 61.8313 25.578 62.2964 25.578ZM85.9262 25.7092C86.5473 25.7693 87.1564 25.8975 87.7508 26.0923C90.1878 26.9576 91.193 29.3023 90.5432 31.6294C90.2832 32.5538 89.6716 33.2163 88.8349 33.6973C88.1092 34.0842 87.3257 34.3271 86.5079 34.4373C85.1134 34.6577 83.6795 34.6402 82.2823 34.3796C82.1144 34.342 81.9292 34.3222 81.764 34.3061C81.6719 35.9668 82.6947 37.314 84.2761 37.6284C85.4296 37.8326 86.6237 37.8335 87.7772 37.5916C88.316 37.4815 88.8355 37.3717 89.3744 37.24C89.9132 37.1083 90.1412 37.2795 90.1412 37.8331C90.1412 38.2953 90.1223 38.7543 90.1412 39.1976C90.1602 39.6787 89.9344 39.939 89.5066 40.1056C88.7999 40.3824 88.0511 40.5697 87.3065 40.6987C85.893 40.9191 84.4653 40.9711 83.0491 40.6567C80.5742 40.1408 78.9339 38.6831 78.284 36.227C77.7804 34.3057 77.7064 32.3668 78.3211 30.4643C79.1957 27.6749 81.116 26.0739 84.054 25.7407C84.6768 25.6574 85.3051 25.6491 85.9262 25.7092ZM43.2466 25.8719C43.7313 25.8907 43.8962 26.0395 43.9341 26.5017C43.972 27.1305 43.9553 27.7728 43.9553 28.4016C43.9742 28.6596 43.9562 28.9047 43.9183 29.1626C43.8451 29.4959 43.7119 29.6236 43.3788 29.6612C43.1189 29.68 42.8719 29.6591 42.6119 29.6402C41.3664 29.5301 40.1564 29.7729 38.9839 30.1598C38.724 30.2512 38.7248 30.4332 38.7248 30.6374V39.5021C38.7248 39.6687 38.7279 39.8131 38.7089 39.9797C38.69 40.2188 38.5004 40.4048 38.2594 40.4048C38.1294 40.4236 37.9821 40.4258 37.8521 40.4258H35.4299C35.3 40.4258 35.1527 40.4236 35.0227 40.4048C34.7817 40.386 34.5921 40.1848 34.5732 39.9429C34.5542 39.7951 34.5573 39.6499 34.5573 39.5021V26.9373C34.5573 26.0881 34.6483 25.9978 35.504 25.9978H37.2916C37.7762 25.9978 37.9972 26.1654 38.1272 26.6276C38.2571 27.0898 38.3678 27.5528 38.4815 28.05C38.6115 28.0123 38.723 27.9397 38.7988 27.8295C39.1346 27.4963 39.4882 27.1804 39.8618 26.8848C40.8285 26.1458 42.0362 25.7805 43.2466 25.8719ZM46.3722 25.9926C47.3389 25.9738 48.3037 25.9738 49.2704 25.9926C49.6982 25.9926 49.8301 26.1243 49.868 26.5489C49.887 26.7155 49.8892 26.8652 49.8892 27.0318V39.3236C49.8892 39.5278 49.8658 39.7335 49.8468 39.9377C49.8279 40.1768 49.6436 40.344 49.4026 40.3628C49.2916 40.3816 49.1963 40.3785 49.0853 40.3785H46.4991C46.4071 40.3785 46.332 40.3816 46.24 40.3628C45.98 40.344 45.7565 40.1406 45.7375 39.8799C45.7186 39.7321 45.7164 39.5816 45.7164 39.4338C45.7354 37.3835 45.7375 35.2818 45.7375 33.1777V26.6224C45.7565 26.179 45.9254 26.0114 46.3722 25.9926ZM85.0905 28.5433C83.8991 28.4708 82.729 28.9316 82.1712 30.2806C82.0033 30.6863 81.8737 31.1125 81.8169 31.5559C81.779 31.8515 81.776 31.849 82.0549 31.8866C82.7805 31.9968 83.524 32.0545 84.2497 32.0545C84.6585 32.0922 85.0681 32.0567 85.4608 31.9653C86.1106 31.8363 86.6561 31.5558 86.8781 30.8894C86.9702 30.575 86.9852 30.2433 86.931 29.9289C86.8768 29.4103 86.5642 28.968 86.0795 28.7638C85.7627 28.6348 85.4263 28.5594 85.0905 28.5433ZM24.493 28.7008C23.6758 28.6923 22.8914 28.9068 22.1237 29.2676C21.8827 29.359 21.7292 29.5817 21.7482 29.8397C21.7672 30.9468 21.7482 32.0548 21.7482 33.1619V36.5052C21.7347 36.7256 21.8677 36.9255 22.0708 37.0195C22.9075 37.4629 23.8361 37.6664 24.7838 37.6126C25.4175 37.6126 26.0154 37.3728 26.4974 36.9671C26.9252 36.5801 27.2242 36.0594 27.3542 35.487C27.6899 34.3611 27.69 33.1792 27.5763 31.9968C27.5384 31.3519 27.3686 30.7038 27.0897 30.1126C26.7729 29.3924 26.1058 28.8949 25.3233 28.7847C25.0444 28.7297 24.7654 28.7036 24.493 28.7008ZM35.9694 46.6504C36.3674 46.6101 36.7697 46.6913 37.1488 46.8499C37.9286 47.1482 38.4647 47.859 38.5027 48.6921C38.6624 50.4952 37.4431 51.4091 35.8266 51.3688C35.6073 51.3688 35.3901 51.3277 35.1708 51.29C33.9333 50.9918 33.2958 50.0414 33.415 48.6763C33.5151 47.5826 34.3737 46.7682 35.5516 46.6714C35.6924 46.6526 35.8286 46.6289 35.9694 46.6504ZM52.6604 46.7869H55.437C56.0354 46.7869 56.198 46.9247 56.2197 47.5374V68.421C56.2007 68.996 56.0398 69.1715 55.4793 69.1715C54.7807 69.1903 54.0841 69.1715 53.3638 69.1715H52.8825C52.5441 69.1715 52.263 68.9532 52.1844 68.6362C52.1438 68.397 52.0625 68.161 51.9623 67.9434C51.7836 67.9837 51.7065 68.1199 51.5657 68.2005C49.7081 69.5683 47.6686 69.9037 45.4943 69.2292C43.8967 68.7536 42.8017 67.6466 42.0408 66.2009C41.3828 64.8922 41.0412 63.4457 41.0412 61.9811C41.0006 60.4172 41.1409 58.869 41.7393 57.4045C42.3594 55.8781 43.3163 54.5896 44.8543 53.8775C47.0504 52.8671 49.2243 53.0882 51.3012 54.2974C51.442 54.3753 51.5456 54.4938 51.7243 54.5126C51.8245 54.3728 51.7613 54.2377 51.7613 54.098V47.6791C51.7613 46.9267 51.9022 46.7869 52.6604 46.7869ZM83.1655 53.2477C83.8018 53.2702 84.4359 53.3557 85.0641 53.5049C87.7584 54.1794 89.4126 55.9025 90.1518 58.5171C90.252 58.8745 90.3333 59.2484 90.3739 59.6246C90.3739 59.6434 90.3898 59.6451 90.3898 59.6666H90.3475V59.866H90.3686C90.3497 59.866 90.3475 59.8817 90.3475 59.8817V60.0392C90.3069 60.1386 90.3483 60.2577 90.4268 60.3384V60.2596C90.4268 60.2784 90.448 60.2801 90.448 60.3016V62.5795H90.4533C90.4343 62.5983 90.4162 62.6394 90.4162 62.6582V62.6162C90.2971 62.6941 90.3127 62.7944 90.3316 62.9153V63.1935H90.3528C90.0739 65.9291 88.3355 69.0759 84.1439 69.5704C82.8847 69.7477 81.6074 69.6692 80.3889 69.3709C78.0927 68.7959 76.4967 67.4123 75.6979 65.2142C74.7799 62.7957 74.7588 60.1404 75.6767 57.7246C76.6136 55.1879 78.5567 53.7582 81.251 53.3632C81.89 53.2638 82.5291 53.2252 83.1655 53.2477ZM66.6014 53.4209C67.6005 53.3806 68.6151 53.5032 69.5736 53.7988C71.2904 54.3739 72.4276 55.4812 72.8473 57.2628C73.0071 57.9749 73.0092 58.7288 72.8684 59.4409C72.6491 60.591 71.9122 61.5649 70.8535 62.0808C69.8164 62.6344 68.6541 62.8532 67.4952 62.9311C66.1575 63.0305 64.8209 62.9288 63.5022 62.6897C63.4237 62.6494 63.3221 62.6529 63.2219 62.6529C63.2598 63.0775 63.3438 63.4703 63.444 63.8653C63.8042 65.2116 64.7212 65.9849 66.0778 66.2429C67.4344 66.4793 68.8336 66.4235 70.1712 66.1064C70.6099 66.007 71.0283 65.9045 71.467 65.7862C72.0464 65.6465 72.2809 65.8462 72.3026 66.4213V67.8489C72.3026 68.4642 72.1653 68.6599 71.5886 68.8776C70.2103 69.3935 68.751 69.6723 67.2942 69.6911C66.295 69.7314 65.2783 69.6311 64.3008 69.3919C62.0235 68.7766 60.43 67.4111 59.7314 65.1512C59.0518 62.9531 58.9508 60.71 59.6521 58.5119C60.6892 55.1825 63.2464 53.5015 66.6014 53.4209ZM16.6869 53.7411C17.8242 53.7223 18.9614 53.7411 20.077 53.7411C20.5563 53.7411 20.7776 54.0593 20.8967 54.4758C21.1161 55.2283 21.3327 56.0013 21.5737 56.7537C22.3914 59.5081 23.1913 62.2813 24.0117 65.0357C23.9928 65.0545 24.0134 65.0567 24.0541 65.0567C24.1732 64.6617 24.2945 64.2813 24.4137 63.8863C25.3316 60.8148 26.2484 57.7677 27.169 54.6963L27.2854 54.3341C27.3856 53.9767 27.7291 53.7621 28.0893 53.7621H31.1197C31.8779 53.7621 32.0407 53.9815 31.7808 54.6963L30.5855 57.8453C29.2479 61.293 27.9091 64.7581 26.5714 68.2058C26.5308 68.324 26.4693 68.4444 26.4286 68.5627C26.2878 68.9792 25.8704 69.2538 25.4291 69.2135C24.5517 69.1947 23.6727 69.1947 22.7954 69.2135C22.1753 69.2323 21.8194 68.9588 21.6001 68.4052C21.1019 67.0965 20.5805 65.7696 20.0823 64.4636C18.8854 61.3519 17.6697 58.2415 16.4701 55.1109C16.3455 54.8717 16.2652 54.5921 16.2057 54.3341C16.1461 53.9391 16.2862 53.7411 16.6869 53.7411ZM34.515 53.7621H37.3867C38.0041 53.7621 38.1853 53.9392 38.1853 54.5546V61.4878V68.6204C38.1447 69.0154 37.9673 69.1947 37.5666 69.2135C36.4889 69.2323 35.4288 69.2323 34.3511 69.2135C33.953 69.2135 33.7729 69.0176 33.7323 68.6414C33.7133 68.5232 33.7111 68.3817 33.7111 68.2635V54.5546C33.7301 53.9392 33.8949 53.7621 34.515 53.7621ZM66.1942 56.465C65.3843 56.5384 64.6734 56.8764 64.121 57.6039C63.6417 58.2381 63.4632 58.9924 63.3224 59.7663C63.2818 59.9436 63.3658 60.0204 63.5445 60.0392C64.3406 60.1601 65.1357 60.2198 65.9562 60.2386C66.3759 60.2574 66.7957 60.2195 67.1937 60.1389C67.9329 59.9992 68.5905 59.7035 68.7909 58.9108C69.0508 57.8413 68.7153 56.7352 67.3153 56.5175C67.2152 56.5175 67.1352 56.4755 67.035 56.4755C66.7453 56.4459 66.4641 56.4405 66.1942 56.465ZM48.366 56.6382C47.4887 56.6973 46.6914 57.1921 46.2717 57.9661C46.093 58.2831 45.9725 58.6011 45.8751 58.937C45.5745 60.1463 45.4747 61.4113 45.6318 62.6582C45.6913 63.3515 45.8729 64.0237 46.1924 64.6578C46.6121 65.4694 47.4111 66.028 48.329 66.1274C49.4067 66.2859 50.5066 66.0638 51.4652 65.5291C51.6845 65.4296 51.8231 65.2145 51.7825 64.978V61.3723C51.7825 60.1631 51.7657 58.9737 51.8036 57.7456C51.8226 57.4877 51.685 57.2542 51.444 57.1735C50.4855 56.7382 49.4221 56.5388 48.366 56.6382ZM82.3722 56.7327C81.5328 56.7918 80.7747 57.2487 80.336 57.9608C80.0978 58.3558 79.8968 58.8161 79.7966 59.2729C79.5177 60.423 79.5325 61.589 79.6326 62.7579C79.6922 63.4324 79.8742 64.1054 80.1721 64.7208C80.5106 65.4947 81.2101 66.0476 82.0496 66.2061C82.4287 66.284 82.8075 66.2857 83.1866 66.2481C83.9448 66.189 84.6466 65.7901 85.0853 65.1774C85.3452 64.82 85.5214 64.4445 85.6406 64.028C85.8816 63.2165 85.9804 62.3611 85.9209 61.4878C85.9398 61.1304 85.9187 60.7797 85.8997 60.4223C85.8618 59.6484 85.6617 58.8745 85.3233 58.1812C84.9631 57.4476 84.308 56.9305 83.5092 56.7747C83.1302 56.6967 82.7513 56.6951 82.3722 56.7327ZM82.3775 75.4801C83.447 75.5124 84.4977 75.5787 85.5348 75.8527C85.8272 75.9334 86.1022 76.0282 86.3757 76.1572C86.7494 76.3023 86.9933 76.6546 87.0421 77.0389C87.1071 77.4903 87.1222 77.9569 87.0897 78.4245C86.8785 81.1789 86.0204 83.8327 84.5934 86.1974C84.0735 87.0493 83.4443 87.8217 82.7159 88.4962C82.5697 88.6413 82.3873 88.7519 82.1924 88.8164C81.8837 88.897 81.6903 88.7396 81.6741 88.4332C81.6903 88.272 81.7254 88.1116 81.7904 87.9504C82.3591 86.4375 82.9066 84.9403 83.3453 83.379C83.6052 82.5272 83.7816 81.6599 83.8953 80.7758C83.9278 80.4533 83.9437 80.1325 83.9112 79.8101C83.8949 79.2646 83.5403 78.7957 83.0068 78.6344C82.5032 78.4732 81.9881 78.378 81.4519 78.3458C79.9599 78.2813 78.4694 78.3465 76.9936 78.5399L75.0315 78.7814C74.8203 78.7975 74.6269 78.7807 74.5132 78.5872C74.3995 78.3937 74.4471 78.2006 74.5608 78.0099C74.6908 77.8325 74.8524 77.6714 75.0474 77.5585C76.2469 76.7066 77.5922 76.1913 79.0192 75.8527C80.1212 75.627 81.2429 75.5124 82.3775 75.4801ZM20.2832 76.3041C20.3966 76.2776 20.5146 76.2872 20.627 76.3356C20.7732 76.4001 20.9201 76.4649 21.0501 76.5455C26.8691 80.1168 33.2244 82.7235 39.8883 84.266C42.1249 84.7819 44.3781 85.1829 46.6472 85.4731C49.9047 85.8762 53.1918 86.0137 56.4683 85.9035C58.2337 85.8551 59.9866 85.6989 61.7358 85.4731C65.8191 84.9572 69.8549 84.0364 73.7622 82.7492C75.8202 82.0747 77.8334 81.3034 79.7966 80.4031C80.089 80.2419 80.4395 80.1913 80.7644 80.2719C81.3006 80.4036 81.6295 80.9549 81.4996 81.4843C81.4833 81.5488 81.4474 81.6298 81.4149 81.6943C81.285 81.9361 81.1082 82.1445 80.8808 82.3031C79.0178 83.7515 77.0063 85.0205 74.8834 86.082C70.8786 88.092 66.5989 89.5241 62.1906 90.3437C59.6453 90.7951 57.0866 91.0657 54.5114 91.1624C53.8643 91.1463 53.2124 91.1463 52.5652 91.1624C51.6744 91.1141 50.7827 91.0852 49.8892 91.0207C47.5225 90.8434 45.1727 90.4899 42.8711 89.9605C34.9129 88.1279 27.9281 84.4414 21.8328 79.0858C21.2669 78.586 20.7299 78.0744 20.1775 77.5585C20.0475 77.4456 19.9357 77.2841 19.8707 77.1229C19.7732 76.8971 19.8193 76.652 19.9818 76.4773C20.063 76.39 20.1698 76.3306 20.2832 76.3041Z" fill="#3D1E4C"/>
</g>
<defs>
<clipPath id="clip0_85_3">
<rect width="107" height="107" fill="white"/>
</clipPath>
</defs>
</svg>
