<svg width="107" height="107" viewBox="0 0 107 107" fill="none" xmlns="http://www.w3.org/2000/svg">
<rect width="107" height="107" fill="#3D1E4C"/>
<path d="M56.4204 59.6516H63.2962" stroke="#9D45C7" stroke-width="3" stroke-linecap="round" stroke-linejoin="round"/>
<path d="M56.4204 45.8999H63.2962" stroke="#9D45C7" stroke-width="3" stroke-linecap="round" stroke-linejoin="round"/>
<path d="M56.4204 52.7756H60.8897" stroke="#9D45C7" stroke-width="3" stroke-linecap="round" stroke-linejoin="round"/>
<path d="M56.4204 45.8999V59.6515" stroke="#9D45C7" stroke-width="3" stroke-linecap="round" stroke-linejoin="round"/>
<path d="M71.6304 59.3816H78.5062" stroke="#9D45C7" stroke-width="3" stroke-linecap="round" stroke-linejoin="round"/>
<path d="M71.6304 45.6299H78.5062" stroke="#9D45C7" stroke-width="3" stroke-linecap="round" stroke-linejoin="round"/>
<path d="M71.6304 52.5059H76.0997" stroke="#9D45C7" stroke-width="3" stroke-linecap="round" stroke-linejoin="round"/>
<path d="M71.6304 45.6299V59.3815" stroke="#9D45C7" stroke-width="3" stroke-linecap="round" stroke-linejoin="round"/>
<path d="M40.5525 45.53H49.6631L40.5525 59.2813H49.6631" stroke="#9D45C7" stroke-width="3" stroke-linecap="round" stroke-linejoin="round"/>
<path d="M85.5626 58.3714C86.131 58.844 86.7905 59.1947 87.5001 59.4017C88.2097 59.6087 88.9543 59.6676 89.6876 59.5746H90.2032C91.382 59.5537 92.5067 59.0761 93.3403 58.2424C94.174 57.4088 94.6516 56.2841 94.6725 55.1054C94.6516 53.9266 94.174 52.802 93.3403 51.9683C92.5067 51.1347 91.382 50.6571 90.2032 50.6361H85.5626V45.823H94.6731" stroke="#9D45C7" stroke-width="3" stroke-linecap="round" stroke-linejoin="round"/>
<path d="M46.4081 77.2907C40.0375 75.8431 34.4986 71.9333 31.001 66.4154C27.5035 60.8974 26.3315 54.2197 27.7412 47.8405C29.1508 41.4614 33.0274 35.8992 38.5244 32.3688C44.0214 28.8384 50.692 27.6267 57.0795 28.9982" stroke="#9D45C7" stroke-width="3" stroke-linecap="round" stroke-linejoin="round"/>
<path d="M66.4435 84.8596C61.2088 87.0244 55.5121 87.8318 49.8821 87.2068C44.252 86.5819 38.8711 84.5448 34.2386 81.2847C29.6061 78.0246 25.8723 73.6471 23.3836 68.5584C20.8948 63.4698 19.7319 57.8349 20.0027 52.1768C20.2734 46.5186 21.9691 41.0206 24.9324 36.1928C27.8957 31.3651 32.0305 27.3641 36.9531 24.5613C41.8757 21.7584 47.4266 20.2445 53.0906 20.16C58.7546 20.0755 64.3481 21.4232 69.3521 24.0779" stroke="#9D45C7" stroke-width="3" stroke-linecap="round" stroke-linejoin="round"/>
<path d="M52.8844 93.3125C42.2803 93.1126 32.1821 88.7423 24.7779 81.1486C17.3738 73.5548 13.2602 63.3493 13.3285 52.7436C13.3968 42.1379 17.6415 31.9862 25.1428 24.4884C32.6441 16.9907 42.7978 12.7508 53.4036 12.6875" stroke="#9D45C7" stroke-width="3" stroke-linecap="round" stroke-linejoin="round"/>
</svg>
