<svg width="107" height="107" viewBox="0 0 107 107" fill="none" xmlns="http://www.w3.org/2000/svg">
<g clip-path="url(#clip0_90_9)">
<rect width="107" height="107" fill="white"/>
<g filter="url(#filter0_d_90_9)">
<rect width="107" height="107" fill="#9D45C7"/>
<path d="M58.9819 12.0338L58.9569 30.3939L58.9319 48.7539L57.4086 44.4979L55.4358 85.3255C57.3836 90.7445 58.4075 93.6395 58.4325 93.6395C58.4325 93.6395 59.5562 93.7137 60.8798 93.788C64.9253 93.9859 69.9198 94.4066 73.7156 94.8767C74.5896 94.9757 75.3388 95.0499 75.4137 95.0004C75.4637 94.9509 75.4887 76.2692 75.4637 53.48L75.4387 12.0338H58.9819Z" fill="#3D1E4C"/>
<path d="M29.2896 11.984V53.4549C29.2896 76.2689 29.3145 94.9506 29.3395 95.0001C29.3645 95.0249 30.7879 94.9011 32.511 94.7032C34.2341 94.5052 36.6065 94.2825 37.7802 94.1836C39.5782 94.0351 45.0222 93.6887 45.6215 93.6887C45.8213 93.6887 45.8213 92.7484 45.8463 76.1204L45.8712 58.5522L47.1948 62.2143C47.3946 62.7834 47.4695 62.9566 47.6693 63.5257L49.6421 22.6982C49.2176 21.5352 49.4423 22.129 48.9678 20.8176C47.3696 16.3142 45.9961 12.5036 45.9462 12.3304L45.8463 12.0335L29.2896 11.984Z" fill="#3D1E4C"/>
<path d="M29.2896 11.984V35.2681L45.8463 78.7928C45.8463 77.803 45.8463 77.2587 45.8463 76.1204L45.8712 58.5522L47.1948 62.2143C54.4618 82.6528 58.3824 93.6144 58.4074 93.6392C58.4074 93.6392 59.5312 93.7134 60.8547 93.7876C64.9002 93.9856 69.8947 94.4062 73.6905 94.8764C74.5646 94.9754 75.3137 95.0496 75.3887 95.0001C75.4136 94.9754 75.4386 85.8201 75.4386 72.9037L58.9818 25.9396V30.3935L58.9568 48.7536L57.4335 44.4976C55.9351 40.3406 54.9612 37.5446 48.9678 20.7929C47.3696 16.2895 45.9961 12.4789 45.9462 12.3057L45.8463 12.0088L29.2896 11.984Z" fill="url(#paint0_radial_90_9)"/>
<path d="M29.2896 11.984L45.8712 58.5769V58.5522L47.1948 62.2143C54.4867 82.6528 58.3824 93.6144 58.4074 93.6392C58.4074 93.6392 59.5312 93.7134 60.8547 93.7876C64.9002 93.9856 69.8947 94.4062 73.6905 94.8764C74.5646 94.9754 75.3137 95.0496 75.3637 95.0001L58.9069 48.7288L57.3835 44.4729C55.8852 40.3159 54.9113 37.5198 48.9179 20.7681C47.3196 16.2647 45.9462 12.4541 45.8962 12.2809L45.7963 11.984H37.5305H29.2896Z" fill="#561376"/>
</g>
</g>
<defs>
<filter id="filter0_d_90_9" x="-4" y="0" width="115" height="115" filterUnits="userSpaceOnUse" color-interpolation-filters="sRGB">
<feFlood flood-opacity="0" result="BackgroundImageFix"/>
<feColorMatrix in="SourceAlpha" type="matrix" values="0 0 0 0 0 0 0 0 0 0 0 0 0 0 0 0 0 0 127 0" result="hardAlpha"/>
<feOffset dy="4"/>
<feGaussianBlur stdDeviation="2"/>
<feComposite in2="hardAlpha" operator="out"/>
<feColorMatrix type="matrix" values="0 0 0 0 0 0 0 0 0 0 0 0 0 0 0 0 0 0 0.25 0"/>
<feBlend mode="normal" in2="BackgroundImageFix" result="effect1_dropShadow_90_9"/>
<feBlend mode="normal" in="SourceGraphic" in2="effect1_dropShadow_90_9" result="shape"/>
</filter>
<radialGradient id="paint0_radial_90_9" cx="0" cy="0" r="1" gradientUnits="userSpaceOnUse" gradientTransform="translate(51.5863 53.0149) rotate(-18.9388) scale(3.03891 110.514)">
<stop stop-color="#010202"/>
<stop offset="1" stop-color="#010202" stop-opacity="0"/>
</radialGradient>
<clipPath id="clip0_90_9">
<rect width="107" height="107" fill="red"/>
</clipPath>
</defs>
</svg>
